STARTFONT 2.1
COMMENT
COMMENT Converted from OpenType font "MultiTypeGamerChess-Regular.otf" by "otf2bdf 3.0".
COMMENT
FONT -FreeType-MultiType Gamer Chess-Medium-R-Normal--44-320-100-100-P-269-ISO10646-1
SIZE 32 100 100
FONTBOUNDINGBOX 116 77 -39 -13
STARTPROPERTIES 19
FOUNDRY "FreeType"
FAMILY_NAME "MultiType Gamer Chess"
WEIGHT_NAME "Medium"
SLANT "R"
SETWIDTH_NAME "Normal"
ADD_STYLE_NAME ""
PIXEL_SIZE 44
POINT_SIZE 320
RESOLUTION_X 100
RESOLUTION_Y 100
SPACING "P"
AVERAGE_WIDTH 269
CHARSET_REGISTRY "ISO10646"
CHARSET_ENCODING "1"
FONT_ASCENT 48
FONT_DESCENT 4
COPYRIGHT "-FreeType-MultiType Gamer Chess-Medium-R-Normal--44-320-100-100-P-269-ISO10646-1"
_OTF_FONTFILE "MultiTypeGamerChess-Regular.otf"
_OTF_PSNAME "MultiTypeGamer-Chess"
ENDPROPERTIES
CHARS 758
STARTCHAR 0020
ENCODING 32
SWIDTH 292 0
DWIDTH 13 0
BBX 0 0 0 0
BITMAP
ENDCHAR
STARTCHAR 0021
ENCODING 33
SWIDTH 292 0
DWIDTH 13 0
BBX 7 33 3 0
BITMAP
E6
E6
18
18
E6
E6
18
18
18
E6
E6
18
18
E6
E6
18
18
E6
E6
E6
18
18
00
00
00
00
E6
E6
E6
18
18
E6
E6
ENDCHAR
STARTCHAR 0022
ENCODING 34
SWIDTH 450 0
DWIDTH 20 0
BBX 18 11 1 27
BITMAP
C618C0
C618C0
380700
380700
380700
C618C0
C618C0
380700
380700
C618C0
C618C0
ENDCHAR
STARTCHAR 0023
ENCODING 35
SWIDTH 900 0
DWIDTH 40 0
BBX 34 42 3 -4
BITMAP
019C0E6000
019C0E6000
0060018000
0060018000
0060018000
019C0E6000
019C0E6000
0060018000
0060018000
019C0E6000
019C0E6000
E6633199C0
E6633199C0
E6633199C0
199CCE6600
199CCE6600
E6633199C0
E6633199C0
019C0E6000
019C0E6000
0060018000
0060018000
019C0E6000
019C0E6000
019C0E6000
E6633199C0
E6633199C0
199CCE6600
199CCE6600
E6633199C0
E6633199C0
019C0E6000
019C0E6000
019C0E6000
0060018000
0060018000
019C0E6000
019C0E6000
0060018000
0060018000
019C0E6000
019C0E6000
ENDCHAR
STARTCHAR 0024
ENCODING 36
SWIDTH 697 0
DWIDTH 31 0
BBX 25 42 3 -4
BITMAP
00630000
00630000
001C0000
001C0000
001C0000
06633180
06633180
199CCE00
199CCE00
E6633180
E6633180
18000000
18000000
18000000
E6000000
E6000000
18000000
18000000
E6633000
E6633000
199CCE00
199CCE00
06633180
06633180
06633180
00000E00
00000E00
00003180
00003180
00000E00
00000E00
E6633180
E6633180
E6633180
199CCE00
199CCE00
E6633000
E6633000
001C0000
001C0000
00630000
00630000
ENDCHAR
STARTCHAR 0025
ENCODING 37
SWIDTH 1282 0
DWIDTH 57 0
BBX 51 33 3 0
BITMAP
06630019C00000
06630019C00000
199CC006000000
199CC006000000
E6633019C00000
E6633019C00000
1800C066000000
1800C066000000
1800C066000000
E6033018000000
E6033018000000
1800C066000000
1800C066000000
E66331980CE600
E66331980CE600
199CC060331980
199CC060331980
06630199CCE660
06630199CCE660
06630199CCE660
00000E60300180
00000E60300180
00000181CC0660
00000181CC0660
00000E60300180
00000E60300180
00003181CCE660
00003181CCE660
00003181CCE660
00000E00331980
00000E00331980
000031800CE600
000031800CE600
ENDCHAR
STARTCHAR 0026
ENCODING 38
SWIDTH 787 0
DWIDTH 35 0
BBX 29 33 3 0
BITMAP
06633000
06633000
199CC000
199CC000
E6633000
E6633000
18000000
18000000
18000000
E6003180
E6003180
19800E00
19800E00
06633198
06633198
019CCE60
019CCE60
06633198
06633198
06633198
19800E00
19800E00
E6003180
E6003180
18000E00
18000E00
E6633198
E6633198
E6633198
199CCE60
199CCE60
06633198
06633198
ENDCHAR
STARTCHAR 0027
ENCODING 39
SWIDTH 180 0
DWIDTH 8 0
BBX 7 11 1 27
BITMAP
C6
C6
38
38
38
C6
C6
38
38
C6
C6
ENDCHAR
STARTCHAR 0028
ENCODING 40
SWIDTH 292 0
DWIDTH 13 0
BBX 11 51 3 -9
BITMAP
0660
0660
1980
1980
E600
E600
1800
1800
1800
E600
E600
1800
1800
E600
E600
1800
1800
1800
E600
E600
1800
1800
E600
E600
1800
1800
E600
E600
E600
1800
1800
E600
E600
1800
1800
E600
E600
E600
1800
1800
E600
E600
1800
1800
E600
E600
1980
1980
1980
0660
0660
ENDCHAR
STARTCHAR 0029
ENCODING 41
SWIDTH 292 0
DWIDTH 13 0
BBX 11 51 -1 -9
BITMAP
CE00
CE00
3180
3180
0E60
0E60
0180
0180
0180
0E60
0E60
0180
0180
0E60
0E60
0180
0180
0180
0E60
0E60
0180
0180
0E60
0E60
0180
0180
0E60
0E60
0E60
0180
0180
0E60
0E60
0180
0180
0E60
0E60
0E60
0180
0180
0E60
0E60
0180
0180
0E60
0E60
3180
3180
3180
CE00
CE00
ENDCHAR
STARTCHAR 002A
ENCODING 42
SWIDTH 900 0
DWIDTH 40 0
BBX 34 29 3 9
BITMAP
E6033019C0
E6033019C0
1800C00600
1800C00600
1800C00600
E6033019C0
E6033019C0
1980C06600
1980C06600
0663319800
0663319800
019CCE6000
019CCE6000
019CCE6000
0063318000
0063318000
019CCE6000
019CCE6000
0663319800
0663319800
1980C06600
1980C06600
E6033019C0
E6033019C0
E6033019C0
1800C00600
1800C00600
E6033019C0
E6033019C0
ENDCHAR
STARTCHAR 002B
ENCODING 43
SWIDTH 697 0
DWIDTH 31 0
BBX 25 25 3 4
BITMAP
00630000
00630000
001C0000
001C0000
001C0000
00630000
00630000
001C0000
001C0000
E6633180
E6633180
199CCE00
199CCE00
E6633180
E6633180
E6633180
001C0000
001C0000
00630000
00630000
001C0000
001C0000
00630000
00630000
00630000
ENDCHAR
STARTCHAR 002C
ENCODING 44
SWIDTH 180 0
DWIDTH 8 0
BBX 7 11 1 -4
BITMAP
C6
C6
C6
38
38
C6
C6
38
38
C0
C0
ENDCHAR
STARTCHAR 002D
ENCODING 45
SWIDTH 495 0
DWIDTH 22 0
BBX 20 7 1 13
BITMAP
C66730
C66730
3998C0
3998C0
C66730
C66730
C66730
ENDCHAR
STARTCHAR 002E
ENCODING 46
SWIDTH 180 0
DWIDTH 8 0
BBX 7 7 1 0
BITMAP
C6
C6
C6
38
38
C6
C6
ENDCHAR
STARTCHAR 002F
ENCODING 47
SWIDTH 382 0
DWIDTH 17 0
BBX 16 33 1 0
BITMAP
0067
0067
0018
0018
0067
0067
0198
0198
0198
0060
0060
0198
0198
0660
0660
0180
0180
0660
0660
0660
3980
3980
0600
0600
3980
3980
C600
C600
C600
3800
3800
C600
C600
ENDCHAR
STARTCHAR 0030
ENCODING 48
SWIDTH 697 0
DWIDTH 31 0
BBX 25 33 3 0
BITMAP
00630000
00630000
019CC000
019CC000
06633000
06633000
1980CE00
1980CE00
1980CE00
E6003180
E6003180
18000E00
18000E00
E6003180
E6003180
18000E00
18000E00
E6003180
E6003180
E6003180
18000E00
18000E00
E6003180
E6003180
1980CE00
1980CE00
06633000
06633000
06633000
019CC000
019CC000
00630000
00630000
ENDCHAR
STARTCHAR 0031
ENCODING 49
SWIDTH 382 0
DWIDTH 17 0
BBX 11 33 3 0
BITMAP
E660
E660
1980
1980
E660
E660
0180
0180
0180
0660
0660
0180
0180
0660
0660
0180
0180
0660
0660
0660
0180
0180
0660
0660
0180
0180
0660
0660
0660
0180
0180
0660
0660
ENDCHAR
STARTCHAR 0032
ENCODING 50
SWIDTH 697 0
DWIDTH 31 0
BBX 25 33 3 0
BITMAP
06633000
06633000
199CCE00
199CCE00
E6633180
E6633180
18000E00
18000E00
18000E00
E6003180
E6003180
0000CE00
0000CE00
00033000
00033000
001CC000
001CC000
00630000
00630000
00630000
019C0000
019C0000
06600000
06600000
19800000
19800000
E6633180
E6633180
E6633180
199CCE00
199CCE00
E6633180
E6633180
ENDCHAR
STARTCHAR 0033
ENCODING 51
SWIDTH 697 0
DWIDTH 31 0
BBX 25 33 3 0
BITMAP
06633000
06633000
199CCE00
199CCE00
E6633180
E6633180
18000E00
18000E00
18000E00
E6003180
E6003180
0000CE00
0000CE00
00633000
00633000
001CCE00
001CCE00
00633180
00633180
00633180
00000E00
00000E00
E6003180
E6003180
18000E00
18000E00
E6633180
E6633180
E6633180
199CCE00
199CCE00
06633000
06633000
ENDCHAR
STARTCHAR 0034
ENCODING 52
SWIDTH 697 0
DWIDTH 31 0
BBX 25 33 3 0
BITMAP
00033000
00033000
001CC000
001CC000
00633000
00633000
019CC000
019CC000
019CC000
06633000
06633000
1980C000
1980C000
E6033000
E6033000
1800C000
1800C000
E6633180
E6633180
E6633180
199CCE00
199CCE00
E6633180
E6633180
0000C000
0000C000
00033000
00033000
00033000
0000C000
0000C000
00033000
00033000
ENDCHAR
STARTCHAR 0035
ENCODING 53
SWIDTH 697 0
DWIDTH 31 0
BBX 25 33 3 0
BITMAP
E6633180
E6633180
199CCE00
199CCE00
E6633180
E6633180
18000000
18000000
18000000
E6000000
E6000000
18000000
18000000
E6633000
E6633000
199CCE00
199CCE00
E6633180
E6633180
E6633180
00000E00
00000E00
00003180
00003180
00000E00
00000E00
E6633180
E6633180
E6633180
199CCE00
199CCE00
E6633000
E6633000
ENDCHAR
STARTCHAR 0036
ENCODING 54
SWIDTH 697 0
DWIDTH 31 0
BBX 25 33 3 0
BITMAP
00633180
00633180
019CCE00
019CCE00
06633180
06633180
19800000
19800000
19800000
E6000000
E6000000
18000000
18000000
E6633000
E6633000
199CCE00
199CCE00
E6633180
E6633180
E6633180
18000E00
18000E00
E6003180
E6003180
18000E00
18000E00
E6633180
E6633180
E6633180
199CCE00
199CCE00
06633000
06633000
ENDCHAR
STARTCHAR 0037
ENCODING 55
SWIDTH 697 0
DWIDTH 31 0
BBX 25 33 3 0
BITMAP
E6633180
E6633180
199CCE00
199CCE00
E6633180
E6633180
00000E00
00000E00
00000E00
00003180
00003180
0000CE00
0000CE00
00033000
00033000
001CC000
001CC000
00630000
00630000
00630000
019C0000
019C0000
06600000
06600000
01800000
01800000
06600000
06600000
06600000
01800000
01800000
06600000
06600000
ENDCHAR
STARTCHAR 0038
ENCODING 56
SWIDTH 697 0
DWIDTH 31 0
BBX 25 33 3 0
BITMAP
06633000
06633000
199CCE00
199CCE00
E6633180
E6633180
18000E00
18000E00
18000E00
E6003180
E6003180
1980CE00
1980CE00
06633000
06633000
019CC000
019CC000
06633000
06633000
06633000
1980CE00
1980CE00
E6003180
E6003180
18000E00
18000E00
E6633180
E6633180
E6633180
199CCE00
199CCE00
06633000
06633000
ENDCHAR
STARTCHAR 0039
ENCODING 57
SWIDTH 697 0
DWIDTH 31 0
BBX 25 33 3 0
BITMAP
06633000
06633000
199CCE00
199CCE00
E6633180
E6633180
18000E00
18000E00
18000E00
E6003180
E6003180
18000E00
18000E00
E6633180
E6633180
199CCE00
199CCE00
06633180
06633180
06633180
00000E00
00000E00
00003180
00003180
0000CE00
0000CE00
E6633000
E6633000
E6633000
199CC000
199CC000
E6630000
E6630000
ENDCHAR
STARTCHAR 003A
ENCODING 58
SWIDTH 180 0
DWIDTH 8 0
BBX 7 20 1 7
BITMAP
C6
C6
C6
38
38
C6
C6
00
00
00
00
00
00
00
C6
C6
38
38
C6
C6
ENDCHAR
STARTCHAR 003B
ENCODING 59
SWIDTH 180 0
DWIDTH 8 0
BBX 7 24 1 -4
BITMAP
C6
C6
38
38
C6
C6
C6
00
00
00
00
00
00
C6
C6
C6
38
38
C6
C6
38
38
C0
C0
ENDCHAR
STARTCHAR 003C
ENCODING 60
SWIDTH 630 0
DWIDTH 28 0
BBX 22 33 1 0
BITMAP
0000CC
0000CC
000730
000730
0018C0
0018C0
006700
006700
006700
019800
019800
066000
066000
398000
398000
C60000
C60000
398000
398000
398000
066000
066000
019800
019800
006700
006700
0018C0
0018C0
0018C0
000730
000730
0000CC
0000CC
ENDCHAR
STARTCHAR 003D
ENCODING 61
SWIDTH 697 0
DWIDTH 31 0
BBX 25 20 3 4
BITMAP
E6633180
E6633180
199CCE00
199CCE00
E6633180
E6633180
00000000
00000000
00000000
00000000
00000000
00000000
00000000
E6633180
E6633180
199CCE00
199CCE00
E6633180
E6633180
E6633180
ENDCHAR
STARTCHAR 003E
ENCODING 62
SWIDTH 630 0
DWIDTH 28 0
BBX 22 33 6 0
BITMAP
CC0000
CC0000
330000
330000
0CE000
0CE000
031800
031800
031800
00E600
00E600
001980
001980
000670
000670
00018C
00018C
000670
000670
000670
001980
001980
00E600
00E600
031800
031800
0CE000
0CE000
0CE000
330000
330000
CC0000
CC0000
ENDCHAR
STARTCHAR 003F
ENCODING 63
SWIDTH 697 0
DWIDTH 31 0
BBX 25 33 3 0
BITMAP
06633000
06633000
199CCE00
199CCE00
E6633180
E6633180
18000E00
18000E00
18000E00
E6003180
E6003180
00000E00
00000E00
00033180
00033180
001CCE00
001CCE00
00633000
00633000
00633000
001C0000
001C0000
00630000
00630000
00000000
00000000
00630000
00630000
00630000
001C0000
001C0000
00630000
00630000
ENDCHAR
STARTCHAR 0040
ENCODING 64
SWIDTH 1192 0
DWIDTH 53 0
BBX 47 46 3 -4
BITMAP
00633199CC00
00633199CC00
019CCE663300
019CCE663300
06633199CCE0
06633199CCE0
198000000318
198000000318
198000000318
E600000000E6
E600000000E6
180000000018
180000000018
E6003199C0E6
E6003199C0E6
1800CE660018
1800CE660018
1800CE660018
E6033199C0E6
E6033199C0E6
1800C0060018
1800C0060018
E6033019C0E6
E6033019C0E6
1800C0060018
1800C0060018
E6033199CCE6
E6033199CCE6
E6033199CCE6
1800CE663318
1800CE663318
E6003199CCE0
E6003199CCE0
180000000000
180000000000
E60000000000
E60000000000
E60000000000
198000000000
198000000000
06633199CCE6
06633199CCE6
019CCE663318
019CCE663318
00633199CCE6
00633199CCE6
ENDCHAR
STARTCHAR 0041
ENCODING 65
SWIDTH 697 0
DWIDTH 31 0
BBX 25 33 3 0
BITMAP
00630000
00630000
019CC000
019CC000
06633000
06633000
1980CE00
1980CE00
1980CE00
E6003180
E6003180
18000E00
18000E00
E6003180
E6003180
18000E00
18000E00
E6633180
E6633180
E6633180
199CCE00
199CCE00
E6633180
E6633180
18000E00
18000E00
E6003180
E6003180
E6003180
18000E00
18000E00
E6003180
E6003180
ENDCHAR
STARTCHAR 0042
ENCODING 66
SWIDTH 697 0
DWIDTH 31 0
BBX 25 33 3 0
BITMAP
E6633000
E6633000
199CCE00
199CCE00
E6633180
E6633180
18000E00
18000E00
18000E00
E6003180
E6003180
1800CE00
1800CE00
E6633000
E6633000
199CCE00
199CCE00
E6633180
E6633180
E6633180
18000E00
18000E00
E6003180
E6003180
18000E00
18000E00
E6633180
E6633180
E6633180
199CCE00
199CCE00
E6633000
E6633000
ENDCHAR
STARTCHAR 0043
ENCODING 67
SWIDTH 787 0
DWIDTH 35 0
BBX 29 33 3 0
BITMAP
00633000
00633000
019CCE00
019CCE00
06633180
06633180
19800E60
19800E60
19800E60
E6000198
E6000198
18000060
18000060
E6000198
E6000198
18000000
18000000
E6000000
E6000000
E6000000
18000000
18000000
E6000198
E6000198
19800E60
19800E60
06633180
06633180
06633180
019CCE00
019CCE00
00633000
00633000
ENDCHAR
STARTCHAR 0044
ENCODING 68
SWIDTH 787 0
DWIDTH 35 0
BBX 29 33 3 0
BITMAP
E6633000
E6633000
199CCE00
199CCE00
E6633180
E6633180
18000E60
18000E60
18000E60
E6000198
E6000198
18000060
18000060
E6000198
E6000198
18000060
18000060
E6000198
E6000198
E6000198
18000060
18000060
E6000198
E6000198
18000E60
18000E60
E6633180
E6633180
E6633180
199CCE00
199CCE00
E6633000
E6633000
ENDCHAR
STARTCHAR 0045
ENCODING 69
SWIDTH 697 0
DWIDTH 31 0
BBX 25 33 3 0
BITMAP
00633180
00633180
019CCE00
019CCE00
06633180
06633180
19800000
19800000
19800000
E6000000
E6000000
18000000
18000000
E6633000
E6633000
199CC000
199CC000
E6633000
E6633000
E6633000
18000000
18000000
E6000000
E6000000
19800000
19800000
06633180
06633180
06633180
019CCE00
019CCE00
00633180
00633180
ENDCHAR
STARTCHAR 0046
ENCODING 70
SWIDTH 697 0
DWIDTH 31 0
BBX 25 33 3 0
BITMAP
00633180
00633180
019CCE00
019CCE00
06633180
06633180
19800000
19800000
19800000
E6000000
E6000000
18000000
18000000
E6633000
E6633000
199CC000
199CC000
E6633000
E6633000
E6633000
18000000
18000000
E6000000
E6000000
18000000
18000000
E6000000
E6000000
E6000000
18000000
18000000
E6000000
E6000000
ENDCHAR
STARTCHAR 0047
ENCODING 71
SWIDTH 787 0
DWIDTH 35 0
BBX 29 33 3 0
BITMAP
00633198
00633198
019CCE60
019CCE60
06633198
06633198
19800000
19800000
19800000
E6000000
E6000000
18000000
18000000
E6033198
E6033198
1800CE60
1800CE60
E6033198
E6033198
E6033198
18000060
18000060
E6000198
E6000198
19800060
19800060
06633198
06633198
06633198
019CCE60
019CCE60
00633198
00633198
ENDCHAR
STARTCHAR 0048
ENCODING 72
SWIDTH 787 0
DWIDTH 35 0
BBX 29 33 3 0
BITMAP
E6000198
E6000198
18000060
18000060
E6000198
E6000198
18000060
18000060
18000060
E6000198
E6000198
18000060
18000060
E6633198
E6633198
199CCE60
199CCE60
E6633198
E6633198
E6633198
18000060
18000060
E6000198
E6000198
18000060
18000060
E6000198
E6000198
E6000198
18000060
18000060
E6000198
E6000198
ENDCHAR
STARTCHAR 0049
ENCODING 73
SWIDTH 495 0
DWIDTH 22 0
BBX 16 33 3 0
BITMAP
E663
E663
199C
199C
E663
E663
0180
0180
0180
0660
0660
0180
0180
0660
0660
0180
0180
0660
0660
0660
0180
0180
0660
0660
0180
0180
E663
E663
E663
199C
199C
E663
E663
ENDCHAR
STARTCHAR 004A
ENCODING 74
SWIDTH 585 0
DWIDTH 26 0
BBX 20 33 3 0
BITMAP
E66330
E66330
199CC0
199CC0
E66330
E66330
0000C0
0000C0
0000C0
000330
000330
0000C0
0000C0
000330
000330
0000C0
0000C0
000330
000330
000330
0000C0
0000C0
000330
000330
001CC0
001CC0
E66300
E66300
E66300
199C00
199C00
E66000
E66000
ENDCHAR
STARTCHAR 004B
ENCODING 75
SWIDTH 697 0
DWIDTH 31 0
BBX 25 33 3 0
BITMAP
E6003180
E6003180
18000E00
18000E00
E6003180
E6003180
1800CE00
1800CE00
1800CE00
E6033000
E6033000
181CC000
181CC000
E6630000
E6630000
199C0000
199C0000
E6630000
E6630000
E6630000
181CC000
181CC000
E6033000
E6033000
1800CE00
1800CE00
E6003180
E6003180
E6003180
18000E00
18000E00
E6003180
E6003180
ENDCHAR
STARTCHAR 004C
ENCODING 76
SWIDTH 697 0
DWIDTH 31 0
BBX 25 33 3 0
BITMAP
E6000000
E6000000
18000000
18000000
E6000000
E6000000
18000000
18000000
18000000
E6000000
E6000000
18000000
18000000
E6000000
E6000000
18000000
18000000
E6000000
E6000000
E6000000
18000000
18000000
E6000000
E6000000
18000000
18000000
E6633180
E6633180
E6633180
199CCE00
199CCE00
06633180
06633180
ENDCHAR
STARTCHAR 004D
ENCODING 77
SWIDTH 990 0
DWIDTH 44 0
BBX 38 33 3 0
BITMAP
E6000001CC
E6000001CC
1980000630
1980000630
E6600019CC
E6600019CC
199C006630
199C006630
199C006630
E6630199CC
E6630199CC
181CCE6030
181CCE6030
E6033181CC
E6033181CC
1800CE0030
1800CE0030
E6003001CC
E6003001CC
E6003001CC
1800000030
1800000030
E6000001CC
E6000001CC
1800000030
1800000030
E6000001CC
E6000001CC
E6000001CC
1800000030
1800000030
E6000001CC
E6000001CC
ENDCHAR
STARTCHAR 004E
ENCODING 78
SWIDTH 787 0
DWIDTH 35 0
BBX 29 33 3 0
BITMAP
E6000198
E6000198
19800060
19800060
E6600198
E6600198
199C0060
199C0060
199C0060
E6630198
E6630198
181CC060
181CC060
E6033198
E6033198
1800CE60
1800CE60
E6003198
E6003198
E6003198
18000E60
18000E60
E6000198
E6000198
18000060
18000060
E6000198
E6000198
E6000198
18000060
18000060
E6000198
E6000198
ENDCHAR
STARTCHAR 004F
ENCODING 79
SWIDTH 787 0
DWIDTH 35 0
BBX 29 33 3 0
BITMAP
00633000
00633000
019CCE00
019CCE00
06633180
06633180
19800E60
19800E60
19800E60
E6000198
E6000198
18000060
18000060
E6000198
E6000198
18000060
18000060
E6000198
E6000198
E6000198
18000060
18000060
E6000198
E6000198
19800E60
19800E60
06633180
06633180
06633180
019CCE00
019CCE00
00633000
00633000
ENDCHAR
STARTCHAR 0050
ENCODING 80
SWIDTH 697 0
DWIDTH 31 0
BBX 25 33 3 0
BITMAP
E6630000
E6630000
199CC000
199CC000
E6633000
E6633000
1800CE00
1800CE00
1800CE00
E6003180
E6003180
18000E00
18000E00
E6003180
E6003180
18000E00
18000E00
E6003180
E6003180
E6003180
1800CE00
1800CE00
E6633000
E6633000
199CC000
199CC000
E6630000
E6630000
E6630000
18000000
18000000
E6000000
E6000000
ENDCHAR
STARTCHAR 0051
ENCODING 81
SWIDTH 787 0
DWIDTH 35 0
BBX 29 37 3 -4
BITMAP
00633000
00633000
019CCE00
019CCE00
06633180
06633180
19800E60
19800E60
19800E60
E6000198
E6000198
18000060
18000060
E6000198
E6000198
18000060
18000060
E6000198
E6000198
E6000198
18000060
18000060
E6000198
E6000198
19800E60
19800E60
06633180
06633180
06633180
019CCE00
019CCE00
00633000
00633000
0000CE00
0000CE00
00003180
00003180
ENDCHAR
STARTCHAR 0052
ENCODING 82
SWIDTH 697 0
DWIDTH 31 0
BBX 25 33 3 0
BITMAP
E6630000
E6630000
199CC000
199CC000
E6633000
E6633000
1800CE00
1800CE00
1800CE00
E6003180
E6003180
18000E00
18000E00
E6003180
E6003180
18000E00
18000E00
E6003180
E6003180
E6003180
1800CE00
1800CE00
E6633000
E6633000
199CC000
199CC000
E6633000
E6633000
E6633000
1800CE00
1800CE00
E6003180
E6003180
ENDCHAR
STARTCHAR 0053
ENCODING 83
SWIDTH 697 0
DWIDTH 31 0
BBX 25 33 3 0
BITMAP
06633000
06633000
199CCE00
199CCE00
E6633180
E6633180
18000E00
18000E00
18000E00
E6003180
E6003180
18000000
18000000
E6633000
E6633000
199CCE00
199CCE00
06633180
06633180
06633180
00000E00
00000E00
E6003180
E6003180
18000E00
18000E00
E6633180
E6633180
E6633180
199CCE00
199CCE00
06633000
06633000
ENDCHAR
STARTCHAR 0054
ENCODING 84
SWIDTH 697 0
DWIDTH 31 0
BBX 25 33 3 0
BITMAP
E6633180
E6633180
199CCE00
199CCE00
E6633180
E6633180
001C0000
001C0000
001C0000
00630000
00630000
001C0000
001C0000
00630000
00630000
001C0000
001C0000
00630000
00630000
00630000
001C0000
001C0000
00630000
00630000
001C0000
001C0000
00630000
00630000
00630000
001C0000
001C0000
00630000
00630000
ENDCHAR
STARTCHAR 0055
ENCODING 85
SWIDTH 787 0
DWIDTH 35 0
BBX 29 33 3 0
BITMAP
E6000198
E6000198
18000060
18000060
E6000198
E6000198
18000060
18000060
18000060
E6000198
E6000198
18000060
18000060
E6000198
E6000198
18000060
18000060
E6000198
E6000198
E6000198
18000060
18000060
E6000198
E6000198
19800E60
19800E60
06633180
06633180
06633180
019CCE00
019CCE00
00633000
00633000
ENDCHAR
STARTCHAR 0056
ENCODING 86
SWIDTH 697 0
DWIDTH 31 0
BBX 25 33 3 0
BITMAP
E6003180
E6003180
18000E00
18000E00
E6003180
E6003180
18000E00
18000E00
18000E00
E6003180
E6003180
18000E00
18000E00
E6003180
E6003180
18000E00
18000E00
E6003180
E6003180
E6003180
18000E00
18000E00
E6003180
E6003180
1980CE00
1980CE00
06633000
06633000
06633000
019CC000
019CC000
00630000
00630000
ENDCHAR
STARTCHAR 0057
ENCODING 87
SWIDTH 1080 0
DWIDTH 48 0
BBX 43 33 3 0
BITMAP
E60031800CE0
E60031800CE0
18000E000300
18000E000300
E60031800CE0
E60031800CE0
18000E000300
18000E000300
18000E000300
E60031800CE0
E60031800CE0
18000E000300
18000E000300
E60031800CE0
E60031800CE0
18000E000300
18000E000300
E60031800CE0
E60031800CE0
E60031800CE0
18000E000300
18000E000300
E60031800CE0
E60031800CE0
1980CE603300
1980CE603300
06633199CC00
06633199CC00
06633199CC00
019CC0663000
019CC0663000
00630019C000
00630019C000
ENDCHAR
STARTCHAR 0058
ENCODING 88
SWIDTH 787 0
DWIDTH 35 0
BBX 29 33 3 0
BITMAP
E6000198
E6000198
18000060
18000060
E6000198
E6000198
18000060
18000060
18000060
E6000198
E6000198
19800E60
19800E60
06633180
06633180
019CCE00
019CCE00
06633180
06633180
06633180
19800E60
19800E60
E6000198
E6000198
18000060
18000060
E6000198
E6000198
E6000198
18000060
18000060
E6000198
E6000198
ENDCHAR
STARTCHAR 0059
ENCODING 89
SWIDTH 697 0
DWIDTH 31 0
BBX 25 33 3 0
BITMAP
E6003180
E6003180
18000E00
18000E00
E6003180
E6003180
18000E00
18000E00
18000E00
E6003180
E6003180
18000E00
18000E00
E6003180
E6003180
1980CE00
1980CE00
06633000
06633000
06633000
019CC000
019CC000
00630000
00630000
001C0000
001C0000
00630000
00630000
00630000
001C0000
001C0000
00630000
00630000
ENDCHAR
STARTCHAR 005A
ENCODING 90
SWIDTH 697 0
DWIDTH 31 0
BBX 25 33 3 0
BITMAP
E6633180
E6633180
199CCE00
199CCE00
E6633180
E6633180
0000CE00
0000CE00
0000CE00
00033000
00033000
001CC000
001CC000
00630000
00630000
019C0000
019C0000
06600000
06600000
06600000
19800000
19800000
E6000000
E6000000
18000000
18000000
E6633180
E6633180
E6633180
199CCE00
199CCE00
E6633180
E6633180
ENDCHAR
STARTCHAR 005B
ENCODING 91
SWIDTH 337 0
DWIDTH 15 0
BBX 11 51 3 -9
BITMAP
E660
E660
1980
1980
E660
E660
1800
1800
1800
E600
E600
1800
1800
E600
E600
1800
1800
1800
E600
E600
1800
1800
E600
E600
1800
1800
E600
E600
E600
1800
1800
E600
E600
1800
1800
E600
E600
E600
1800
1800
E600
E600
1800
1800
E660
E660
1980
1980
1980
E660
E660
ENDCHAR
STARTCHAR 005C
ENCODING 92
SWIDTH 382 0
DWIDTH 17 0
BBX 16 33 1 0
BITMAP
C600
C600
3800
3800
C600
C600
3980
3980
3980
0600
0600
3980
3980
0660
0660
0180
0180
0660
0660
0660
0198
0198
0060
0060
0198
0198
0067
0067
0067
0018
0018
0067
0067
ENDCHAR
STARTCHAR 005D
ENCODING 93
SWIDTH 337 0
DWIDTH 15 0
BBX 11 51 1 -9
BITMAP
C660
C660
3980
3980
C660
C660
0180
0180
0180
0660
0660
0180
0180
0660
0660
0180
0180
0180
0660
0660
0180
0180
0660
0660
0180
0180
0660
0660
0660
0180
0180
0660
0660
0180
0180
0660
0660
0660
0180
0180
0660
0660
0180
0180
C660
C660
3980
3980
3980
C660
C660
ENDCHAR
STARTCHAR 005F
ENCODING 95
SWIDTH 787 0
DWIDTH 35 0
BBX 33 6 1 -4
BITMAP
C667339980
C667339980
3998CC6600
3998CC6600
C667339980
C667339980
ENDCHAR
STARTCHAR 0060
ENCODING 96
SWIDTH 337 0
DWIDTH 15 0
BBX 15 11 -3 36
BITMAP
CC00
CC00
CC00
3380
3380
0C60
0C60
0398
0398
0066
0066
ENDCHAR
STARTCHAR 0061
ENCODING 97
SWIDTH 697 0
DWIDTH 31 0
BBX 25 33 3 0
BITMAP
06633000
06633000
199CCE00
199CCE00
E6633180
E6633180
18000E00
18000E00
18000E00
E6003180
E6003180
18000E00
18000E00
E6003180
E6003180
18000E00
18000E00
E6633180
E6633180
E6633180
199CCE00
199CCE00
E6633180
E6633180
18000E00
18000E00
E6003180
E6003180
E6003180
18000E00
18000E00
E6003180
E6003180
ENDCHAR
STARTCHAR 0062
ENCODING 98
SWIDTH 697 0
DWIDTH 31 0
BBX 25 33 3 0
BITMAP
E6633000
E6633000
199CCE00
199CCE00
E6633180
E6633180
18000E00
18000E00
18000E00
E6003180
E6003180
1800CE00
1800CE00
E6633000
E6633000
199CC000
199CC000
E6633000
E6633000
E6633000
1800CE00
1800CE00
E6003180
E6003180
18000E00
18000E00
E6633180
E6633180
E6633180
199CCE00
199CCE00
E6633000
E6633000
ENDCHAR
STARTCHAR 0063
ENCODING 99
SWIDTH 697 0
DWIDTH 31 0
BBX 25 33 3 0
BITMAP
06633000
06633000
199CCE00
199CCE00
E6633180
E6633180
18000E00
18000E00
18000E00
E6003180
E6003180
18000E00
18000E00
E6003180
E6003180
18000000
18000000
E6000000
E6000000
E6000000
18000000
18000000
E6003180
E6003180
18000E00
18000E00
E6633180
E6633180
E6633180
199CCE00
199CCE00
06633000
06633000
ENDCHAR
STARTCHAR 0064
ENCODING 100
SWIDTH 697 0
DWIDTH 31 0
BBX 25 33 3 0
BITMAP
E6633000
E6633000
199CCE00
199CCE00
E6633180
E6633180
18000E00
18000E00
18000E00
E6003180
E6003180
18000E00
18000E00
E6003180
E6003180
18000E00
18000E00
E6003180
E6003180
E6003180
18000E00
18000E00
E6003180
E6003180
18000E00
18000E00
E6633180
E6633180
E6633180
199CCE00
199CCE00
E6633000
E6633000
ENDCHAR
STARTCHAR 0065
ENCODING 101
SWIDTH 697 0
DWIDTH 31 0
BBX 25 33 3 0
BITMAP
06633180
06633180
199CCE00
199CCE00
E6633180
E6633180
18000000
18000000
18000000
E6000000
E6000000
18000000
18000000
E6633000
E6633000
199CC000
199CC000
E6633000
E6633000
E6633000
18000000
18000000
E6000000
E6000000
18000000
18000000
E6633180
E6633180
E6633180
199CCE00
199CCE00
06633180
06633180
ENDCHAR
STARTCHAR 0066
ENCODING 102
SWIDTH 697 0
DWIDTH 31 0
BBX 25 33 3 0
BITMAP
06633180
06633180
199CCE00
199CCE00
E6633180
E6633180
18000000
18000000
18000000
E6000000
E6000000
18000000
18000000
E6633000
E6633000
199CC000
199CC000
E6633000
E6633000
E6633000
18000000
18000000
E6000000
E6000000
18000000
18000000
E6000000
E6000000
E6000000
18000000
18000000
E6000000
E6000000
ENDCHAR
STARTCHAR 0067
ENCODING 103
SWIDTH 697 0
DWIDTH 31 0
BBX 25 33 3 0
BITMAP
06633180
06633180
199CCE00
199CCE00
E6633180
E6633180
18000000
18000000
18000000
E6000000
E6000000
18000000
18000000
E6033180
E6033180
1800CE00
1800CE00
E6033180
E6033180
E6033180
18000E00
18000E00
E6003180
E6003180
18000E00
18000E00
E6633180
E6633180
E6633180
199CCE00
199CCE00
06633000
06633000
ENDCHAR
STARTCHAR 0068
ENCODING 104
SWIDTH 697 0
DWIDTH 31 0
BBX 25 33 3 0
BITMAP
E6003180
E6003180
18000E00
18000E00
E6003180
E6003180
18000E00
18000E00
18000E00
E6003180
E6003180
18000E00
18000E00
E6633180
E6633180
199CCE00
199CCE00
E6633180
E6633180
E6633180
18000E00
18000E00
E6003180
E6003180
18000E00
18000E00
E6003180
E6003180
E6003180
18000E00
18000E00
E6003180
E6003180
ENDCHAR
STARTCHAR 0069
ENCODING 105
SWIDTH 292 0
DWIDTH 13 0
BBX 7 33 3 0
BITMAP
E6
E6
18
18
E6
E6
18
18
18
E6
E6
18
18
E6
E6
18
18
E6
E6
E6
18
18
E6
E6
18
18
E6
E6
E6
18
18
E6
E6
ENDCHAR
STARTCHAR 006A
ENCODING 106
SWIDTH 495 0
DWIDTH 22 0
BBX 16 33 3 0
BITMAP
0063
0063
001C
001C
0063
0063
001C
001C
001C
0063
0063
001C
001C
0063
0063
001C
001C
0063
0063
0063
001C
001C
0063
0063
001C
001C
E663
E663
E663
199C
199C
E660
E660
ENDCHAR
STARTCHAR 006B
ENCODING 107
SWIDTH 697 0
DWIDTH 31 0
BBX 25 33 3 0
BITMAP
E6003180
E6003180
18000E00
18000E00
E6003180
E6003180
18000E00
18000E00
18000E00
E6003180
E6003180
1800CE00
1800CE00
E6633000
E6633000
199CC000
199CC000
E6633000
E6633000
E6633000
1800CE00
1800CE00
E6003180
E6003180
18000E00
18000E00
E6003180
E6003180
E6003180
18000E00
18000E00
E6003180
E6003180
ENDCHAR
STARTCHAR 006C
ENCODING 108
SWIDTH 585 0
DWIDTH 26 0
BBX 20 33 3 0
BITMAP
E60000
E60000
180000
180000
E60000
E60000
180000
180000
180000
E60000
E60000
180000
180000
E60000
E60000
180000
180000
E60000
E60000
E60000
180000
180000
E60000
E60000
180000
180000
E66330
E66330
E66330
199CC0
199CC0
066330
066330
ENDCHAR
STARTCHAR 006D
ENCODING 109
SWIDTH 900 0
DWIDTH 40 0
BBX 34 33 3 0
BITMAP
E6000019C0
E6000019C0
1980006600
1980006600
E6600199C0
E6600199C0
199C0E6600
199C0E6600
199C0E6600
E6633199C0
E6633199C0
181CCE0600
181CCE0600
E6033019C0
E6033019C0
1800C00600
1800C00600
E6000019C0
E6000019C0
E6000019C0
1800000600
1800000600
E6000019C0
E6000019C0
1800000600
1800000600
E6000019C0
E6000019C0
E6000019C0
1800000600
1800000600
E6000019C0
E6000019C0
ENDCHAR
STARTCHAR 006E
ENCODING 110
SWIDTH 697 0
DWIDTH 31 0
BBX 25 33 3 0
BITMAP
E6003180
E6003180
19800E00
19800E00
E6603180
E6603180
199C0E00
199C0E00
199C0E00
E6633180
E6633180
181CCE00
181CCE00
E6033180
E6033180
1800CE00
1800CE00
E6003180
E6003180
E6003180
18000E00
18000E00
E6003180
E6003180
18000E00
18000E00
E6003180
E6003180
E6003180
18000E00
18000E00
E6003180
E6003180
ENDCHAR
STARTCHAR 006F
ENCODING 111
SWIDTH 697 0
DWIDTH 31 0
BBX 25 33 3 0
BITMAP
06633000
06633000
199CCE00
199CCE00
E6633180
E6633180
18000E00
18000E00
18000E00
E6003180
E6003180
18000E00
18000E00
E6003180
E6003180
18000E00
18000E00
E6003180
E6003180
E6003180
18000E00
18000E00
E6003180
E6003180
18000E00
18000E00
E6633180
E6633180
E6633180
199CCE00
199CCE00
06633000
06633000
ENDCHAR
STARTCHAR 0070
ENCODING 112
SWIDTH 697 0
DWIDTH 31 0
BBX 25 33 3 0
BITMAP
E6633000
E6633000
199CCE00
199CCE00
E6633180
E6633180
18000E00
18000E00
18000E00
E6003180
E6003180
18000E00
18000E00
E6003180
E6003180
18000E00
18000E00
E6633180
E6633180
E6633180
199CCE00
199CCE00
E6633000
E6633000
18000000
18000000
E6000000
E6000000
E6000000
18000000
18000000
E6000000
E6000000
ENDCHAR
STARTCHAR 0071
ENCODING 113
SWIDTH 697 0
DWIDTH 31 0
BBX 25 37 3 -4
BITMAP
06633000
06633000
199CCE00
199CCE00
E6633180
E6633180
18000E00
18000E00
18000E00
E6003180
E6003180
18000E00
18000E00
E6003180
E6003180
18000E00
18000E00
E6003180
E6003180
E6003180
18000E00
18000E00
E6003180
E6003180
18000E00
18000E00
E6633180
E6633180
E6633180
199CCE00
199CCE00
06633000
06633000
0000CE00
0000CE00
00003180
00003180
ENDCHAR
STARTCHAR 0072
ENCODING 114
SWIDTH 697 0
DWIDTH 31 0
BBX 25 33 3 0
BITMAP
E6633000
E6633000
199CCE00
199CCE00
E6633180
E6633180
18000E00
18000E00
18000E00
E6003180
E6003180
18000E00
18000E00
E6003180
E6003180
18000E00
18000E00
E6633180
E6633180
E6633180
199CCE00
199CCE00
E6633000
E6633000
1800CE00
1800CE00
E6003180
E6003180
E6003180
18000E00
18000E00
E6003180
E6003180
ENDCHAR
STARTCHAR 0073
ENCODING 115
SWIDTH 697 0
DWIDTH 31 0
BBX 25 33 3 0
BITMAP
06633000
06633000
199CCE00
199CCE00
E6633180
E6633180
18000E00
18000E00
18000E00
E6003180
E6003180
18000000
18000000
E6633000
E6633000
199CCE00
199CCE00
06633180
06633180
06633180
00000E00
00000E00
E6003180
E6003180
18000E00
18000E00
E6633180
E6633180
E6633180
199CCE00
199CCE00
06633000
06633000
ENDCHAR
STARTCHAR 0074
ENCODING 116
SWIDTH 697 0
DWIDTH 31 0
BBX 25 33 3 0
BITMAP
E6633180
E6633180
199CCE00
199CCE00
E6633180
E6633180
001C0000
001C0000
001C0000
00630000
00630000
001C0000
001C0000
00630000
00630000
001C0000
001C0000
00630000
00630000
00630000
001C0000
001C0000
00630000
00630000
001C0000
001C0000
00630000
00630000
00630000
001C0000
001C0000
00630000
00630000
ENDCHAR
STARTCHAR 0075
ENCODING 117
SWIDTH 697 0
DWIDTH 31 0
BBX 25 33 3 0
BITMAP
E6003180
E6003180
18000E00
18000E00
E6003180
E6003180
18000E00
18000E00
18000E00
E6003180
E6003180
18000E00
18000E00
E6003180
E6003180
18000E00
18000E00
E6003180
E6003180
E6003180
18000E00
18000E00
E6003180
E6003180
18000E00
18000E00
E6633180
E6633180
E6633180
199CCE00
199CCE00
06633000
06633000
ENDCHAR
STARTCHAR 0076
ENCODING 118
SWIDTH 697 0
DWIDTH 31 0
BBX 25 33 3 0
BITMAP
E6003180
E6003180
18000E00
18000E00
E6003180
E6003180
18000E00
18000E00
18000E00
E6003180
E6003180
18000E00
18000E00
E6003180
E6003180
18000E00
18000E00
E6003180
E6003180
E6003180
18000E00
18000E00
E6003180
E6003180
1980CE00
1980CE00
06633000
06633000
06633000
019CC000
019CC000
00630000
00630000
ENDCHAR
STARTCHAR 0077
ENCODING 119
SWIDTH 1080 0
DWIDTH 48 0
BBX 43 33 3 0
BITMAP
E60031800CE0
E60031800CE0
18000E000300
18000E000300
E60031800CE0
E60031800CE0
18000E000300
18000E000300
18000E000300
E60031800CE0
E60031800CE0
18000E000300
18000E000300
E60031800CE0
E60031800CE0
18000E000300
18000E000300
E60031800CE0
E60031800CE0
E60031800CE0
18000E000300
18000E000300
E60031800CE0
E60031800CE0
1800CE600300
1800CE600300
E6633199CCE0
E6633199CCE0
E6633199CCE0
199CC0663300
199CC0663300
06630019CC00
06630019CC00
ENDCHAR
STARTCHAR 0078
ENCODING 120
SWIDTH 697 0
DWIDTH 31 0
BBX 25 33 3 0
BITMAP
E6003180
E6003180
18000E00
18000E00
E6003180
E6003180
18000E00
18000E00
18000E00
E6003180
E6003180
1980CE00
1980CE00
06633000
06633000
019CC000
019CC000
06633000
06633000
06633000
1980CE00
1980CE00
E6003180
E6003180
18000E00
18000E00
E6003180
E6003180
E6003180
18000E00
18000E00
E6003180
E6003180
ENDCHAR
STARTCHAR 0079
ENCODING 121
SWIDTH 697 0
DWIDTH 31 0
BBX 25 33 3 0
BITMAP
E6003180
E6003180
18000E00
18000E00
E6003180
E6003180
18000E00
18000E00
18000E00
E6003180
E6003180
18000E00
18000E00
E6003180
E6003180
18000E00
18000E00
E6633180
E6633180
E6633180
199CCE00
199CCE00
06633000
06633000
001C0000
001C0000
00630000
00630000
00630000
001C0000
001C0000
00630000
00630000
ENDCHAR
STARTCHAR 007A
ENCODING 122
SWIDTH 697 0
DWIDTH 31 0
BBX 25 33 3 0
BITMAP
E6633180
E6633180
199CCE00
199CCE00
E6633180
E6633180
00000E00
00000E00
00000E00
00003180
00003180
00000E00
00000E00
06633180
06633180
199CCE00
199CCE00
E6633000
E6633000
E6633000
18000000
18000000
E6000000
E6000000
18000000
18000000
E6633180
E6633180
E6633180
199CCE00
199CCE00
E6633180
E6633180
ENDCHAR
STARTCHAR 007B
ENCODING 123
SWIDTH 382 0
DWIDTH 17 0
BBX 18 51 1 -9
BITMAP
0018C0
0018C0
006700
006700
019800
019800
006000
006000
006000
019800
019800
006000
006000
019800
019800
006000
006000
006000
019800
019800
066000
066000
398000
398000
C60000
C60000
398000
398000
398000
066000
066000
019800
019800
006000
006000
019800
019800
019800
006000
006000
019800
019800
006000
006000
019800
019800
006700
006700
006700
0018C0
0018C0
ENDCHAR
STARTCHAR 007C
ENCODING 124
SWIDTH 292 0
DWIDTH 13 0
BBX 7 42 3 -4
BITMAP
E6
E6
18
18
18
E6
E6
18
18
E6
E6
18
18
18
E6
E6
18
18
E6
E6
18
18
E6
E6
E6
18
18
E6
E6
18
18
E6
E6
E6
18
18
E6
E6
18
18
E6
E6
ENDCHAR
STARTCHAR 007D
ENCODING 125
SWIDTH 382 0
DWIDTH 17 0
BBX 18 51 -1 -9
BITMAP
CE0000
CE0000
318000
318000
0E6000
0E6000
018000
018000
018000
0E6000
0E6000
018000
018000
0E6000
0E6000
018000
018000
018000
0E6000
0E6000
019800
019800
006600
006600
0019C0
0019C0
006600
006600
006600
019800
019800
0E6000
0E6000
018000
018000
0E6000
0E6000
0E6000
018000
018000
0E6000
0E6000
018000
018000
0E6000
0E6000
318000
318000
318000
CE0000
CE0000
ENDCHAR
STARTCHAR 00A1
ENCODING 161
SWIDTH 292 0
DWIDTH 13 0
BBX 7 33 3 0
BITMAP
E6
E6
18
18
E6
E6
00
00
00
00
00
18
18
E6
E6
18
18
E6
E6
E6
18
18
E6
E6
18
18
E6
E6
E6
18
18
E6
E6
ENDCHAR
STARTCHAR 00A2
ENCODING 162
SWIDTH 697 0
DWIDTH 31 0
BBX 25 42 3 -4
BITMAP
00630000
00630000
001C0000
001C0000
001C0000
06633000
06633000
199CCE00
199CCE00
E6633180
E6633180
18000E00
18000E00
18000E00
E6003180
E6003180
18000E00
18000E00
E6003180
E6003180
18000000
18000000
E6000000
E6000000
E6000000
18000000
18000000
E6003180
E6003180
18000E00
18000E00
E6633180
E6633180
E6633180
199CCE00
199CCE00
06633000
06633000
001C0000
001C0000
00630000
00630000
ENDCHAR
STARTCHAR 00A3
ENCODING 163
SWIDTH 697 0
DWIDTH 31 0
BBX 25 38 3 0
BITMAP
00633000
00633000
019CCE00
019CCE00
019CCE00
06633180
06633180
01800E00
01800E00
06603180
06603180
01800000
01800000
01800000
06600000
06600000
01800000
01800000
E6633000
E6633000
199CC000
199CC000
E6633000
E6633000
E6633000
01800000
01800000
06600000
06600000
01800000
01800000
E6633180
E6633180
E6633180
199CCE00
199CCE00
E6633180
E6633180
ENDCHAR
STARTCHAR 00A4
ENCODING 164
SWIDTH 787 0
DWIDTH 35 0
BBX 29 29 3 9
BITMAP
06600000
06600000
01800000
01800000
01800000
06633198
06633198
019CCE60
019CCE60
06633198
06633198
01800E00
01800E00
01800E00
06603180
06603180
01800E00
01800E00
E6633180
E6633180
199CCE00
199CCE00
E6633180
E6633180
E6633180
00000E00
00000E00
00003180
00003180
ENDCHAR
STARTCHAR 00A5
ENCODING 165
SWIDTH 697 0
DWIDTH 31 0
BBX 25 46 3 -4
BITMAP
E6003180
E6003180
18000E00
18000E00
E6003180
E6003180
18000E00
18000E00
18000E00
E6003180
E6003180
1980CE00
1980CE00
06633000
06633000
019CC000
019CC000
019CC000
00630000
00630000
001C0000
001C0000
E6633180
E6633180
199CCE00
199CCE00
E6633180
E6633180
E6633180
001C0000
001C0000
00630000
00630000
001C0000
001C0000
E6633180
E6633180
E6633180
199CCE00
199CCE00
E6633180
E6633180
001C0000
001C0000
00630000
00630000
ENDCHAR
STARTCHAR 00A6
ENCODING 166
SWIDTH 292 0
DWIDTH 13 0
BBX 7 42 3 -4
BITMAP
E6
E6
18
18
18
E6
E6
18
18
E6
E6
18
18
18
E6
E6
00
00
00
00
00
00
00
00
00
00
00
E6
E6
18
18
E6
E6
E6
18
18
E6
E6
18
18
E6
E6
ENDCHAR
STARTCHAR 00A7
ENCODING 167
SWIDTH 697 0
DWIDTH 31 0
BBX 25 51 3 -9
BITMAP
00633180
00633180
019CCE00
019CCE00
06633180
06633180
19800000
19800000
19800000
E6000000
E6000000
18000000
18000000
E6630000
E6630000
199CC000
199CC000
199CC000
E6633000
E6633000
1800CE00
1800CE00
E6003180
E6003180
18000E00
18000E00
E6003180
E6003180
E6003180
19800E00
19800E00
06633180
06633180
019CCE00
019CCE00
00633180
00633180
00633180
00000E00
00000E00
00003180
00003180
0000CE00
0000CE00
E6633000
E6633000
199CC000
199CC000
199CC000
E6630000
E6630000
ENDCHAR
STARTCHAR 00A8
ENCODING 168
SWIDTH 382 0
DWIDTH 17 0
BBX 16 6 1 36
BITMAP
C667
C667
3818
3818
C667
C667
ENDCHAR
STARTCHAR 00AB
ENCODING 171
SWIDTH 832 0
DWIDTH 37 0
BBX 31 25 1 4
BITMAP
0018C066
0018C066
00670398
00670398
00670398
01980C60
01980C60
06603380
06603380
3980CC00
3980CC00
C6073000
C6073000
3980CC00
3980CC00
3980CC00
06603380
06603380
01980C60
01980C60
00670398
00670398
0018C066
0018C066
0018C066
ENDCHAR
STARTCHAR 00AD
ENCODING 173
SWIDTH 495 0
DWIDTH 22 0
BBX 20 7 1 13
BITMAP
C66730
C66730
3998C0
3998C0
C66730
C66730
C66730
ENDCHAR
STARTCHAR 00AF
ENCODING 175
SWIDTH 382 0
DWIDTH 17 0
BBX 16 6 1 36
BITMAP
C667
C667
3998
3998
C667
C667
ENDCHAR
STARTCHAR 00B0
ENCODING 176
SWIDTH 495 0
DWIDTH 22 0
BBX 20 20 1 18
BITMAP
066700
066700
3998C0
3998C0
3998C0
C66730
C66730
3800C0
3800C0
C60730
C60730
3800C0
3800C0
3800C0
C66730
C66730
3998C0
3998C0
066700
066700
ENDCHAR
STARTCHAR 00B4
ENCODING 180
SWIDTH 337 0
DWIDTH 15 0
BBX 16 11 1 36
BITMAP
0067
0067
0067
0198
0198
0660
0660
3980
3980
C600
C600
ENDCHAR
STARTCHAR 00B6
ENCODING 182
SWIDTH 697 0
DWIDTH 31 0
BBX 25 33 3 0
BITMAP
06633180
06633180
199C0E00
199C0E00
E6633180
E6633180
199C0E00
199C0E00
199C0E00
E6633180
E6633180
199C0E00
199C0E00
E6633180
E6633180
199C0E00
199C0E00
06633180
06633180
06633180
001C0E00
001C0E00
00633180
00633180
001C0E00
001C0E00
00633180
00633180
00633180
001C0E00
001C0E00
00633180
00633180
ENDCHAR
STARTCHAR 00B7
ENCODING 183
SWIDTH 180 0
DWIDTH 8 0
BBX 7 7 1 13
BITMAP
C6
C6
38
38
C6
C6
C6
ENDCHAR
STARTCHAR 00B8
ENCODING 184
SWIDTH 247 0
DWIDTH 11 0
BBX 11 9 -1 -9
BITMAP
0180
0180
CE60
CE60
3180
3180
3180
CE00
CE00
ENDCHAR
STARTCHAR 00BB
ENCODING 187
SWIDTH 832 0
DWIDTH 37 0
BBX 31 25 6 4
BITMAP
CC067000
CC067000
33018C00
33018C00
33018C00
0CE07300
0CE07300
03180CC0
03180CC0
00E60330
00E60330
001980CE
001980CE
00E60330
00E60330
00E60330
03180CC0
03180CC0
0CE07300
0CE07300
33018C00
33018C00
CC067000
CC067000
CC067000
ENDCHAR
STARTCHAR 00BF
ENCODING 191
SWIDTH 697 0
DWIDTH 31 0
BBX 25 33 3 0
BITMAP
00630000
00630000
001C0000
001C0000
00630000
00630000
00000000
00000000
00000000
00630000
00630000
001C0000
001C0000
06630000
06630000
199C0000
199C0000
E6600000
E6600000
E6600000
18000000
18000000
E6003180
E6003180
18000E00
18000E00
E6633180
E6633180
E6633180
199CCE00
199CCE00
06633000
06633000
ENDCHAR
STARTCHAR 00C0
ENCODING 192
SWIDTH 697 0
DWIDTH 31 0
BBX 25 47 3 0
BITMAP
E6000000
E6000000
E6000000
19800000
19800000
06600000
06600000
019C0000
019C0000
00630000
00630000
00000000
00000000
00000000
00630000
00630000
019CC000
019CC000
06633000
06633000
1980CE00
1980CE00
1980CE00
E6003180
E6003180
18000E00
18000E00
E6003180
E6003180
18000E00
18000E00
E6633180
E6633180
E6633180
199CCE00
199CCE00
E6633180
E6633180
18000E00
18000E00
E6003180
E6003180
E6003180
18000E00
18000E00
E6003180
E6003180
ENDCHAR
STARTCHAR 00C1
ENCODING 193
SWIDTH 697 0
DWIDTH 31 0
BBX 25 47 3 0
BITMAP
0000CE00
0000CE00
0000CE00
00033000
00033000
001CC000
001CC000
00630000
00630000
019C0000
019C0000
00000000
00000000
00000000
00630000
00630000
019CC000
019CC000
06633000
06633000
1980CE00
1980CE00
1980CE00
E6003180
E6003180
18000E00
18000E00
E6003180
E6003180
18000E00
18000E00
E6633180
E6633180
E6633180
199CCE00
199CCE00
E6633180
E6633180
18000E00
18000E00
E6003180
E6003180
E6003180
18000E00
18000E00
E6003180
E6003180
ENDCHAR
STARTCHAR 00C2
ENCODING 194
SWIDTH 697 0
DWIDTH 31 0
BBX 25 47 3 0
BITMAP
00630000
00630000
00630000
019CC000
019CC000
06633000
06633000
0180C000
0180C000
06633000
06633000
00000000
00000000
00000000
00630000
00630000
019CC000
019CC000
06633000
06633000
1980CE00
1980CE00
1980CE00
E6003180
E6003180
18000E00
18000E00
E6003180
E6003180
18000E00
18000E00
E6633180
E6633180
E6633180
199CCE00
199CCE00
E6633180
E6633180
18000E00
18000E00
E6003180
E6003180
E6003180
18000E00
18000E00
E6003180
E6003180
ENDCHAR
STARTCHAR 00C3
ENCODING 195
SWIDTH 697 0
DWIDTH 31 0
BBX 25 47 3 0
BITMAP
06603180
06603180
06603180
199C0E00
199C0E00
E6633180
E6633180
181CCE00
181CCE00
E6033000
E6033000
00000000
00000000
00000000
00630000
00630000
019CC000
019CC000
06633000
06633000
1980CE00
1980CE00
1980CE00
E6003180
E6003180
18000E00
18000E00
E6003180
E6003180
18000E00
18000E00
E6633180
E6633180
E6633180
199CCE00
199CCE00
E6633180
E6633180
18000E00
18000E00
E6003180
E6003180
E6003180
18000E00
18000E00
E6003180
E6003180
ENDCHAR
STARTCHAR 00C4
ENCODING 196
SWIDTH 697 0
DWIDTH 31 0
BBX 25 42 3 0
BITMAP
06633000
06633000
0180C000
0180C000
06633000
06633000
00000000
00000000
00000000
00630000
00630000
019CC000
019CC000
06633000
06633000
1980CE00
1980CE00
1980CE00
E6003180
E6003180
18000E00
18000E00
E6003180
E6003180
18000E00
18000E00
E6633180
E6633180
E6633180
199CCE00
199CCE00
E6633180
E6633180
18000E00
18000E00
E6003180
E6003180
E6003180
18000E00
18000E00
E6003180
E6003180
ENDCHAR
STARTCHAR 00C5
ENCODING 197
SWIDTH 697 0
DWIDTH 31 0
BBX 25 56 3 0
BITMAP
019CC000
019CC000
019CC000
06633000
06633000
199CCE00
199CCE00
06003000
06003000
1980CE00
1980CE00
1980CE00
06003000
06003000
199CCE00
199CCE00
06633000
06633000
019CC000
019CC000
00000000
00000000
00000000
00630000
00630000
019CC000
019CC000
06633000
06633000
1980CE00
1980CE00
1980CE00
E6003180
E6003180
18000E00
18000E00
E6003180
E6003180
18000E00
18000E00
E6633180
E6633180
E6633180
199CCE00
199CCE00
E6633180
E6633180
18000E00
18000E00
E6003180
E6003180
E6003180
18000E00
18000E00
E6003180
E6003180
ENDCHAR
STARTCHAR 00C6
ENCODING 198
SWIDTH 1080 0
DWIDTH 48 0
BBX 43 33 3 0
BITMAP
00633199CCE0
00633199CCE0
019CCE663300
019CCE663300
06633199CCE0
06633199CCE0
19800E000000
19800E000000
19800E000000
E60031800000
E60031800000
18000E000000
18000E000000
E6003199CC00
E6003199CC00
18000E663000
18000E663000
E6633199CC00
E6633199CC00
E6633199CC00
199CCE000000
199CCE000000
E66331800000
E66331800000
18000E000000
18000E000000
E6003199CCE0
E6003199CCE0
E6003199CCE0
18000E663300
18000E663300
E6000199CCE0
E6000199CCE0
ENDCHAR
STARTCHAR 00C7
ENCODING 199
SWIDTH 787 0
DWIDTH 35 0
BBX 29 42 3 -9
BITMAP
00633000
00633000
019CCE00
019CCE00
06633180
06633180
19800E60
19800E60
19800E60
E6000198
E6000198
18000060
18000060
E6000198
E6000198
18000000
18000000
E6000000
E6000000
E6000000
18000000
18000000
E6000198
E6000198
19800E60
19800E60
06633180
06633180
06633180
019CCE00
019CCE00
00633000
00633000
0000C000
0000C000
00633000
00633000
001CC000
001CC000
001CC000
00630000
00630000
ENDCHAR
STARTCHAR 00C8
ENCODING 200
SWIDTH 697 0
DWIDTH 31 0
BBX 25 47 3 0
BITMAP
E6000000
E6000000
E6000000
19800000
19800000
06600000
06600000
019C0000
019C0000
00630000
00630000
00000000
00000000
00000000
00633180
00633180
019CCE00
019CCE00
06633180
06633180
19800000
19800000
19800000
E6000000
E6000000
18000000
18000000
E6633000
E6633000
199CC000
199CC000
E6633000
E6633000
E6633000
18000000
18000000
E6000000
E6000000
19800000
19800000
06633180
06633180
06633180
019CCE00
019CCE00
00633180
00633180
ENDCHAR
STARTCHAR 00C9
ENCODING 201
SWIDTH 697 0
DWIDTH 31 0
BBX 25 47 3 0
BITMAP
0000CE00
0000CE00
0000CE00
00033000
00033000
001CC000
001CC000
00630000
00630000
019C0000
019C0000
00000000
00000000
00000000
00633180
00633180
019CCE00
019CCE00
06633180
06633180
19800000
19800000
19800000
E6000000
E6000000
18000000
18000000
E6633000
E6633000
199CC000
199CC000
E6633000
E6633000
E6633000
18000000
18000000
E6000000
E6000000
19800000
19800000
06633180
06633180
06633180
019CCE00
019CCE00
00633180
00633180
ENDCHAR
STARTCHAR 00CA
ENCODING 202
SWIDTH 697 0
DWIDTH 31 0
BBX 25 47 3 0
BITMAP
00630000
00630000
00630000
019CC000
019CC000
06633000
06633000
0180C000
0180C000
06633000
06633000
00000000
00000000
00000000
00633180
00633180
019CCE00
019CCE00
06633180
06633180
19800000
19800000
19800000
E6000000
E6000000
18000000
18000000
E6633000
E6633000
199CC000
199CC000
E6633000
E6633000
E6633000
18000000
18000000
E6000000
E6000000
19800000
19800000
06633180
06633180
06633180
019CCE00
019CCE00
00633180
00633180
ENDCHAR
STARTCHAR 00CB
ENCODING 203
SWIDTH 697 0
DWIDTH 31 0
BBX 25 42 3 0
BITMAP
06633000
06633000
0180C000
0180C000
06633000
06633000
00000000
00000000
00000000
00633180
00633180
019CCE00
019CCE00
06633180
06633180
19800000
19800000
19800000
E6000000
E6000000
18000000
18000000
E6633000
E6633000
199CC000
199CC000
E6633000
E6633000
E6633000
18000000
18000000
E6000000
E6000000
19800000
19800000
06633180
06633180
06633180
019CCE00
019CCE00
00633180
00633180
ENDCHAR
STARTCHAR 00CC
ENCODING 204
SWIDTH 495 0
DWIDTH 22 0
BBX 20 47 -1 0
BITMAP
CE0000
CE0000
CE0000
318000
318000
0E6000
0E6000
019800
019800
006600
006600
000000
000000
000000
0E6630
0E6630
0199C0
0199C0
0E6630
0E6630
001800
001800
001800
006600
006600
001800
001800
006600
006600
001800
001800
006600
006600
006600
001800
001800
006600
006600
001800
001800
0E6630
0E6630
0E6630
0199C0
0199C0
0E6630
0E6630
ENDCHAR
STARTCHAR 00CD
ENCODING 205
SWIDTH 495 0
DWIDTH 22 0
BBX 18 47 3 0
BITMAP
001CC0
001CC0
001CC0
006300
006300
019C00
019C00
066000
066000
198000
198000
000000
000000
000000
E66300
E66300
199C00
199C00
E66300
E66300
018000
018000
018000
066000
066000
018000
018000
066000
066000
018000
018000
066000
066000
066000
018000
018000
066000
066000
018000
018000
E66300
E66300
E66300
199C00
199C00
E66300
E66300
ENDCHAR
STARTCHAR 00CE
ENCODING 206
SWIDTH 495 0
DWIDTH 22 0
BBX 16 47 3 0
BITMAP
0660
0660
0660
199C
199C
E663
E663
181C
181C
E663
E663
0000
0000
0000
E663
E663
199C
199C
E663
E663
0180
0180
0180
0660
0660
0180
0180
0660
0660
0180
0180
0660
0660
0660
0180
0180
0660
0660
0180
0180
E663
E663
E663
199C
199C
E663
E663
ENDCHAR
STARTCHAR 00CF
ENCODING 207
SWIDTH 495 0
DWIDTH 22 0
BBX 16 42 3 0
BITMAP
E663
E663
181C
181C
E663
E663
0000
0000
0000
E663
E663
199C
199C
E663
E663
0180
0180
0180
0660
0660
0180
0180
0660
0660
0180
0180
0660
0660
0660
0180
0180
0660
0660
0180
0180
E663
E663
E663
199C
199C
E663
E663
ENDCHAR
STARTCHAR 00D0
ENCODING 208
SWIDTH 832 0
DWIDTH 37 0
BBX 33 33 1 0
BITMAP
0667338000
0667338000
0198CC6000
0198CC6000
0667339800
0667339800
0180006600
0180006600
0180006600
0660001980
0660001980
0180000600
0180000600
C667001980
C667001980
3998000600
3998000600
C667001980
C667001980
C667001980
0180000600
0180000600
0660001980
0660001980
0180006600
0180006600
0667339800
0667339800
0667339800
0198CC6000
0198CC6000
0667338000
0667338000
ENDCHAR
STARTCHAR 00D1
ENCODING 209
SWIDTH 787 0
DWIDTH 35 0
BBX 29 47 3 0
BITMAP
019C0E60
019C0E60
019C0E60
06630180
06630180
199CCE60
199CCE60
06033180
06033180
1980CE00
1980CE00
00000000
00000000
00000000
E6000198
E6000198
19800060
19800060
E6600198
E6600198
199C0060
199C0060
199C0060
E6630198
E6630198
181CC060
181CC060
E6033198
E6033198
1800CE60
1800CE60
E6003198
E6003198
E6003198
18000E60
18000E60
E6000198
E6000198
18000060
18000060
E6000198
E6000198
E6000198
18000060
18000060
E6000198
E6000198
ENDCHAR
STARTCHAR 00D2
ENCODING 210
SWIDTH 787 0
DWIDTH 35 0
BBX 29 47 3 0
BITMAP
19800000
19800000
19800000
06600000
06600000
019C0000
019C0000
00630000
00630000
001CC000
001CC000
00000000
00000000
00000000
00633000
00633000
019CCE00
019CCE00
06633180
06633180
19800E60
19800E60
19800E60
E6000198
E6000198
18000060
18000060
E6000198
E6000198
18000060
18000060
E6000198
E6000198
E6000198
18000060
18000060
E6000198
E6000198
19800E60
19800E60
06633180
06633180
06633180
019CCE00
019CCE00
00633000
00633000
ENDCHAR
STARTCHAR 00D3
ENCODING 211
SWIDTH 787 0
DWIDTH 35 0
BBX 29 47 3 0
BITMAP
00003180
00003180
00003180
0000CE00
0000CE00
00033000
00033000
001CC000
001CC000
00630000
00630000
00000000
00000000
00000000
00633000
00633000
019CCE00
019CCE00
06633180
06633180
19800E60
19800E60
19800E60
E6000198
E6000198
18000060
18000060
E6000198
E6000198
18000060
18000060
E6000198
E6000198
E6000198
18000060
18000060
E6000198
E6000198
19800E60
19800E60
06633180
06633180
06633180
019CCE00
019CCE00
00633000
00633000
ENDCHAR
STARTCHAR 00D4
ENCODING 212
SWIDTH 787 0
DWIDTH 35 0
BBX 29 47 3 0
BITMAP
001CC000
001CC000
001CC000
00633000
00633000
019CCE00
019CCE00
00603000
00603000
019CCE00
019CCE00
00000000
00000000
00000000
00633000
00633000
019CCE00
019CCE00
06633180
06633180
19800E60
19800E60
19800E60
E6000198
E6000198
18000060
18000060
E6000198
E6000198
18000060
18000060
E6000198
E6000198
E6000198
18000060
18000060
E6000198
E6000198
19800E60
19800E60
06633180
06633180
06633180
019CCE00
019CCE00
00633000
00633000
ENDCHAR
STARTCHAR 00D5
ENCODING 213
SWIDTH 787 0
DWIDTH 35 0
BBX 29 47 3 0
BITMAP
019C0E60
019C0E60
019C0E60
06630180
06630180
199CCE60
199CCE60
06033180
06033180
1980CE00
1980CE00
00000000
00000000
00000000
00633000
00633000
019CCE00
019CCE00
06633180
06633180
19800E60
19800E60
19800E60
E6000198
E6000198
18000060
18000060
E6000198
E6000198
18000060
18000060
E6000198
E6000198
E6000198
18000060
18000060
E6000198
E6000198
19800E60
19800E60
06633180
06633180
06633180
019CCE00
019CCE00
00633000
00633000
ENDCHAR
STARTCHAR 00D6
ENCODING 214
SWIDTH 787 0
DWIDTH 35 0
BBX 29 42 3 0
BITMAP
019CCE00
019CCE00
00603000
00603000
019CCE00
019CCE00
00000000
00000000
00000000
00633000
00633000
019CCE00
019CCE00
06633180
06633180
19800E60
19800E60
19800E60
E6000198
E6000198
18000060
18000060
E6000198
E6000198
18000060
18000060
E6000198
E6000198
E6000198
18000060
18000060
E6000198
E6000198
19800E60
19800E60
06633180
06633180
06633180
019CCE00
019CCE00
00633000
00633000
ENDCHAR
STARTCHAR 00D7
ENCODING 215
SWIDTH 697 0
DWIDTH 31 0
BBX 25 27 3 4
BITMAP
18000E00
18000E00
E6003180
E6003180
1980CE00
1980CE00
1980CE00
06633000
06633000
019CC000
019CC000
00630000
00630000
019CC000
019CC000
06633000
06633000
06633000
1980CE00
1980CE00
E6003180
E6003180
18000E00
18000E00
E6003180
E6003180
E6003180
ENDCHAR
STARTCHAR 00D8
ENCODING 216
SWIDTH 900 0
DWIDTH 40 0
BBX 38 33 1 0
BITMAP
0007338000
0007338000
0018CC6000
0018CC6000
0067339800
0067339800
0198006600
0198006600
0198006600
0660001980
0660001980
0180000600
0180000600
C66733998C
C66733998C
3998CC6670
3998CC6670
C66733998C
C66733998C
C66733998C
0180000600
0180000600
0660001980
0660001980
0198006600
0198006600
0067339800
0067339800
0067339800
0018CC6000
0018CC6000
0007338000
0007338000
ENDCHAR
STARTCHAR 00D9
ENCODING 217
SWIDTH 787 0
DWIDTH 35 0
BBX 29 47 3 0
BITMAP
19800000
19800000
19800000
06600000
06600000
019C0000
019C0000
00630000
00630000
001CC000
001CC000
00000000
00000000
00000000
E6000198
E6000198
18000060
18000060
E6000198
E6000198
18000060
18000060
18000060
E6000198
E6000198
18000060
18000060
E6000198
E6000198
18000060
18000060
E6000198
E6000198
E6000198
18000060
18000060
E6000198
E6000198
19800E60
19800E60
06633180
06633180
06633180
019CCE00
019CCE00
00633000
00633000
ENDCHAR
STARTCHAR 00DA
ENCODING 218
SWIDTH 787 0
DWIDTH 35 0
BBX 29 47 3 0
BITMAP
00003180
00003180
00003180
0000CE00
0000CE00
00033000
00033000
001CC000
001CC000
00630000
00630000
00000000
00000000
00000000
E6000198
E6000198
18000060
18000060
E6000198
E6000198
18000060
18000060
18000060
E6000198
E6000198
18000060
18000060
E6000198
E6000198
18000060
18000060
E6000198
E6000198
E6000198
18000060
18000060
E6000198
E6000198
19800E60
19800E60
06633180
06633180
06633180
019CCE00
019CCE00
00633000
00633000
ENDCHAR
STARTCHAR 00DB
ENCODING 219
SWIDTH 787 0
DWIDTH 35 0
BBX 29 47 3 0
BITMAP
001CC000
001CC000
001CC000
00633000
00633000
019CCE00
019CCE00
00603000
00603000
019CCE00
019CCE00
00000000
00000000
00000000
E6000198
E6000198
18000060
18000060
E6000198
E6000198
18000060
18000060
18000060
E6000198
E6000198
18000060
18000060
E6000198
E6000198
18000060
18000060
E6000198
E6000198
E6000198
18000060
18000060
E6000198
E6000198
19800E60
19800E60
06633180
06633180
06633180
019CCE00
019CCE00
00633000
00633000
ENDCHAR
STARTCHAR 00DC
ENCODING 220
SWIDTH 787 0
DWIDTH 35 0
BBX 29 42 3 0
BITMAP
019CCE00
019CCE00
00603000
00603000
019CCE00
019CCE00
00000000
00000000
00000000
E6000198
E6000198
18000060
18000060
E6000198
E6000198
18000060
18000060
18000060
E6000198
E6000198
18000060
18000060
E6000198
E6000198
18000060
18000060
E6000198
E6000198
E6000198
18000060
18000060
E6000198
E6000198
19800E60
19800E60
06633180
06633180
06633180
019CCE00
019CCE00
00633000
00633000
ENDCHAR
STARTCHAR 00DD
ENCODING 221
SWIDTH 697 0
DWIDTH 31 0
BBX 25 47 3 0
BITMAP
0000CE00
0000CE00
0000CE00
00033000
00033000
001CC000
001CC000
00630000
00630000
019C0000
019C0000
00000000
00000000
00000000
E6003180
E6003180
18000E00
18000E00
E6003180
E6003180
18000E00
18000E00
18000E00
E6003180
E6003180
18000E00
18000E00
E6003180
E6003180
1980CE00
1980CE00
06633000
06633000
06633000
019CC000
019CC000
00630000
00630000
001C0000
001C0000
00630000
00630000
00630000
001C0000
001C0000
00630000
00630000
ENDCHAR
STARTCHAR 00DE
ENCODING 222
SWIDTH 697 0
DWIDTH 31 0
BBX 25 33 3 0
BITMAP
E6000000
E6000000
18000000
18000000
E6633000
E6633000
199CCE00
199CCE00
199CCE00
E6633180
E6633180
18000E00
18000E00
E6003180
E6003180
18000E00
18000E00
E6003180
E6003180
E6003180
18000E00
18000E00
E6633180
E6633180
199CCE00
199CCE00
E6633000
E6633000
E6633000
18000000
18000000
E6000000
E6000000
ENDCHAR
STARTCHAR 00DF
ENCODING 223
SWIDTH 697 0
DWIDTH 31 0
BBX 25 33 3 0
BITMAP
06633000
06633000
199CCE00
199CCE00
E6633180
E6633180
18000E00
18000E00
18000E00
E6003180
E6003180
1800CE00
1800CE00
E6633000
E6633000
181CCE00
181CCE00
E6633180
E6633180
E6633180
18000E00
18000E00
E6003180
E6003180
18000E00
18000E00
E6633180
E6633180
E6633180
181CCE00
181CCE00
E6633000
E6633000
ENDCHAR
STARTCHAR 00E0
ENCODING 224
SWIDTH 697 0
DWIDTH 31 0
BBX 25 47 3 0
BITMAP
E6000000
E6000000
E6000000
19800000
19800000
06600000
06600000
019C0000
019C0000
00630000
00630000
00000000
00000000
00000000
06633000
06633000
199CCE00
199CCE00
E6633180
E6633180
18000E00
18000E00
18000E00
E6003180
E6003180
18000E00
18000E00
E6003180
E6003180
18000E00
18000E00
E6633180
E6633180
E6633180
199CCE00
199CCE00
E6633180
E6633180
18000E00
18000E00
E6003180
E6003180
E6003180
18000E00
18000E00
E6003180
E6003180
ENDCHAR
STARTCHAR 00E1
ENCODING 225
SWIDTH 697 0
DWIDTH 31 0
BBX 25 47 3 0
BITMAP
0000CE00
0000CE00
0000CE00
00033000
00033000
001CC000
001CC000
00630000
00630000
019C0000
019C0000
00000000
00000000
00000000
06633000
06633000
199CCE00
199CCE00
E6633180
E6633180
18000E00
18000E00
18000E00
E6003180
E6003180
18000E00
18000E00
E6003180
E6003180
18000E00
18000E00
E6633180
E6633180
E6633180
199CCE00
199CCE00
E6633180
E6633180
18000E00
18000E00
E6003180
E6003180
E6003180
18000E00
18000E00
E6003180
E6003180
ENDCHAR
STARTCHAR 00E2
ENCODING 226
SWIDTH 697 0
DWIDTH 31 0
BBX 25 47 3 0
BITMAP
00630000
00630000
00630000
019CC000
019CC000
06633000
06633000
0180C000
0180C000
06633000
06633000
00000000
00000000
00000000
06633000
06633000
199CCE00
199CCE00
E6633180
E6633180
18000E00
18000E00
18000E00
E6003180
E6003180
18000E00
18000E00
E6003180
E6003180
18000E00
18000E00
E6633180
E6633180
E6633180
199CCE00
199CCE00
E6633180
E6633180
18000E00
18000E00
E6003180
E6003180
E6003180
18000E00
18000E00
E6003180
E6003180
ENDCHAR
STARTCHAR 00E3
ENCODING 227
SWIDTH 697 0
DWIDTH 31 0
BBX 25 47 3 0
BITMAP
06603180
06603180
06603180
199C0E00
199C0E00
E6633180
E6633180
181CCE00
181CCE00
E6033000
E6033000
00000000
00000000
00000000
06633000
06633000
199CCE00
199CCE00
E6633180
E6633180
18000E00
18000E00
18000E00
E6003180
E6003180
18000E00
18000E00
E6003180
E6003180
18000E00
18000E00
E6633180
E6633180
E6633180
199CCE00
199CCE00
E6633180
E6633180
18000E00
18000E00
E6003180
E6003180
E6003180
18000E00
18000E00
E6003180
E6003180
ENDCHAR
STARTCHAR 00E4
ENCODING 228
SWIDTH 697 0
DWIDTH 31 0
BBX 25 42 3 0
BITMAP
06633000
06633000
0180C000
0180C000
06633000
06633000
00000000
00000000
00000000
06633000
06633000
199CCE00
199CCE00
E6633180
E6633180
18000E00
18000E00
18000E00
E6003180
E6003180
18000E00
18000E00
E6003180
E6003180
18000E00
18000E00
E6633180
E6633180
E6633180
199CCE00
199CCE00
E6633180
E6633180
18000E00
18000E00
E6003180
E6003180
E6003180
18000E00
18000E00
E6003180
E6003180
ENDCHAR
STARTCHAR 00E5
ENCODING 229
SWIDTH 697 0
DWIDTH 31 0
BBX 25 56 3 0
BITMAP
019CC000
019CC000
019CC000
06633000
06633000
199CCE00
199CCE00
06003000
06003000
1980CE00
1980CE00
1980CE00
06003000
06003000
199CCE00
199CCE00
06633000
06633000
019CC000
019CC000
00000000
00000000
00000000
06633000
06633000
199CCE00
199CCE00
E6633180
E6633180
18000E00
18000E00
18000E00
E6003180
E6003180
18000E00
18000E00
E6003180
E6003180
18000E00
18000E00
E6633180
E6633180
E6633180
199CCE00
199CCE00
E6633180
E6633180
18000E00
18000E00
E6003180
E6003180
E6003180
18000E00
18000E00
E6003180
E6003180
ENDCHAR
STARTCHAR 00E6
ENCODING 230
SWIDTH 1080 0
DWIDTH 48 0
BBX 43 33 3 0
BITMAP
06633199CCE0
06633199CCE0
199CCE663300
199CCE663300
E6633199CCE0
E6633199CCE0
18000E000000
18000E000000
18000E000000
E60031800000
E60031800000
18000E000000
18000E000000
E6003199CC00
E6003199CC00
18000E663000
18000E663000
E6633199CC00
E6633199CC00
E6633199CC00
199CCE000000
199CCE000000
E66331800000
E66331800000
18000E000000
18000E000000
E6003199CCE0
E6003199CCE0
E6003199CCE0
18000E663300
18000E663300
E6000199CCE0
E6000199CCE0
ENDCHAR
STARTCHAR 00E7
ENCODING 231
SWIDTH 697 0
DWIDTH 31 0
BBX 25 42 3 -9
BITMAP
06633000
06633000
199CCE00
199CCE00
E6633180
E6633180
18000E00
18000E00
18000E00
E6003180
E6003180
18000E00
18000E00
E6003180
E6003180
18000000
18000000
E6000000
E6000000
E6000000
18000000
18000000
E6003180
E6003180
18000E00
18000E00
E6633180
E6633180
E6633180
199CCE00
199CCE00
06633000
06633000
001C0000
001C0000
06630000
06630000
019C0000
019C0000
019C0000
06600000
06600000
ENDCHAR
STARTCHAR 00E8
ENCODING 232
SWIDTH 697 0
DWIDTH 31 0
BBX 25 47 3 0
BITMAP
E6000000
E6000000
E6000000
19800000
19800000
06600000
06600000
019C0000
019C0000
00630000
00630000
00000000
00000000
00000000
06633180
06633180
199CCE00
199CCE00
E6633180
E6633180
18000000
18000000
18000000
E6000000
E6000000
18000000
18000000
E6633000
E6633000
199CC000
199CC000
E6633000
E6633000
E6633000
18000000
18000000
E6000000
E6000000
18000000
18000000
E6633180
E6633180
E6633180
199CCE00
199CCE00
06633180
06633180
ENDCHAR
STARTCHAR 00E9
ENCODING 233
SWIDTH 697 0
DWIDTH 31 0
BBX 25 47 3 0
BITMAP
0000CE00
0000CE00
0000CE00
00033000
00033000
001CC000
001CC000
00630000
00630000
019C0000
019C0000
00000000
00000000
00000000
06633180
06633180
199CCE00
199CCE00
E6633180
E6633180
18000000
18000000
18000000
E6000000
E6000000
18000000
18000000
E6633000
E6633000
199CC000
199CC000
E6633000
E6633000
E6633000
18000000
18000000
E6000000
E6000000
18000000
18000000
E6633180
E6633180
E6633180
199CCE00
199CCE00
06633180
06633180
ENDCHAR
STARTCHAR 00EA
ENCODING 234
SWIDTH 697 0
DWIDTH 31 0
BBX 25 47 3 0
BITMAP
00630000
00630000
00630000
019CC000
019CC000
06633000
06633000
0180C000
0180C000
06633000
06633000
00000000
00000000
00000000
06633180
06633180
199CCE00
199CCE00
E6633180
E6633180
18000000
18000000
18000000
E6000000
E6000000
18000000
18000000
E6633000
E6633000
199CC000
199CC000
E6633000
E6633000
E6633000
18000000
18000000
E6000000
E6000000
18000000
18000000
E6633180
E6633180
E6633180
199CCE00
199CCE00
06633180
06633180
ENDCHAR
STARTCHAR 00EB
ENCODING 235
SWIDTH 697 0
DWIDTH 31 0
BBX 25 42 3 0
BITMAP
06633000
06633000
0180C000
0180C000
06633000
06633000
00000000
00000000
00000000
06633180
06633180
199CCE00
199CCE00
E6633180
E6633180
18000000
18000000
18000000
E6000000
E6000000
18000000
18000000
E6633000
E6633000
199CC000
199CC000
E6633000
E6633000
E6633000
18000000
18000000
E6000000
E6000000
18000000
18000000
E6633180
E6633180
E6633180
199CCE00
199CCE00
06633180
06633180
ENDCHAR
STARTCHAR 00EC
ENCODING 236
SWIDTH 292 0
DWIDTH 13 0
BBX 16 47 -6 0
BITMAP
E600
E600
E600
1980
1980
0670
0670
018C
018C
0073
0073
0000
0000
0000
0073
0073
000C
000C
0073
0073
000C
000C
000C
0073
0073
000C
000C
0073
0073
000C
000C
0073
0073
0073
000C
000C
0073
0073
000C
000C
0073
0073
0073
000C
000C
0073
0073
ENDCHAR
STARTCHAR 00ED
ENCODING 237
SWIDTH 292 0
DWIDTH 13 0
BBX 16 47 1 0
BITMAP
0067
0067
0067
0198
0198
0660
0660
3980
3980
C600
C600
0000
0000
0000
3980
3980
0600
0600
3980
3980
0600
0600
0600
3980
3980
0600
0600
3980
3980
0600
0600
3980
3980
3980
0600
0600
3980
3980
0600
0600
3980
3980
3980
0600
0600
3980
3980
ENDCHAR
STARTCHAR 00EE
ENCODING 238
SWIDTH 292 0
DWIDTH 13 0
BBX 15 47 -1 0
BITMAP
0E60
0E60
0E60
3198
3198
CE66
CE66
3018
3018
CE66
CE66
0000
0000
0000
0E60
0E60
0180
0180
0E60
0E60
0180
0180
0180
0E60
0E60
0180
0180
0E60
0E60
0180
0180
0E60
0E60
0E60
0180
0180
0E60
0E60
0180
0180
0E60
0E60
0E60
0180
0180
0E60
0E60
ENDCHAR
STARTCHAR 00EF
ENCODING 239
SWIDTH 292 0
DWIDTH 13 0
BBX 15 42 -1 0
BITMAP
CE66
CE66
3018
3018
CE66
CE66
0000
0000
0000
0E60
0E60
0180
0180
0E60
0E60
0180
0180
0180
0E60
0E60
0180
0180
0E60
0E60
0180
0180
0E60
0E60
0E60
0180
0180
0E60
0E60
0180
0180
0E60
0E60
0E60
0180
0180
0E60
0E60
ENDCHAR
STARTCHAR 00F0
ENCODING 240
SWIDTH 742 0
DWIDTH 33 0
BBX 29 33 1 0
BITMAP
06673380
06673380
0198CC60
0198CC60
06673398
06673398
01800060
01800060
01800060
06600398
06600398
01800060
01800060
C6670398
C6670398
39980060
39980060
C6670398
C6670398
C6670398
01800060
01800060
06600398
06600398
01800060
01800060
06673398
06673398
06673398
0198CC60
0198CC60
06673380
06673380
ENDCHAR
STARTCHAR 00F1
ENCODING 241
SWIDTH 697 0
DWIDTH 31 0
BBX 25 47 3 0
BITMAP
06603180
06603180
06603180
199C0E00
199C0E00
E6633180
E6633180
181CCE00
181CCE00
E6033000
E6033000
00000000
00000000
00000000
E6003180
E6003180
19800E00
19800E00
E6603180
E6603180
199C0E00
199C0E00
199C0E00
E6633180
E6633180
181CCE00
181CCE00
E6033180
E6033180
1800CE00
1800CE00
E6003180
E6003180
E6003180
18000E00
18000E00
E6003180
E6003180
18000E00
18000E00
E6003180
E6003180
E6003180
18000E00
18000E00
E6003180
E6003180
ENDCHAR
STARTCHAR 00F2
ENCODING 242
SWIDTH 697 0
DWIDTH 31 0
BBX 25 47 3 0
BITMAP
E6000000
E6000000
E6000000
19800000
19800000
06600000
06600000
019C0000
019C0000
00630000
00630000
00000000
00000000
00000000
06633000
06633000
199CCE00
199CCE00
E6633180
E6633180
18000E00
18000E00
18000E00
E6003180
E6003180
18000E00
18000E00
E6003180
E6003180
18000E00
18000E00
E6003180
E6003180
E6003180
18000E00
18000E00
E6003180
E6003180
18000E00
18000E00
E6633180
E6633180
E6633180
199CCE00
199CCE00
06633000
06633000
ENDCHAR
STARTCHAR 00F3
ENCODING 243
SWIDTH 697 0
DWIDTH 31 0
BBX 25 47 3 0
BITMAP
0000CE00
0000CE00
0000CE00
00033000
00033000
001CC000
001CC000
00630000
00630000
019C0000
019C0000
00000000
00000000
00000000
06633000
06633000
199CCE00
199CCE00
E6633180
E6633180
18000E00
18000E00
18000E00
E6003180
E6003180
18000E00
18000E00
E6003180
E6003180
18000E00
18000E00
E6003180
E6003180
E6003180
18000E00
18000E00
E6003180
E6003180
18000E00
18000E00
E6633180
E6633180
E6633180
199CCE00
199CCE00
06633000
06633000
ENDCHAR
STARTCHAR 00F4
ENCODING 244
SWIDTH 697 0
DWIDTH 31 0
BBX 25 47 3 0
BITMAP
00630000
00630000
00630000
019CC000
019CC000
06633000
06633000
0180C000
0180C000
06633000
06633000
00000000
00000000
00000000
06633000
06633000
199CCE00
199CCE00
E6633180
E6633180
18000E00
18000E00
18000E00
E6003180
E6003180
18000E00
18000E00
E6003180
E6003180
18000E00
18000E00
E6003180
E6003180
E6003180
18000E00
18000E00
E6003180
E6003180
18000E00
18000E00
E6633180
E6633180
E6633180
199CCE00
199CCE00
06633000
06633000
ENDCHAR
STARTCHAR 00F5
ENCODING 245
SWIDTH 697 0
DWIDTH 31 0
BBX 25 47 3 0
BITMAP
06603180
06603180
06603180
199C0E00
199C0E00
E6633180
E6633180
181CCE00
181CCE00
E6033000
E6033000
00000000
00000000
00000000
06633000
06633000
199CCE00
199CCE00
E6633180
E6633180
18000E00
18000E00
18000E00
E6003180
E6003180
18000E00
18000E00
E6003180
E6003180
18000E00
18000E00
E6003180
E6003180
E6003180
18000E00
18000E00
E6003180
E6003180
18000E00
18000E00
E6633180
E6633180
E6633180
199CCE00
199CCE00
06633000
06633000
ENDCHAR
STARTCHAR 00F6
ENCODING 246
SWIDTH 697 0
DWIDTH 31 0
BBX 25 42 3 0
BITMAP
06633000
06633000
0180C000
0180C000
06633000
06633000
00000000
00000000
00000000
06633000
06633000
199CCE00
199CCE00
E6633180
E6633180
18000E00
18000E00
18000E00
E6003180
E6003180
18000E00
18000E00
E6003180
E6003180
18000E00
18000E00
E6003180
E6003180
E6003180
18000E00
18000E00
E6003180
E6003180
18000E00
18000E00
E6633180
E6633180
E6633180
199CCE00
199CCE00
06633000
06633000
ENDCHAR
STARTCHAR 00F7
ENCODING 247
SWIDTH 697 0
DWIDTH 31 0
BBX 25 25 3 4
BITMAP
00630000
00630000
001C0000
001C0000
001C0000
00630000
00630000
00000000
00000000
E6633180
E6633180
199CCE00
199CCE00
E6633180
E6633180
E6633180
00000000
00000000
00630000
00630000
001C0000
001C0000
00630000
00630000
00630000
ENDCHAR
STARTCHAR 00F8
ENCODING 248
SWIDTH 787 0
DWIDTH 35 0
BBX 33 33 1 0
BITMAP
0067338000
0067338000
0198CC6000
0198CC6000
0667339800
0667339800
0180006000
0180006000
0180006000
0660039800
0660039800
0180006000
0180006000
C667339980
C667339980
3998CC6600
3998CC6600
C667339980
C667339980
C667339980
0180006000
0180006000
0660039800
0660039800
0180006000
0180006000
0667339800
0667339800
0667339800
0198CC6000
0198CC6000
0067338000
0067338000
ENDCHAR
STARTCHAR 00F9
ENCODING 249
SWIDTH 697 0
DWIDTH 31 0
BBX 25 47 3 0
BITMAP
E6000000
E6000000
E6000000
19800000
19800000
06600000
06600000
019C0000
019C0000
00630000
00630000
00000000
00000000
00000000
E6003180
E6003180
18000E00
18000E00
E6003180
E6003180
18000E00
18000E00
18000E00
E6003180
E6003180
18000E00
18000E00
E6003180
E6003180
18000E00
18000E00
E6003180
E6003180
E6003180
18000E00
18000E00
E6003180
E6003180
18000E00
18000E00
E6633180
E6633180
E6633180
199CCE00
199CCE00
06633000
06633000
ENDCHAR
STARTCHAR 00FA
ENCODING 250
SWIDTH 697 0
DWIDTH 31 0
BBX 25 47 3 0
BITMAP
0000CE00
0000CE00
0000CE00
00033000
00033000
001CC000
001CC000
00630000
00630000
019C0000
019C0000
00000000
00000000
00000000
E6003180
E6003180
18000E00
18000E00
E6003180
E6003180
18000E00
18000E00
18000E00
E6003180
E6003180
18000E00
18000E00
E6003180
E6003180
18000E00
18000E00
E6003180
E6003180
E6003180
18000E00
18000E00
E6003180
E6003180
18000E00
18000E00
E6633180
E6633180
E6633180
199CCE00
199CCE00
06633000
06633000
ENDCHAR
STARTCHAR 00FB
ENCODING 251
SWIDTH 697 0
DWIDTH 31 0
BBX 25 47 3 0
BITMAP
00630000
00630000
00630000
019CC000
019CC000
06633000
06633000
0180C000
0180C000
06633000
06633000
00000000
00000000
00000000
E6003180
E6003180
18000E00
18000E00
E6003180
E6003180
18000E00
18000E00
18000E00
E6003180
E6003180
18000E00
18000E00
E6003180
E6003180
18000E00
18000E00
E6003180
E6003180
E6003180
18000E00
18000E00
E6003180
E6003180
18000E00
18000E00
E6633180
E6633180
E6633180
199CCE00
199CCE00
06633000
06633000
ENDCHAR
STARTCHAR 00FC
ENCODING 252
SWIDTH 697 0
DWIDTH 31 0
BBX 25 42 3 0
BITMAP
06633000
06633000
0180C000
0180C000
06633000
06633000
00000000
00000000
00000000
E6003180
E6003180
18000E00
18000E00
E6003180
E6003180
18000E00
18000E00
18000E00
E6003180
E6003180
18000E00
18000E00
E6003180
E6003180
18000E00
18000E00
E6003180
E6003180
E6003180
18000E00
18000E00
E6003180
E6003180
18000E00
18000E00
E6633180
E6633180
E6633180
199CCE00
199CCE00
06633000
06633000
ENDCHAR
STARTCHAR 00FD
ENCODING 253
SWIDTH 697 0
DWIDTH 31 0
BBX 25 47 3 0
BITMAP
0000CE00
0000CE00
0000CE00
00033000
00033000
001CC000
001CC000
00630000
00630000
019C0000
019C0000
00000000
00000000
00000000
E6003180
E6003180
18000E00
18000E00
E6003180
E6003180
18000E00
18000E00
18000E00
E6003180
E6003180
18000E00
18000E00
E6003180
E6003180
18000E00
18000E00
E6633180
E6633180
E6633180
199CCE00
199CCE00
06633000
06633000
001C0000
001C0000
00630000
00630000
00630000
001C0000
001C0000
00630000
00630000
ENDCHAR
STARTCHAR 00FE
ENCODING 254
SWIDTH 697 0
DWIDTH 31 0
BBX 25 33 3 0
BITMAP
E6000000
E6000000
18000000
18000000
E6633000
E6633000
199CCE00
199CCE00
199CCE00
E6633180
E6633180
18000E00
18000E00
E6003180
E6003180
18000E00
18000E00
E6003180
E6003180
E6003180
18000E00
18000E00
E6633180
E6633180
199CCE00
199CCE00
E6633000
E6633000
E6633000
18000000
18000000
E6000000
E6000000
ENDCHAR
STARTCHAR 00FF
ENCODING 255
SWIDTH 697 0
DWIDTH 31 0
BBX 25 42 3 0
BITMAP
06633000
06633000
0180C000
0180C000
06633000
06633000
00000000
00000000
00000000
E6003180
E6003180
18000E00
18000E00
E6003180
E6003180
18000E00
18000E00
18000E00
E6003180
E6003180
18000E00
18000E00
E6003180
E6003180
18000E00
18000E00
E6633180
E6633180
E6633180
199CCE00
199CCE00
06633000
06633000
001C0000
001C0000
00630000
00630000
00630000
001C0000
001C0000
00630000
00630000
ENDCHAR
STARTCHAR 0100
ENCODING 256
SWIDTH 697 0
DWIDTH 31 0
BBX 25 42 3 0
BITMAP
06633000
06633000
019CC000
019CC000
06633000
06633000
00000000
00000000
00000000
00630000
00630000
019CC000
019CC000
06633000
06633000
1980CE00
1980CE00
1980CE00
E6003180
E6003180
18000E00
18000E00
E6003180
E6003180
18000E00
18000E00
E6633180
E6633180
E6633180
199CCE00
199CCE00
E6633180
E6633180
18000E00
18000E00
E6003180
E6003180
E6003180
18000E00
18000E00
E6003180
E6003180
ENDCHAR
STARTCHAR 0101
ENCODING 257
SWIDTH 697 0
DWIDTH 31 0
BBX 25 42 3 0
BITMAP
06633000
06633000
019CC000
019CC000
06633000
06633000
00000000
00000000
00000000
06633000
06633000
199CCE00
199CCE00
E6633180
E6633180
18000E00
18000E00
18000E00
E6003180
E6003180
18000E00
18000E00
E6003180
E6003180
18000E00
18000E00
E6633180
E6633180
E6633180
199CCE00
199CCE00
E6633180
E6633180
18000E00
18000E00
E6003180
E6003180
E6003180
18000E00
18000E00
E6003180
E6003180
ENDCHAR
STARTCHAR 0102
ENCODING 258
SWIDTH 697 0
DWIDTH 31 0
BBX 25 47 3 0
BITMAP
1980CE00
1980CE00
1980CE00
06003000
06003000
199CCE00
199CCE00
06633000
06633000
019CC000
019CC000
00000000
00000000
00000000
00630000
00630000
019CC000
019CC000
06633000
06633000
1980CE00
1980CE00
1980CE00
E6003180
E6003180
18000E00
18000E00
E6003180
E6003180
18000E00
18000E00
E6633180
E6633180
E6633180
199CCE00
199CCE00
E6633180
E6633180
18000E00
18000E00
E6003180
E6003180
E6003180
18000E00
18000E00
E6003180
E6003180
ENDCHAR
STARTCHAR 0103
ENCODING 259
SWIDTH 697 0
DWIDTH 31 0
BBX 25 47 3 0
BITMAP
1980CE00
1980CE00
1980CE00
06003000
06003000
199CCE00
199CCE00
06633000
06633000
019CC000
019CC000
00000000
00000000
00000000
06633000
06633000
199CCE00
199CCE00
E6633180
E6633180
18000E00
18000E00
18000E00
E6003180
E6003180
18000E00
18000E00
E6003180
E6003180
18000E00
18000E00
E6633180
E6633180
E6633180
199CCE00
199CCE00
E6633180
E6633180
18000E00
18000E00
E6003180
E6003180
E6003180
18000E00
18000E00
E6003180
E6003180
ENDCHAR
STARTCHAR 0104
ENCODING 260
SWIDTH 697 0
DWIDTH 31 0
BBX 29 42 3 -9
BITMAP
00630000
00630000
019CC000
019CC000
06633000
06633000
1980CE00
1980CE00
1980CE00
E6003180
E6003180
18000E00
18000E00
E6003180
E6003180
18000E00
18000E00
E6633180
E6633180
E6633180
199CCE00
199CCE00
E6633180
E6633180
18000E00
18000E00
E6003180
E6003180
E6003180
18000E00
18000E00
E6003180
E6003180
00000E00
00000E00
00003198
00003198
00000E60
00000E60
00000E60
00000198
00000198
ENDCHAR
STARTCHAR 0105
ENCODING 261
SWIDTH 697 0
DWIDTH 31 0
BBX 29 42 3 -9
BITMAP
06633000
06633000
199CCE00
199CCE00
E6633180
E6633180
18000E00
18000E00
18000E00
E6003180
E6003180
18000E00
18000E00
E6003180
E6003180
18000E00
18000E00
E6633180
E6633180
E6633180
199CCE00
199CCE00
E6633180
E6633180
18000E00
18000E00
E6003180
E6003180
E6003180
18000E00
18000E00
E6003180
E6003180
00000E00
00000E00
00003198
00003198
00000E60
00000E60
00000E60
00000198
00000198
ENDCHAR
STARTCHAR 0106
ENCODING 262
SWIDTH 787 0
DWIDTH 35 0
BBX 29 47 3 0
BITMAP
00003180
00003180
00003180
0000CE00
0000CE00
00033000
00033000
001CC000
001CC000
00630000
00630000
00000000
00000000
00000000
00633000
00633000
019CCE00
019CCE00
06633180
06633180
19800E60
19800E60
19800E60
E6000198
E6000198
18000060
18000060
E6000198
E6000198
18000000
18000000
E6000000
E6000000
E6000000
18000000
18000000
E6000198
E6000198
19800E60
19800E60
06633180
06633180
06633180
019CCE00
019CCE00
00633000
00633000
ENDCHAR
STARTCHAR 0107
ENCODING 263
SWIDTH 697 0
DWIDTH 31 0
BBX 25 47 3 0
BITMAP
0000CE00
0000CE00
0000CE00
00033000
00033000
001CC000
001CC000
00630000
00630000
019C0000
019C0000
00000000
00000000
00000000
06633000
06633000
199CCE00
199CCE00
E6633180
E6633180
18000E00
18000E00
18000E00
E6003180
E6003180
18000E00
18000E00
E6003180
E6003180
18000000
18000000
E6000000
E6000000
E6000000
18000000
18000000
E6003180
E6003180
18000E00
18000E00
E6633180
E6633180
E6633180
199CCE00
199CCE00
06633000
06633000
ENDCHAR
STARTCHAR 010A
ENCODING 266
SWIDTH 787 0
DWIDTH 35 0
BBX 29 42 3 0
BITMAP
001CC000
001CC000
00030000
00030000
001CC000
001CC000
00000000
00000000
00000000
00633000
00633000
019CCE00
019CCE00
06633180
06633180
19800E60
19800E60
19800E60
E6000198
E6000198
18000060
18000060
E6000198
E6000198
18000000
18000000
E6000000
E6000000
E6000000
18000000
18000000
E6000198
E6000198
19800E60
19800E60
06633180
06633180
06633180
019CCE00
019CCE00
00633000
00633000
ENDCHAR
STARTCHAR 010B
ENCODING 267
SWIDTH 697 0
DWIDTH 31 0
BBX 25 42 3 0
BITMAP
00630000
00630000
001C0000
001C0000
00630000
00630000
00000000
00000000
00000000
06633000
06633000
199CCE00
199CCE00
E6633180
E6633180
18000E00
18000E00
18000E00
E6003180
E6003180
18000E00
18000E00
E6003180
E6003180
18000000
18000000
E6000000
E6000000
E6000000
18000000
18000000
E6003180
E6003180
18000E00
18000E00
E6633180
E6633180
E6633180
199CCE00
199CCE00
06633000
06633000
ENDCHAR
STARTCHAR 010C
ENCODING 268
SWIDTH 787 0
DWIDTH 35 0
BBX 29 47 3 0
BITMAP
019CCE00
019CCE00
019CCE00
00603000
00603000
019CCE00
019CCE00
00633000
00633000
001CC000
001CC000
00000000
00000000
00000000
00633000
00633000
019CCE00
019CCE00
06633180
06633180
19800E60
19800E60
19800E60
E6000198
E6000198
18000060
18000060
E6000198
E6000198
18000000
18000000
E6000000
E6000000
E6000000
18000000
18000000
E6000198
E6000198
19800E60
19800E60
06633180
06633180
06633180
019CCE00
019CCE00
00633000
00633000
ENDCHAR
STARTCHAR 010D
ENCODING 269
SWIDTH 697 0
DWIDTH 31 0
BBX 25 47 3 0
BITMAP
06633000
06633000
06633000
0180C000
0180C000
06633000
06633000
019CC000
019CC000
00630000
00630000
00000000
00000000
00000000
06633000
06633000
199CCE00
199CCE00
E6633180
E6633180
18000E00
18000E00
18000E00
E6003180
E6003180
18000E00
18000E00
E6003180
E6003180
18000000
18000000
E6000000
E6000000
E6000000
18000000
18000000
E6003180
E6003180
18000E00
18000E00
E6633180
E6633180
E6633180
199CCE00
199CCE00
06633000
06633000
ENDCHAR
STARTCHAR 010E
ENCODING 270
SWIDTH 787 0
DWIDTH 35 0
BBX 29 47 3 0
BITMAP
019CCE00
019CCE00
019CCE00
00603000
00603000
019CCE00
019CCE00
00633000
00633000
001CC000
001CC000
00000000
00000000
00000000
E6633000
E6633000
199CCE00
199CCE00
E6633180
E6633180
18000E60
18000E60
18000E60
E6000198
E6000198
18000060
18000060
E6000198
E6000198
18000060
18000060
E6000198
E6000198
E6000198
18000060
18000060
E6000198
E6000198
18000E60
18000E60
E6633180
E6633180
E6633180
199CCE00
199CCE00
E6633000
E6633000
ENDCHAR
STARTCHAR 010F
ENCODING 271
SWIDTH 697 0
DWIDTH 31 0
BBX 25 47 3 0
BITMAP
06633000
06633000
06633000
0180C000
0180C000
06633000
06633000
019CC000
019CC000
00630000
00630000
00000000
00000000
00000000
E6633000
E6633000
199CCE00
199CCE00
E6633180
E6633180
18000E00
18000E00
18000E00
E6003180
E6003180
18000E00
18000E00
E6003180
E6003180
18000E00
18000E00
E6003180
E6003180
E6003180
18000E00
18000E00
E6003180
E6003180
18000E00
18000E00
E6633180
E6633180
E6633180
199CCE00
199CCE00
E6633000
E6633000
ENDCHAR
STARTCHAR 0110
ENCODING 272
SWIDTH 832 0
DWIDTH 37 0
BBX 33 33 1 0
BITMAP
0667338000
0667338000
0198CC6000
0198CC6000
0667339800
0667339800
0180006600
0180006600
0180006600
0660001980
0660001980
0180000600
0180000600
C667001980
C667001980
3998000600
3998000600
C667001980
C667001980
C667001980
0180000600
0180000600
0660001980
0660001980
0180006600
0180006600
0667339800
0667339800
0667339800
0198CC6000
0198CC6000
0667338000
0667338000
ENDCHAR
STARTCHAR 0111
ENCODING 273
SWIDTH 742 0
DWIDTH 33 0
BBX 29 33 1 0
BITMAP
06673380
06673380
0198CC60
0198CC60
06673398
06673398
01800060
01800060
01800060
06600398
06600398
01800060
01800060
C6670398
C6670398
39980060
39980060
C6670398
C6670398
C6670398
01800060
01800060
06600398
06600398
01800060
01800060
06673398
06673398
06673398
0198CC60
0198CC60
06673380
06673380
ENDCHAR
STARTCHAR 0112
ENCODING 274
SWIDTH 697 0
DWIDTH 31 0
BBX 25 42 3 0
BITMAP
06633000
06633000
019CC000
019CC000
06633000
06633000
00000000
00000000
00000000
00633180
00633180
019CCE00
019CCE00
06633180
06633180
19800000
19800000
19800000
E6000000
E6000000
18000000
18000000
E6633000
E6633000
199CC000
199CC000
E6633000
E6633000
E6633000
18000000
18000000
E6000000
E6000000
19800000
19800000
06633180
06633180
06633180
019CCE00
019CCE00
00633180
00633180
ENDCHAR
STARTCHAR 0113
ENCODING 275
SWIDTH 697 0
DWIDTH 31 0
BBX 25 42 3 0
BITMAP
06633000
06633000
019CC000
019CC000
06633000
06633000
00000000
00000000
00000000
06633180
06633180
199CCE00
199CCE00
E6633180
E6633180
18000000
18000000
18000000
E6000000
E6000000
18000000
18000000
E6633000
E6633000
199CC000
199CC000
E6633000
E6633000
E6633000
18000000
18000000
E6000000
E6000000
18000000
18000000
E6633180
E6633180
E6633180
199CCE00
199CCE00
06633180
06633180
ENDCHAR
STARTCHAR 0116
ENCODING 278
SWIDTH 697 0
DWIDTH 31 0
BBX 25 42 3 0
BITMAP
00630000
00630000
001C0000
001C0000
00630000
00630000
00000000
00000000
00000000
00633180
00633180
019CCE00
019CCE00
06633180
06633180
19800000
19800000
19800000
E6000000
E6000000
18000000
18000000
E6633000
E6633000
199CC000
199CC000
E6633000
E6633000
E6633000
18000000
18000000
E6000000
E6000000
19800000
19800000
06633180
06633180
06633180
019CCE00
019CCE00
00633180
00633180
ENDCHAR
STARTCHAR 0117
ENCODING 279
SWIDTH 697 0
DWIDTH 31 0
BBX 25 42 3 0
BITMAP
00630000
00630000
001C0000
001C0000
00630000
00630000
00000000
00000000
00000000
06633180
06633180
199CCE00
199CCE00
E6633180
E6633180
18000000
18000000
18000000
E6000000
E6000000
18000000
18000000
E6633000
E6633000
199CC000
199CC000
E6633000
E6633000
E6633000
18000000
18000000
E6000000
E6000000
18000000
18000000
E6633180
E6633180
E6633180
199CCE00
199CCE00
06633180
06633180
ENDCHAR
STARTCHAR 0118
ENCODING 280
SWIDTH 697 0
DWIDTH 31 0
BBX 29 42 3 -9
BITMAP
00633180
00633180
019CCE00
019CCE00
06633180
06633180
19800000
19800000
19800000
E6000000
E6000000
18000000
18000000
E6633000
E6633000
199CC000
199CC000
E6633000
E6633000
E6633000
18000000
18000000
E6000000
E6000000
19800000
19800000
06633180
06633180
06633180
019CCE00
019CCE00
00633180
00633180
00000E00
00000E00
00003198
00003198
00000E60
00000E60
00000E60
00000198
00000198
ENDCHAR
STARTCHAR 0119
ENCODING 281
SWIDTH 697 0
DWIDTH 31 0
BBX 29 42 3 -9
BITMAP
06633180
06633180
199CCE00
199CCE00
E6633180
E6633180
18000000
18000000
18000000
E6000000
E6000000
18000000
18000000
E6633000
E6633000
199CC000
199CC000
E6633000
E6633000
E6633000
18000000
18000000
E6000000
E6000000
18000000
18000000
E6633180
E6633180
E6633180
199CCE00
199CCE00
06633180
06633180
00000E00
00000E00
00003198
00003198
00000E60
00000E60
00000E60
00000198
00000198
ENDCHAR
STARTCHAR 011A
ENCODING 282
SWIDTH 697 0
DWIDTH 31 0
BBX 25 47 3 0
BITMAP
06633000
06633000
06633000
0180C000
0180C000
06633000
06633000
019CC000
019CC000
00630000
00630000
00000000
00000000
00000000
00633180
00633180
019CCE00
019CCE00
06633180
06633180
19800000
19800000
19800000
E6000000
E6000000
18000000
18000000
E6633000
E6633000
199CC000
199CC000
E6633000
E6633000
E6633000
18000000
18000000
E6000000
E6000000
19800000
19800000
06633180
06633180
06633180
019CCE00
019CCE00
00633180
00633180
ENDCHAR
STARTCHAR 011B
ENCODING 283
SWIDTH 697 0
DWIDTH 31 0
BBX 25 47 3 0
BITMAP
06633000
06633000
06633000
0180C000
0180C000
06633000
06633000
019CC000
019CC000
00630000
00630000
00000000
00000000
00000000
06633180
06633180
199CCE00
199CCE00
E6633180
E6633180
18000000
18000000
18000000
E6000000
E6000000
18000000
18000000
E6633000
E6633000
199CC000
199CC000
E6633000
E6633000
E6633000
18000000
18000000
E6000000
E6000000
18000000
18000000
E6633180
E6633180
E6633180
199CCE00
199CCE00
06633180
06633180
ENDCHAR
STARTCHAR 011E
ENCODING 286
SWIDTH 787 0
DWIDTH 35 0
BBX 29 47 3 0
BITMAP
06603180
06603180
06603180
01800E00
01800E00
06633180
06633180
019CCE00
019CCE00
00633000
00633000
00000000
00000000
00000000
00633198
00633198
019CCE60
019CCE60
06633198
06633198
19800000
19800000
19800000
E6000000
E6000000
18000000
18000000
E6033198
E6033198
1800CE60
1800CE60
E6033198
E6033198
E6033198
18000060
18000060
E6000198
E6000198
19800060
19800060
06633198
06633198
06633198
019CCE60
019CCE60
00633198
00633198
ENDCHAR
STARTCHAR 011F
ENCODING 287
SWIDTH 697 0
DWIDTH 31 0
BBX 25 47 3 0
BITMAP
1980CE00
1980CE00
1980CE00
06003000
06003000
199CCE00
199CCE00
06633000
06633000
019CC000
019CC000
00000000
00000000
00000000
06633180
06633180
199CCE00
199CCE00
E6633180
E6633180
18000000
18000000
18000000
E6000000
E6000000
18000000
18000000
E6033180
E6033180
1800CE00
1800CE00
E6033180
E6033180
E6033180
18000E00
18000E00
E6003180
E6003180
18000E00
18000E00
E6633180
E6633180
E6633180
199CCE00
199CCE00
06633000
06633000
ENDCHAR
STARTCHAR 0120
ENCODING 288
SWIDTH 787 0
DWIDTH 35 0
BBX 29 42 3 0
BITMAP
001CC000
001CC000
00030000
00030000
001CC000
001CC000
00000000
00000000
00000000
00633198
00633198
019CCE60
019CCE60
06633198
06633198
19800000
19800000
19800000
E6000000
E6000000
18000000
18000000
E6033198
E6033198
1800CE60
1800CE60
E6033198
E6033198
E6033198
18000060
18000060
E6000198
E6000198
19800060
19800060
06633198
06633198
06633198
019CCE60
019CCE60
00633198
00633198
ENDCHAR
STARTCHAR 0121
ENCODING 289
SWIDTH 697 0
DWIDTH 31 0
BBX 25 42 3 0
BITMAP
00630000
00630000
001C0000
001C0000
00630000
00630000
00000000
00000000
00000000
06633180
06633180
199CCE00
199CCE00
E6633180
E6633180
18000000
18000000
18000000
E6000000
E6000000
18000000
18000000
E6033180
E6033180
1800CE00
1800CE00
E6033180
E6033180
E6033180
18000E00
18000E00
E6003180
E6003180
18000E00
18000E00
E6633180
E6633180
E6633180
199CCE00
199CCE00
06633000
06633000
ENDCHAR
STARTCHAR 0122
ENCODING 290
SWIDTH 787 0
DWIDTH 35 0
BBX 29 46 3 -13
BITMAP
00633198
00633198
019CCE60
019CCE60
06633198
06633198
19800000
19800000
19800000
E6000000
E6000000
18000000
18000000
E6033198
E6033198
1800CE60
1800CE60
E6033198
E6033198
E6033198
18000060
18000060
E6000198
E6000198
19800060
19800060
06633198
06633198
06633198
019CCE60
019CCE60
00633198
00633198
00000000
00000000
001CC000
001CC000
00030000
00030000
00030000
001CC000
001CC000
00030000
00030000
001C0000
001C0000
ENDCHAR
STARTCHAR 0123
ENCODING 291
SWIDTH 697 0
DWIDTH 31 0
BBX 25 46 3 -13
BITMAP
06633180
06633180
199CCE00
199CCE00
E6633180
E6633180
18000000
18000000
18000000
E6000000
E6000000
18000000
18000000
E6033180
E6033180
1800CE00
1800CE00
E6033180
E6033180
E6033180
18000E00
18000E00
E6003180
E6003180
18000E00
18000E00
E6633180
E6633180
E6633180
199CCE00
199CCE00
06633000
06633000
00000000
00000000
00630000
00630000
001C0000
001C0000
001C0000
00630000
00630000
001C0000
001C0000
00600000
00600000
ENDCHAR
STARTCHAR 0126
ENCODING 294
SWIDTH 900 0
DWIDTH 40 0
BBX 38 33 1 0
BITMAP
0660001980
0660001980
0180000600
0180000600
C66733998C
C66733998C
3998CC6670
3998CC6670
3998CC6670
C66733998C
C66733998C
0180000600
0180000600
0667339980
0667339980
0198CC6600
0198CC6600
0667339980
0667339980
0667339980
0180000600
0180000600
0660001980
0660001980
0180000600
0180000600
0660001980
0660001980
0660001980
0180000600
0180000600
0660001980
0660001980
ENDCHAR
STARTCHAR 0127
ENCODING 295
SWIDTH 787 0
DWIDTH 35 0
BBX 33 33 1 0
BITMAP
0660039800
0660039800
0180006000
0180006000
C667339980
C667339980
3998CC6600
3998CC6600
3998CC6600
C667339980
C667339980
0180006000
0180006000
0667339800
0667339800
0198CC6000
0198CC6000
0667339800
0667339800
0667339800
0180006000
0180006000
0660039800
0660039800
0180006000
0180006000
0660039800
0660039800
0660039800
0180006000
0180006000
0660039800
0660039800
ENDCHAR
STARTCHAR 0128
ENCODING 296
SWIDTH 495 0
DWIDTH 22 0
BBX 24 47 -1 0
BITMAP
0E6033
0E6033
0E6033
31980C
31980C
CE6633
CE6633
3019CC
3019CC
CE0630
CE0630
000000
000000
000000
0E6630
0E6630
0199C0
0199C0
0E6630
0E6630
001800
001800
001800
006600
006600
001800
001800
006600
006600
001800
001800
006600
006600
006600
001800
001800
006600
006600
001800
001800
0E6630
0E6630
0E6630
0199C0
0199C0
0E6630
0E6630
ENDCHAR
STARTCHAR 0129
ENCODING 297
SWIDTH 292 0
DWIDTH 13 0
BBX 25 47 -6 0
BITMAP
06703180
06703180
06703180
198C0E00
198C0E00
E6733180
E6733180
180CCE00
180CCE00
E6033000
E6033000
00000000
00000000
00000000
00730000
00730000
000C0000
000C0000
00730000
00730000
000C0000
000C0000
000C0000
00730000
00730000
000C0000
000C0000
00730000
00730000
000C0000
000C0000
00730000
00730000
00730000
000C0000
000C0000
00730000
00730000
000C0000
000C0000
00730000
00730000
00730000
000C0000
000C0000
00730000
00730000
ENDCHAR
STARTCHAR 012A
ENCODING 298
SWIDTH 495 0
DWIDTH 22 0
BBX 16 42 3 0
BITMAP
E663
E663
199C
199C
E663
E663
0000
0000
0000
E663
E663
199C
199C
E663
E663
0180
0180
0180
0660
0660
0180
0180
0660
0660
0180
0180
0660
0660
0660
0180
0180
0660
0660
0180
0180
E663
E663
E663
199C
199C
E663
E663
ENDCHAR
STARTCHAR 012B
ENCODING 299
SWIDTH 292 0
DWIDTH 13 0
BBX 15 42 -1 0
BITMAP
CE66
CE66
3198
3198
CE66
CE66
0000
0000
0000
0E60
0E60
0180
0180
0E60
0E60
0180
0180
0180
0E60
0E60
0180
0180
0E60
0E60
0180
0180
0E60
0E60
0E60
0180
0180
0E60
0E60
0180
0180
0E60
0E60
0E60
0180
0180
0E60
0E60
ENDCHAR
STARTCHAR 012E
ENCODING 302
SWIDTH 495 0
DWIDTH 22 0
BBX 20 42 3 -9
BITMAP
E66300
E66300
199C00
199C00
E66300
E66300
018000
018000
018000
066000
066000
018000
018000
066000
066000
018000
018000
066000
066000
066000
018000
018000
066000
066000
018000
018000
E66300
E66300
E66300
199C00
199C00
E66300
E66300
001C00
001C00
006330
006330
001CC0
001CC0
001CC0
000330
000330
ENDCHAR
STARTCHAR 012F
ENCODING 303
SWIDTH 292 0
DWIDTH 13 0
BBX 11 42 3 -9
BITMAP
E600
E600
1800
1800
E600
E600
1800
1800
1800
E600
E600
1800
1800
E600
E600
1800
1800
E600
E600
E600
1800
1800
E600
E600
1800
1800
E600
E600
E600
1800
1800
E600
E600
1800
1800
E660
E660
1980
1980
1980
0660
0660
ENDCHAR
STARTCHAR 0130
ENCODING 304
SWIDTH 495 0
DWIDTH 22 0
BBX 16 42 3 0
BITMAP
0660
0660
0180
0180
0660
0660
0000
0000
0000
E663
E663
199C
199C
E663
E663
0180
0180
0180
0660
0660
0180
0180
0660
0660
0180
0180
0660
0660
0660
0180
0180
0660
0660
0180
0180
E663
E663
E663
199C
199C
E663
E663
ENDCHAR
STARTCHAR 0131
ENCODING 305
SWIDTH 292 0
DWIDTH 13 0
BBX 7 33 3 0
BITMAP
E6
E6
18
18
E6
E6
18
18
18
E6
E6
18
18
E6
E6
18
18
E6
E6
E6
18
18
E6
E6
18
18
E6
E6
E6
18
18
E6
E6
ENDCHAR
STARTCHAR 0136
ENCODING 310
SWIDTH 697 0
DWIDTH 31 0
BBX 25 46 3 -13
BITMAP
E6003180
E6003180
18000E00
18000E00
E6003180
E6003180
1800CE00
1800CE00
1800CE00
E6033000
E6033000
181CC000
181CC000
E6630000
E6630000
199C0000
199C0000
E6630000
E6630000
E6630000
181CC000
181CC000
E6033000
E6033000
1800CE00
1800CE00
E6003180
E6003180
E6003180
18000E00
18000E00
E6003180
E6003180
00000000
00000000
00630000
00630000
001C0000
001C0000
001C0000
00630000
00630000
001C0000
001C0000
00600000
00600000
ENDCHAR
STARTCHAR 0137
ENCODING 311
SWIDTH 697 0
DWIDTH 31 0
BBX 25 46 3 -13
BITMAP
E6003180
E6003180
18000E00
18000E00
E6003180
E6003180
18000E00
18000E00
18000E00
E6003180
E6003180
1800CE00
1800CE00
E6633000
E6633000
199CC000
199CC000
E6633000
E6633000
E6633000
1800CE00
1800CE00
E6003180
E6003180
18000E00
18000E00
E6003180
E6003180
E6003180
18000E00
18000E00
E6003180
E6003180
00000000
00000000
00630000
00630000
001C0000
001C0000
001C0000
00630000
00630000
001C0000
001C0000
00600000
00600000
ENDCHAR
STARTCHAR 0139
ENCODING 313
SWIDTH 697 0
DWIDTH 31 0
BBX 27 47 1 0
BITMAP
00670000
00670000
00670000
01980000
01980000
06600000
06600000
39800000
39800000
C6000000
C6000000
00000000
00000000
00000000
39800000
39800000
06000000
06000000
39800000
39800000
06000000
06000000
06000000
39800000
39800000
06000000
06000000
39800000
39800000
06000000
06000000
39800000
39800000
39800000
06000000
06000000
39800000
39800000
06000000
06000000
3998CC60
3998CC60
3998CC60
06673380
06673380
0198CC60
0198CC60
ENDCHAR
STARTCHAR 013A
ENCODING 314
SWIDTH 585 0
DWIDTH 26 0
BBX 22 47 1 0
BITMAP
006700
006700
006700
019800
019800
066000
066000
398000
398000
C60000
C60000
000000
000000
000000
398000
398000
060000
060000
398000
398000
060000
060000
060000
398000
398000
060000
060000
398000
398000
060000
060000
398000
398000
398000
060000
060000
398000
398000
060000
060000
3998CC
3998CC
3998CC
066730
066730
0198CC
0198CC
ENDCHAR
STARTCHAR 013B
ENCODING 315
SWIDTH 697 0
DWIDTH 31 0
BBX 25 46 3 -13
BITMAP
E6000000
E6000000
18000000
18000000
E6000000
E6000000
18000000
18000000
18000000
E6000000
E6000000
18000000
18000000
E6000000
E6000000
18000000
18000000
E6000000
E6000000
E6000000
18000000
18000000
E6000000
E6000000
18000000
18000000
E6633180
E6633180
E6633180
199CCE00
199CCE00
06633180
06633180
00000000
00000000
00630000
00630000
001C0000
001C0000
001C0000
00630000
00630000
001C0000
001C0000
00600000
00600000
ENDCHAR
STARTCHAR 013C
ENCODING 316
SWIDTH 585 0
DWIDTH 26 0
BBX 20 46 3 -13
BITMAP
E60000
E60000
180000
180000
E60000
E60000
180000
180000
180000
E60000
E60000
180000
180000
E60000
E60000
180000
180000
E60000
E60000
E60000
180000
180000
E60000
E60000
180000
180000
E66330
E66330
E66330
199CC0
199CC0
066330
066330
000000
000000
019C00
019C00
006000
006000
006000
019C00
019C00
006000
006000
018000
018000
ENDCHAR
STARTCHAR 013D
ENCODING 317
SWIDTH 697 0
DWIDTH 31 0
BBX 25 33 3 0
BITMAP
E6003180
E6003180
18000E00
18000E00
E6003180
E6003180
18000E00
18000E00
18000E00
E6003000
E6003000
18000000
18000000
E6000000
E6000000
18000000
18000000
E6000000
E6000000
E6000000
18000000
18000000
E6000000
E6000000
18000000
18000000
E6633180
E6633180
E6633180
199CCE00
199CCE00
06633180
06633180
ENDCHAR
STARTCHAR 013E
ENCODING 318
SWIDTH 585 0
DWIDTH 26 0
BBX 20 33 3 0
BITMAP
E60330
E60330
1800C0
1800C0
E60330
E60330
1800C0
1800C0
1800C0
E60300
E60300
180000
180000
E60000
E60000
180000
180000
E60000
E60000
E60000
180000
180000
E60000
E60000
180000
180000
E66330
E66330
E66330
199CC0
199CC0
066330
066330
ENDCHAR
STARTCHAR 0141
ENCODING 321
SWIDTH 742 0
DWIDTH 33 0
BBX 29 33 1 0
BITMAP
06600000
06600000
01800000
01800000
06600000
06600000
01800000
01800000
01800000
06670000
06670000
01980000
01980000
C6670000
C6670000
39800000
39800000
C6600000
C6600000
C6600000
01800000
01800000
06600000
06600000
01800000
01800000
06673398
06673398
06673398
0198CC60
0198CC60
00673398
00673398
ENDCHAR
STARTCHAR 0142
ENCODING 322
SWIDTH 630 0
DWIDTH 28 0
BBX 25 33 1 0
BITMAP
06600000
06600000
01800000
01800000
06600000
06600000
01800000
01800000
01800000
06670000
06670000
01980000
01980000
C6670000
C6670000
39800000
39800000
C6600000
C6600000
C6600000
01800000
01800000
06600000
06600000
01800000
01800000
06673380
06673380
06673380
0198CC00
0198CC00
00673380
00673380
ENDCHAR
STARTCHAR 0143
ENCODING 323
SWIDTH 787 0
DWIDTH 35 0
BBX 29 47 3 0
BITMAP
00003180
00003180
00003180
0000CE00
0000CE00
00033000
00033000
001CC000
001CC000
00630000
00630000
00000000
00000000
00000000
E6000198
E6000198
19800060
19800060
E6600198
E6600198
199C0060
199C0060
199C0060
E6630198
E6630198
181CC060
181CC060
E6033198
E6033198
1800CE60
1800CE60
E6003198
E6003198
E6003198
18000E60
18000E60
E6000198
E6000198
18000060
18000060
E6000198
E6000198
E6000198
18000060
18000060
E6000198
E6000198
ENDCHAR
STARTCHAR 0144
ENCODING 324
SWIDTH 697 0
DWIDTH 31 0
BBX 25 47 3 0
BITMAP
0000CE00
0000CE00
0000CE00
00033000
00033000
001CC000
001CC000
00630000
00630000
019C0000
019C0000
00000000
00000000
00000000
E6003180
E6003180
19800E00
19800E00
E6603180
E6603180
199C0E00
199C0E00
199C0E00
E6633180
E6633180
181CCE00
181CCE00
E6033180
E6033180
1800CE00
1800CE00
E6003180
E6003180
E6003180
18000E00
18000E00
E6003180
E6003180
18000E00
18000E00
E6003180
E6003180
E6003180
18000E00
18000E00
E6003180
E6003180
ENDCHAR
STARTCHAR 0145
ENCODING 325
SWIDTH 787 0
DWIDTH 35 0
BBX 29 46 3 -13
BITMAP
E6000198
E6000198
19800060
19800060
E6600198
E6600198
199C0060
199C0060
199C0060
E6630198
E6630198
181CC060
181CC060
E6033198
E6033198
1800CE60
1800CE60
E6003198
E6003198
E6003198
18000E60
18000E60
E6000198
E6000198
18000060
18000060
E6000198
E6000198
E6000198
18000060
18000060
E6000198
E6000198
00000000
00000000
001CC000
001CC000
00030000
00030000
00030000
001CC000
001CC000
00030000
00030000
001C0000
001C0000
ENDCHAR
STARTCHAR 0146
ENCODING 326
SWIDTH 697 0
DWIDTH 31 0
BBX 25 46 3 -13
BITMAP
E6003180
E6003180
19800E00
19800E00
E6603180
E6603180
199C0E00
199C0E00
199C0E00
E6633180
E6633180
181CCE00
181CCE00
E6033180
E6033180
1800CE00
1800CE00
E6003180
E6003180
E6003180
18000E00
18000E00
E6003180
E6003180
18000E00
18000E00
E6003180
E6003180
E6003180
18000E00
18000E00
E6003180
E6003180
00000000
00000000
00630000
00630000
001C0000
001C0000
001C0000
00630000
00630000
001C0000
001C0000
00600000
00600000
ENDCHAR
STARTCHAR 0147
ENCODING 327
SWIDTH 787 0
DWIDTH 35 0
BBX 29 47 3 0
BITMAP
019CCE00
019CCE00
019CCE00
00603000
00603000
019CCE00
019CCE00
00633000
00633000
001CC000
001CC000
00000000
00000000
00000000
E6000198
E6000198
19800060
19800060
E6600198
E6600198
199C0060
199C0060
199C0060
E6630198
E6630198
181CC060
181CC060
E6033198
E6033198
1800CE60
1800CE60
E6003198
E6003198
E6003198
18000E60
18000E60
E6000198
E6000198
18000060
18000060
E6000198
E6000198
E6000198
18000060
18000060
E6000198
E6000198
ENDCHAR
STARTCHAR 0148
ENCODING 328
SWIDTH 697 0
DWIDTH 31 0
BBX 25 47 3 0
BITMAP
06633000
06633000
06633000
0180C000
0180C000
06633000
06633000
019CC000
019CC000
00630000
00630000
00000000
00000000
00000000
E6003180
E6003180
19800E00
19800E00
E6603180
E6603180
199C0E00
199C0E00
199C0E00
E6633180
E6633180
181CCE00
181CCE00
E6033180
E6033180
1800CE00
1800CE00
E6003180
E6003180
E6003180
18000E00
18000E00
E6003180
E6003180
18000E00
18000E00
E6003180
E6003180
E6003180
18000E00
18000E00
E6003180
E6003180
ENDCHAR
STARTCHAR 014A
ENCODING 330
SWIDTH 787 0
DWIDTH 35 0
BBX 29 42 3 -9
BITMAP
E6000198
E6000198
19800060
19800060
E6600198
E6600198
199C0060
199C0060
199C0060
E6630198
E6630198
181CC060
181CC060
E6033198
E6033198
1800CE60
1800CE60
E6003198
E6003198
E6003198
18000E60
18000E60
E6000198
E6000198
18000060
18000060
E6000198
E6000198
E6000198
18000060
18000060
E6000198
E6000198
00000060
00000060
00003198
00003198
00000E60
00000E60
00000E60
00003180
00003180
ENDCHAR
STARTCHAR 014B
ENCODING 331
SWIDTH 697 0
DWIDTH 31 0
BBX 25 42 3 -9
BITMAP
E6003180
E6003180
19800E00
19800E00
E6603180
E6603180
199C0E00
199C0E00
199C0E00
E6633180
E6633180
181CCE00
181CCE00
E6033180
E6033180
1800CE00
1800CE00
E6003180
E6003180
E6003180
18000E00
18000E00
E6003180
E6003180
18000E00
18000E00
E6003180
E6003180
E6003180
18000E00
18000E00
E6003180
E6003180
00000E00
00000E00
00033180
00033180
0000CE00
0000CE00
0000CE00
00033000
00033000
ENDCHAR
STARTCHAR 014C
ENCODING 332
SWIDTH 787 0
DWIDTH 35 0
BBX 29 42 3 0
BITMAP
019CCE00
019CCE00
00633000
00633000
019CCE00
019CCE00
00000000
00000000
00000000
00633000
00633000
019CCE00
019CCE00
06633180
06633180
19800E60
19800E60
19800E60
E6000198
E6000198
18000060
18000060
E6000198
E6000198
18000060
18000060
E6000198
E6000198
E6000198
18000060
18000060
E6000198
E6000198
19800E60
19800E60
06633180
06633180
06633180
019CCE00
019CCE00
00633000
00633000
ENDCHAR
STARTCHAR 014D
ENCODING 333
SWIDTH 697 0
DWIDTH 31 0
BBX 25 42 3 0
BITMAP
06633000
06633000
019CC000
019CC000
06633000
06633000
00000000
00000000
00000000
06633000
06633000
199CCE00
199CCE00
E6633180
E6633180
18000E00
18000E00
18000E00
E6003180
E6003180
18000E00
18000E00
E6003180
E6003180
18000E00
18000E00
E6003180
E6003180
E6003180
18000E00
18000E00
E6003180
E6003180
18000E00
18000E00
E6633180
E6633180
E6633180
199CCE00
199CCE00
06633000
06633000
ENDCHAR
STARTCHAR 0150
ENCODING 336
SWIDTH 787 0
DWIDTH 35 0
BBX 31 47 3 0
BITMAP
001CC066
001CC066
001CC066
00630198
00630198
019C0E60
019C0E60
06603180
06603180
1980CE00
1980CE00
00000000
00000000
00000000
00633000
00633000
019CCE00
019CCE00
06633180
06633180
19800E60
19800E60
19800E60
E6000198
E6000198
18000060
18000060
E6000198
E6000198
18000060
18000060
E6000198
E6000198
E6000198
18000060
18000060
E6000198
E6000198
19800E60
19800E60
06633180
06633180
06633180
019CCE00
019CCE00
00633000
00633000
ENDCHAR
STARTCHAR 0151
ENCODING 337
SWIDTH 697 0
DWIDTH 31 0
BBX 29 47 3 0
BITMAP
00630198
00630198
00630198
019C0E60
019C0E60
06603180
06603180
1980CE00
1980CE00
E6033000
E6033000
00000000
00000000
00000000
06633000
06633000
199CCE00
199CCE00
E6633180
E6633180
18000E00
18000E00
18000E00
E6003180
E6003180
18000E00
18000E00
E6003180
E6003180
18000E00
18000E00
E6003180
E6003180
E6003180
18000E00
18000E00
E6003180
E6003180
18000E00
18000E00
E6633180
E6633180
E6633180
199CCE00
199CCE00
06633000
06633000
ENDCHAR
STARTCHAR 0152
ENCODING 338
SWIDTH 1192 0
DWIDTH 53 0
BBX 47 33 3 0
BITMAP
00633001CCE6
00633001CCE6
019CCE063318
019CCE063318
06633199CCE6
06633199CCE6
19800E660000
19800E660000
19800E660000
E60001980000
E60001980000
180000600000
180000600000
E6000199CCE0
E6000199CCE0
180000663300
180000663300
E6000199CCE0
E6000199CCE0
E6000199CCE0
180000600000
180000600000
E60001980000
E60001980000
19800E660000
19800E660000
06633199CCE6
06633199CCE6
06633199CCE6
019CCE063318
019CCE063318
00633001CCE6
00633001CCE6
ENDCHAR
STARTCHAR 0153
ENCODING 339
SWIDTH 1080 0
DWIDTH 48 0
BBX 43 33 3 0
BITMAP
06633199CCE0
06633199CCE0
199CCE663300
199CCE663300
E6633199CCE0
E6633199CCE0
18000E000000
18000E000000
18000E000000
E60031800000
E60031800000
18000E000000
18000E000000
E6003199CC00
E6003199CC00
18000E663000
18000E663000
E6003199CC00
E6003199CC00
E6003199CC00
18000E000000
18000E000000
E60031800000
E60031800000
18000E000000
18000E000000
E6633199CCE0
E6633199CCE0
E6633199CCE0
199CCE663300
199CCE663300
06633199CCE0
06633199CCE0
ENDCHAR
STARTCHAR 0154
ENCODING 340
SWIDTH 697 0
DWIDTH 31 0
BBX 25 47 3 0
BITMAP
0000CE00
0000CE00
0000CE00
00033000
00033000
001CC000
001CC000
00630000
00630000
019C0000
019C0000
00000000
00000000
00000000
E6630000
E6630000
199CC000
199CC000
E6633000
E6633000
1800CE00
1800CE00
1800CE00
E6003180
E6003180
18000E00
18000E00
E6003180
E6003180
18000E00
18000E00
E6003180
E6003180
E6003180
1800CE00
1800CE00
E6633000
E6633000
199CC000
199CC000
E6633000
E6633000
E6633000
1800CE00
1800CE00
E6003180
E6003180
ENDCHAR
STARTCHAR 0155
ENCODING 341
SWIDTH 697 0
DWIDTH 31 0
BBX 25 47 3 0
BITMAP
0000CE00
0000CE00
0000CE00
00033000
00033000
001CC000
001CC000
00630000
00630000
019C0000
019C0000
00000000
00000000
00000000
E6633000
E6633000
199CCE00
199CCE00
E6633180
E6633180
18000E00
18000E00
18000E00
E6003180
E6003180
18000E00
18000E00
E6003180
E6003180
18000E00
18000E00
E6633180
E6633180
E6633180
199CCE00
199CCE00
E6633000
E6633000
1800CE00
1800CE00
E6003180
E6003180
E6003180
18000E00
18000E00
E6003180
E6003180
ENDCHAR
STARTCHAR 0156
ENCODING 342
SWIDTH 697 0
DWIDTH 31 0
BBX 25 46 3 -13
BITMAP
E6630000
E6630000
199CC000
199CC000
E6633000
E6633000
1800CE00
1800CE00
1800CE00
E6003180
E6003180
18000E00
18000E00
E6003180
E6003180
18000E00
18000E00
E6003180
E6003180
E6003180
1800CE00
1800CE00
E6633000
E6633000
199CC000
199CC000
E6633000
E6633000
E6633000
1800CE00
1800CE00
E6003180
E6003180
00000000
00000000
00630000
00630000
001C0000
001C0000
001C0000
00630000
00630000
001C0000
001C0000
00600000
00600000
ENDCHAR
STARTCHAR 0157
ENCODING 343
SWIDTH 697 0
DWIDTH 31 0
BBX 25 46 3 -13
BITMAP
E6633000
E6633000
199CCE00
199CCE00
E6633180
E6633180
18000E00
18000E00
18000E00
E6003180
E6003180
18000E00
18000E00
E6003180
E6003180
18000E00
18000E00
E6633180
E6633180
E6633180
199CCE00
199CCE00
E6633000
E6633000
1800CE00
1800CE00
E6003180
E6003180
E6003180
18000E00
18000E00
E6003180
E6003180
00000000
00000000
00630000
00630000
001C0000
001C0000
001C0000
00630000
00630000
001C0000
001C0000
00600000
00600000
ENDCHAR
STARTCHAR 0158
ENCODING 344
SWIDTH 697 0
DWIDTH 31 0
BBX 25 47 3 0
BITMAP
06633000
06633000
06633000
0180C000
0180C000
06633000
06633000
019CC000
019CC000
00630000
00630000
00000000
00000000
00000000
E6630000
E6630000
199CC000
199CC000
E6633000
E6633000
1800CE00
1800CE00
1800CE00
E6003180
E6003180
18000E00
18000E00
E6003180
E6003180
18000E00
18000E00
E6003180
E6003180
E6003180
1800CE00
1800CE00
E6633000
E6633000
199CC000
199CC000
E6633000
E6633000
E6633000
1800CE00
1800CE00
E6003180
E6003180
ENDCHAR
STARTCHAR 0159
ENCODING 345
SWIDTH 697 0
DWIDTH 31 0
BBX 25 47 3 0
BITMAP
06633000
06633000
06633000
0180C000
0180C000
06633000
06633000
019CC000
019CC000
00630000
00630000
00000000
00000000
00000000
E6633000
E6633000
199CCE00
199CCE00
E6633180
E6633180
18000E00
18000E00
18000E00
E6003180
E6003180
18000E00
18000E00
E6003180
E6003180
18000E00
18000E00
E6633180
E6633180
E6633180
199CCE00
199CCE00
E6633000
E6633000
1800CE00
1800CE00
E6003180
E6003180
E6003180
18000E00
18000E00
E6003180
E6003180
ENDCHAR
STARTCHAR 015A
ENCODING 346
SWIDTH 697 0
DWIDTH 31 0
BBX 25 47 3 0
BITMAP
0000CE00
0000CE00
0000CE00
00033000
00033000
001CC000
001CC000
00630000
00630000
019C0000
019C0000
00000000
00000000
00000000
06633000
06633000
199CCE00
199CCE00
E6633180
E6633180
18000E00
18000E00
18000E00
E6003180
E6003180
18000000
18000000
E6633000
E6633000
199CCE00
199CCE00
06633180
06633180
06633180
00000E00
00000E00
E6003180
E6003180
18000E00
18000E00
E6633180
E6633180
E6633180
199CCE00
199CCE00
06633000
06633000
ENDCHAR
STARTCHAR 015B
ENCODING 347
SWIDTH 697 0
DWIDTH 31 0
BBX 25 47 3 0
BITMAP
0000CE00
0000CE00
0000CE00
00033000
00033000
001CC000
001CC000
00630000
00630000
019C0000
019C0000
00000000
00000000
00000000
06633000
06633000
199CCE00
199CCE00
E6633180
E6633180
18000E00
18000E00
18000E00
E6003180
E6003180
18000000
18000000
E6633000
E6633000
199CCE00
199CCE00
06633180
06633180
06633180
00000E00
00000E00
E6003180
E6003180
18000E00
18000E00
E6633180
E6633180
E6633180
199CCE00
199CCE00
06633000
06633000
ENDCHAR
STARTCHAR 015E
ENCODING 350
SWIDTH 697 0
DWIDTH 31 0
BBX 25 42 3 -9
BITMAP
06633000
06633000
199CCE00
199CCE00
E6633180
E6633180
18000E00
18000E00
18000E00
E6003180
E6003180
18000000
18000000
E6633000
E6633000
199CCE00
199CCE00
06633180
06633180
06633180
00000E00
00000E00
E6003180
E6003180
18000E00
18000E00
E6633180
E6633180
E6633180
199CCE00
199CCE00
06633000
06633000
001C0000
001C0000
06630000
06630000
019C0000
019C0000
019C0000
06600000
06600000
ENDCHAR
STARTCHAR 015F
ENCODING 351
SWIDTH 697 0
DWIDTH 31 0
BBX 25 42 3 -9
BITMAP
06633000
06633000
199CCE00
199CCE00
E6633180
E6633180
18000E00
18000E00
18000E00
E6003180
E6003180
18000000
18000000
E6633000
E6633000
199CCE00
199CCE00
06633180
06633180
06633180
00000E00
00000E00
E6003180
E6003180
18000E00
18000E00
E6633180
E6633180
E6633180
199CCE00
199CCE00
06633000
06633000
001C0000
001C0000
06630000
06630000
019C0000
019C0000
019C0000
06600000
06600000
ENDCHAR
STARTCHAR 0160
ENCODING 352
SWIDTH 697 0
DWIDTH 31 0
BBX 25 47 3 0
BITMAP
06633000
06633000
06633000
0180C000
0180C000
06633000
06633000
019CC000
019CC000
00630000
00630000
00000000
00000000
00000000
06633000
06633000
199CCE00
199CCE00
E6633180
E6633180
18000E00
18000E00
18000E00
E6003180
E6003180
18000000
18000000
E6633000
E6633000
199CCE00
199CCE00
06633180
06633180
06633180
00000E00
00000E00
E6003180
E6003180
18000E00
18000E00
E6633180
E6633180
E6633180
199CCE00
199CCE00
06633000
06633000
ENDCHAR
STARTCHAR 0161
ENCODING 353
SWIDTH 697 0
DWIDTH 31 0
BBX 25 47 3 0
BITMAP
06633000
06633000
06633000
0180C000
0180C000
06633000
06633000
019CC000
019CC000
00630000
00630000
00000000
00000000
00000000
06633000
06633000
199CCE00
199CCE00
E6633180
E6633180
18000E00
18000E00
18000E00
E6003180
E6003180
18000000
18000000
E6633000
E6633000
199CCE00
199CCE00
06633180
06633180
06633180
00000E00
00000E00
E6003180
E6003180
18000E00
18000E00
E6633180
E6633180
E6633180
199CCE00
199CCE00
06633000
06633000
ENDCHAR
STARTCHAR 0162
ENCODING 354
SWIDTH 697 0
DWIDTH 31 0
BBX 25 42 3 -9
BITMAP
E6633180
E6633180
199CCE00
199CCE00
E6633180
E6633180
001C0000
001C0000
001C0000
00630000
00630000
001C0000
001C0000
00630000
00630000
001C0000
001C0000
00630000
00630000
00630000
001C0000
001C0000
00630000
00630000
001C0000
001C0000
00630000
00630000
00630000
001C0000
001C0000
00630000
00630000
001C0000
001C0000
06630000
06630000
019C0000
019C0000
019C0000
06600000
06600000
ENDCHAR
STARTCHAR 0163
ENCODING 355
SWIDTH 697 0
DWIDTH 31 0
BBX 25 42 3 -9
BITMAP
E6633180
E6633180
199CCE00
199CCE00
E6633180
E6633180
001C0000
001C0000
001C0000
00630000
00630000
001C0000
001C0000
00630000
00630000
001C0000
001C0000
00630000
00630000
00630000
001C0000
001C0000
00630000
00630000
001C0000
001C0000
00630000
00630000
00630000
001C0000
001C0000
00630000
00630000
001C0000
001C0000
06630000
06630000
019C0000
019C0000
019C0000
06600000
06600000
ENDCHAR
STARTCHAR 0164
ENCODING 356
SWIDTH 697 0
DWIDTH 31 0
BBX 25 47 3 0
BITMAP
06633000
06633000
06633000
0180C000
0180C000
06633000
06633000
019CC000
019CC000
00630000
00630000
00000000
00000000
00000000
E6633180
E6633180
199CCE00
199CCE00
E6633180
E6633180
001C0000
001C0000
001C0000
00630000
00630000
001C0000
001C0000
00630000
00630000
001C0000
001C0000
00630000
00630000
00630000
001C0000
001C0000
00630000
00630000
001C0000
001C0000
00630000
00630000
00630000
001C0000
001C0000
00630000
00630000
ENDCHAR
STARTCHAR 0165
ENCODING 357
SWIDTH 697 0
DWIDTH 31 0
BBX 25 47 3 0
BITMAP
06633000
06633000
06633000
0180C000
0180C000
06633000
06633000
019CC000
019CC000
00630000
00630000
00000000
00000000
00000000
E6633180
E6633180
199CCE00
199CCE00
E6633180
E6633180
001C0000
001C0000
001C0000
00630000
00630000
001C0000
001C0000
00630000
00630000
001C0000
001C0000
00630000
00630000
00630000
001C0000
001C0000
00630000
00630000
001C0000
001C0000
00630000
00630000
00630000
001C0000
001C0000
00630000
00630000
ENDCHAR
STARTCHAR 0166
ENCODING 358
SWIDTH 697 0
DWIDTH 31 0
BBX 25 33 3 0
BITMAP
E6633180
E6633180
199CCE00
199CCE00
E6633180
E6633180
001C0000
001C0000
001C0000
00630000
00630000
001C0000
001C0000
06633000
06633000
019CC000
019CC000
06633000
06633000
06633000
001C0000
001C0000
00630000
00630000
001C0000
001C0000
00630000
00630000
00630000
001C0000
001C0000
00630000
00630000
ENDCHAR
STARTCHAR 0167
ENCODING 359
SWIDTH 697 0
DWIDTH 31 0
BBX 25 33 3 0
BITMAP
E6633180
E6633180
199CCE00
199CCE00
E6633180
E6633180
001C0000
001C0000
001C0000
00630000
00630000
001C0000
001C0000
06633000
06633000
019CC000
019CC000
06633000
06633000
06633000
001C0000
001C0000
00630000
00630000
001C0000
001C0000
00630000
00630000
00630000
001C0000
001C0000
00630000
00630000
ENDCHAR
STARTCHAR 0168
ENCODING 360
SWIDTH 787 0
DWIDTH 35 0
BBX 29 47 3 0
BITMAP
019C0E60
019C0E60
019C0E60
06630180
06630180
199CCE60
199CCE60
06033180
06033180
1980CE00
1980CE00
00000000
00000000
00000000
E6000198
E6000198
18000060
18000060
E6000198
E6000198
18000060
18000060
18000060
E6000198
E6000198
18000060
18000060
E6000198
E6000198
18000060
18000060
E6000198
E6000198
E6000198
18000060
18000060
E6000198
E6000198
19800E60
19800E60
06633180
06633180
06633180
019CCE00
019CCE00
00633000
00633000
ENDCHAR
STARTCHAR 0169
ENCODING 361
SWIDTH 697 0
DWIDTH 31 0
BBX 25 47 3 0
BITMAP
06603180
06603180
06603180
199C0E00
199C0E00
E6633180
E6633180
181CCE00
181CCE00
E6033000
E6033000
00000000
00000000
00000000
E6003180
E6003180
18000E00
18000E00
E6003180
E6003180
18000E00
18000E00
18000E00
E6003180
E6003180
18000E00
18000E00
E6003180
E6003180
18000E00
18000E00
E6003180
E6003180
E6003180
18000E00
18000E00
E6003180
E6003180
18000E00
18000E00
E6633180
E6633180
E6633180
199CCE00
199CCE00
06633000
06633000
ENDCHAR
STARTCHAR 016A
ENCODING 362
SWIDTH 787 0
DWIDTH 35 0
BBX 29 42 3 0
BITMAP
019CCE00
019CCE00
00633000
00633000
019CCE00
019CCE00
00000000
00000000
00000000
E6000198
E6000198
18000060
18000060
E6000198
E6000198
18000060
18000060
18000060
E6000198
E6000198
18000060
18000060
E6000198
E6000198
18000060
18000060
E6000198
E6000198
E6000198
18000060
18000060
E6000198
E6000198
19800E60
19800E60
06633180
06633180
06633180
019CCE00
019CCE00
00633000
00633000
ENDCHAR
STARTCHAR 016B
ENCODING 363
SWIDTH 697 0
DWIDTH 31 0
BBX 25 42 3 0
BITMAP
06633000
06633000
019CC000
019CC000
06633000
06633000
00000000
00000000
00000000
E6003180
E6003180
18000E00
18000E00
E6003180
E6003180
18000E00
18000E00
18000E00
E6003180
E6003180
18000E00
18000E00
E6003180
E6003180
18000E00
18000E00
E6003180
E6003180
E6003180
18000E00
18000E00
E6003180
E6003180
18000E00
18000E00
E6633180
E6633180
E6633180
199CCE00
199CCE00
06633000
06633000
ENDCHAR
STARTCHAR 016E
ENCODING 366
SWIDTH 787 0
DWIDTH 35 0
BBX 29 56 3 0
BITMAP
00633000
00633000
00633000
019CCE00
019CCE00
06633180
06633180
01800E00
01800E00
06603180
06603180
06603180
01800E00
01800E00
06633180
06633180
019CCE00
019CCE00
00633000
00633000
00000000
00000000
00000000
E6000198
E6000198
18000060
18000060
E6000198
E6000198
18000060
18000060
18000060
E6000198
E6000198
18000060
18000060
E6000198
E6000198
18000060
18000060
E6000198
E6000198
E6000198
18000060
18000060
E6000198
E6000198
19800E60
19800E60
06633180
06633180
06633180
019CCE00
019CCE00
00633000
00633000
ENDCHAR
STARTCHAR 016F
ENCODING 367
SWIDTH 697 0
DWIDTH 31 0
BBX 25 56 3 0
BITMAP
019CC000
019CC000
019CC000
06633000
06633000
199CCE00
199CCE00
06003000
06003000
1980CE00
1980CE00
1980CE00
06003000
06003000
199CCE00
199CCE00
06633000
06633000
019CC000
019CC000
00000000
00000000
00000000
E6003180
E6003180
18000E00
18000E00
E6003180
E6003180
18000E00
18000E00
18000E00
E6003180
E6003180
18000E00
18000E00
E6003180
E6003180
18000E00
18000E00
E6003180
E6003180
E6003180
18000E00
18000E00
E6003180
E6003180
18000E00
18000E00
E6633180
E6633180
E6633180
199CCE00
199CCE00
06633000
06633000
ENDCHAR
STARTCHAR 0170
ENCODING 368
SWIDTH 787 0
DWIDTH 35 0
BBX 31 47 3 0
BITMAP
001CC066
001CC066
001CC066
00630198
00630198
019C0E60
019C0E60
06603180
06603180
1980CE00
1980CE00
00000000
00000000
00000000
E6000198
E6000198
18000060
18000060
E6000198
E6000198
18000060
18000060
18000060
E6000198
E6000198
18000060
18000060
E6000198
E6000198
18000060
18000060
E6000198
E6000198
E6000198
18000060
18000060
E6000198
E6000198
19800E60
19800E60
06633180
06633180
06633180
019CCE00
019CCE00
00633000
00633000
ENDCHAR
STARTCHAR 0171
ENCODING 369
SWIDTH 697 0
DWIDTH 31 0
BBX 29 47 3 0
BITMAP
00630198
00630198
00630198
019C0E60
019C0E60
06603180
06603180
1980CE00
1980CE00
E6033000
E6033000
00000000
00000000
00000000
E6003180
E6003180
18000E00
18000E00
E6003180
E6003180
18000E00
18000E00
18000E00
E6003180
E6003180
18000E00
18000E00
E6003180
E6003180
18000E00
18000E00
E6003180
E6003180
E6003180
18000E00
18000E00
E6003180
E6003180
18000E00
18000E00
E6633180
E6633180
E6633180
199CCE00
199CCE00
06633000
06633000
ENDCHAR
STARTCHAR 0172
ENCODING 370
SWIDTH 787 0
DWIDTH 35 0
BBX 29 42 3 -9
BITMAP
E6000198
E6000198
18000060
18000060
E6000198
E6000198
18000060
18000060
18000060
E6000198
E6000198
18000060
18000060
E6000198
E6000198
18000060
18000060
E6000198
E6000198
E6000198
18000060
18000060
E6000198
E6000198
19800E60
19800E60
06633180
06633180
06633180
019CCE00
019CCE00
00633000
00633000
0000C000
0000C000
00033180
00033180
0000CE00
0000CE00
0000CE00
00003180
00003180
ENDCHAR
STARTCHAR 0173
ENCODING 371
SWIDTH 697 0
DWIDTH 31 0
BBX 25 42 3 -9
BITMAP
E6003180
E6003180
18000E00
18000E00
E6003180
E6003180
18000E00
18000E00
18000E00
E6003180
E6003180
18000E00
18000E00
E6003180
E6003180
18000E00
18000E00
E6003180
E6003180
E6003180
18000E00
18000E00
E6003180
E6003180
18000E00
18000E00
E6633180
E6633180
E6633180
199CCE00
199CCE00
06633000
06633000
0000C000
0000C000
00033180
00033180
0000CE00
0000CE00
0000CE00
00003180
00003180
ENDCHAR
STARTCHAR 0174
ENCODING 372
SWIDTH 1080 0
DWIDTH 48 0
BBX 43 47 3 0
BITMAP
000031800000
000031800000
000031800000
0000CE600000
0000CE600000
000331980000
000331980000
0000C0600000
0000C0600000
000331980000
000331980000
000000000000
000000000000
000000000000
E60031800CE0
E60031800CE0
18000E000300
18000E000300
E60031800CE0
E60031800CE0
18000E000300
18000E000300
18000E000300
E60031800CE0
E60031800CE0
18000E000300
18000E000300
E60031800CE0
E60031800CE0
18000E000300
18000E000300
E60031800CE0
E60031800CE0
E60031800CE0
18000E000300
18000E000300
E60031800CE0
E60031800CE0
1980CE603300
1980CE603300
06633199CC00
06633199CC00
06633199CC00
019CC0663000
019CC0663000
00630019C000
00630019C000
ENDCHAR
STARTCHAR 0175
ENCODING 373
SWIDTH 1080 0
DWIDTH 48 0
BBX 43 47 3 0
BITMAP
000031800000
000031800000
000031800000
0000CE600000
0000CE600000
000331980000
000331980000
0000C0600000
0000C0600000
000331980000
000331980000
000000000000
000000000000
000000000000
E60031800CE0
E60031800CE0
18000E000300
18000E000300
E60031800CE0
E60031800CE0
18000E000300
18000E000300
18000E000300
E60031800CE0
E60031800CE0
18000E000300
18000E000300
E60031800CE0
E60031800CE0
18000E000300
18000E000300
E60031800CE0
E60031800CE0
E60031800CE0
18000E000300
18000E000300
E60031800CE0
E60031800CE0
1800CE600300
1800CE600300
E6633199CCE0
E6633199CCE0
E6633199CCE0
199CC0663300
199CC0663300
06630019CC00
06630019CC00
ENDCHAR
STARTCHAR 0176
ENCODING 374
SWIDTH 697 0
DWIDTH 31 0
BBX 25 47 3 0
BITMAP
00630000
00630000
00630000
019CC000
019CC000
06633000
06633000
0180C000
0180C000
06633000
06633000
00000000
00000000
00000000
E6003180
E6003180
18000E00
18000E00
E6003180
E6003180
18000E00
18000E00
18000E00
E6003180
E6003180
18000E00
18000E00
E6003180
E6003180
1980CE00
1980CE00
06633000
06633000
06633000
019CC000
019CC000
00630000
00630000
001C0000
001C0000
00630000
00630000
00630000
001C0000
001C0000
00630000
00630000
ENDCHAR
STARTCHAR 0177
ENCODING 375
SWIDTH 697 0
DWIDTH 31 0
BBX 25 47 3 0
BITMAP
00630000
00630000
00630000
019CC000
019CC000
06633000
06633000
0180C000
0180C000
06633000
06633000
00000000
00000000
00000000
E6003180
E6003180
18000E00
18000E00
E6003180
E6003180
18000E00
18000E00
18000E00
E6003180
E6003180
18000E00
18000E00
E6003180
E6003180
18000E00
18000E00
E6633180
E6633180
E6633180
199CCE00
199CCE00
06633000
06633000
001C0000
001C0000
00630000
00630000
00630000
001C0000
001C0000
00630000
00630000
ENDCHAR
STARTCHAR 0178
ENCODING 376
SWIDTH 697 0
DWIDTH 31 0
BBX 25 42 3 0
BITMAP
06633000
06633000
0180C000
0180C000
06633000
06633000
00000000
00000000
00000000
E6003180
E6003180
18000E00
18000E00
E6003180
E6003180
18000E00
18000E00
18000E00
E6003180
E6003180
18000E00
18000E00
E6003180
E6003180
1980CE00
1980CE00
06633000
06633000
06633000
019CC000
019CC000
00630000
00630000
001C0000
001C0000
00630000
00630000
00630000
001C0000
001C0000
00630000
00630000
ENDCHAR
STARTCHAR 0179
ENCODING 377
SWIDTH 697 0
DWIDTH 31 0
BBX 25 47 3 0
BITMAP
0000CE00
0000CE00
0000CE00
00033000
00033000
001CC000
001CC000
00630000
00630000
019C0000
019C0000
00000000
00000000
00000000
E6633180
E6633180
199CCE00
199CCE00
E6633180
E6633180
0000CE00
0000CE00
0000CE00
00033000
00033000
001CC000
001CC000
00630000
00630000
019C0000
019C0000
06600000
06600000
06600000
19800000
19800000
E6000000
E6000000
18000000
18000000
E6633180
E6633180
E6633180
199CCE00
199CCE00
E6633180
E6633180
ENDCHAR
STARTCHAR 017A
ENCODING 378
SWIDTH 697 0
DWIDTH 31 0
BBX 25 47 3 0
BITMAP
0000CE00
0000CE00
0000CE00
00033000
00033000
001CC000
001CC000
00630000
00630000
019C0000
019C0000
00000000
00000000
00000000
E6633180
E6633180
199CCE00
199CCE00
E6633180
E6633180
00000E00
00000E00
00000E00
00003180
00003180
00000E00
00000E00
06633180
06633180
199CCE00
199CCE00
E6633000
E6633000
E6633000
18000000
18000000
E6000000
E6000000
18000000
18000000
E6633180
E6633180
E6633180
199CCE00
199CCE00
E6633180
E6633180
ENDCHAR
STARTCHAR 017B
ENCODING 379
SWIDTH 697 0
DWIDTH 31 0
BBX 25 42 3 0
BITMAP
00630000
00630000
001C0000
001C0000
00630000
00630000
00000000
00000000
00000000
E6633180
E6633180
199CCE00
199CCE00
E6633180
E6633180
0000CE00
0000CE00
0000CE00
00033000
00033000
001CC000
001CC000
00630000
00630000
019C0000
019C0000
06600000
06600000
06600000
19800000
19800000
E6000000
E6000000
18000000
18000000
E6633180
E6633180
E6633180
199CCE00
199CCE00
E6633180
E6633180
ENDCHAR
STARTCHAR 017C
ENCODING 380
SWIDTH 697 0
DWIDTH 31 0
BBX 25 42 3 0
BITMAP
00630000
00630000
001C0000
001C0000
00630000
00630000
00000000
00000000
00000000
E6633180
E6633180
199CCE00
199CCE00
E6633180
E6633180
00000E00
00000E00
00000E00
00003180
00003180
00000E00
00000E00
06633180
06633180
199CCE00
199CCE00
E6633000
E6633000
E6633000
18000000
18000000
E6000000
E6000000
18000000
18000000
E6633180
E6633180
E6633180
199CCE00
199CCE00
E6633180
E6633180
ENDCHAR
STARTCHAR 017D
ENCODING 381
SWIDTH 697 0
DWIDTH 31 0
BBX 25 47 3 0
BITMAP
06633000
06633000
06633000
0180C000
0180C000
06633000
06633000
019CC000
019CC000
00630000
00630000
00000000
00000000
00000000
E6633180
E6633180
199CCE00
199CCE00
E6633180
E6633180
0000CE00
0000CE00
0000CE00
00033000
00033000
001CC000
001CC000
00630000
00630000
019C0000
019C0000
06600000
06600000
06600000
19800000
19800000
E6000000
E6000000
18000000
18000000
E6633180
E6633180
E6633180
199CCE00
199CCE00
E6633180
E6633180
ENDCHAR
STARTCHAR 017E
ENCODING 382
SWIDTH 697 0
DWIDTH 31 0
BBX 25 47 3 0
BITMAP
06633000
06633000
06633000
0180C000
0180C000
06633000
06633000
019CC000
019CC000
00630000
00630000
00000000
00000000
00000000
E6633180
E6633180
199CCE00
199CCE00
E6633180
E6633180
00000E00
00000E00
00000E00
00003180
00003180
00000E00
00000E00
06633180
06633180
199CCE00
199CCE00
E6633000
E6633000
E6633000
18000000
18000000
E6000000
E6000000
18000000
18000000
E6633180
E6633180
E6633180
199CCE00
199CCE00
E6633180
E6633180
ENDCHAR
STARTCHAR 0192
ENCODING 402
SWIDTH 697 0
DWIDTH 31 0
BBX 25 42 3 -9
BITMAP
00033180
00033180
001CCE00
001CCE00
00633180
00633180
001C0000
001C0000
001C0000
00630000
00630000
001C0000
001C0000
06633000
06633000
019CC000
019CC000
06633000
06633000
06633000
001C0000
001C0000
00630000
00630000
001C0000
001C0000
00630000
00630000
00630000
001C0000
001C0000
00630000
00630000
001C0000
001C0000
E6630000
E6630000
199C0000
199C0000
199C0000
E6600000
E6600000
ENDCHAR
STARTCHAR 01A0
ENCODING 416
SWIDTH 945 0
DWIDTH 42 0
BBX 38 38 3 0
BITMAP
00000001CC
00000001CC
0000000030
0000000030
0000000030
06633199CC
06633199CC
199CCE6630
199CCE6630
E6633199C0
E6633199C0
1800006000
1800006000
1800006000
E600019800
E600019800
1800006000
1800006000
E600019800
E600019800
1800006000
1800006000
E600019800
E600019800
E600019800
1800006000
1800006000
E600019800
E600019800
1800006000
1800006000
E663319800
E663319800
E663319800
199CCE6000
199CCE6000
0663318000
0663318000
ENDCHAR
STARTCHAR 01A1
ENCODING 417
SWIDTH 832 0
DWIDTH 37 0
BBX 34 38 3 0
BITMAP
00000019C0
00000019C0
0000000600
0000000600
0000000600
06633199C0
06633199C0
199CCE6600
199CCE6600
E663319800
E663319800
18000E0000
18000E0000
18000E0000
E600318000
E600318000
18000E0000
18000E0000
E600318000
E600318000
18000E0000
18000E0000
E600318000
E600318000
E600318000
18000E0000
18000E0000
E600318000
E600318000
18000E0000
18000E0000
E663318000
E663318000
E663318000
199CCE0000
199CCE0000
0663300000
0663300000
ENDCHAR
STARTCHAR 01AF
ENCODING 431
SWIDTH 945 0
DWIDTH 42 0
BBX 38 38 3 0
BITMAP
00000001CC
00000001CC
0000000030
0000000030
0000000030
E6000199CC
E6000199CC
1800006630
1800006630
E6000199C0
E6000199C0
1800006000
1800006000
1800006000
E600019800
E600019800
1800006000
1800006000
E600019800
E600019800
1800006000
1800006000
E600019800
E600019800
E600019800
1800006000
1800006000
E600019800
E600019800
19800E6000
19800E6000
0663318000
0663318000
0663318000
019CCE0000
019CCE0000
0063300000
0063300000
ENDCHAR
STARTCHAR 01B0
ENCODING 432
SWIDTH 832 0
DWIDTH 37 0
BBX 34 38 3 0
BITMAP
00000019C0
00000019C0
0000000600
0000000600
0000000600
E6003199C0
E6003199C0
18000E6600
18000E6600
E600319800
E600319800
18000E0000
18000E0000
18000E0000
E600318000
E600318000
18000E0000
18000E0000
E600318000
E600318000
18000E0000
18000E0000
E600318000
E600318000
E600318000
18000E0000
18000E0000
E600318000
E600318000
18000E0000
18000E0000
E663318000
E663318000
E663318000
199CCE0000
199CCE0000
0663300000
0663300000
ENDCHAR
STARTCHAR 01CD
ENCODING 461
SWIDTH 697 0
DWIDTH 31 0
BBX 25 47 3 0
BITMAP
06633000
06633000
06633000
0180C000
0180C000
06633000
06633000
019CC000
019CC000
00630000
00630000
00000000
00000000
00000000
00630000
00630000
019CC000
019CC000
06633000
06633000
1980CE00
1980CE00
1980CE00
E6003180
E6003180
18000E00
18000E00
E6003180
E6003180
18000E00
18000E00
E6633180
E6633180
E6633180
199CCE00
199CCE00
E6633180
E6633180
18000E00
18000E00
E6003180
E6003180
E6003180
18000E00
18000E00
E6003180
E6003180
ENDCHAR
STARTCHAR 01CE
ENCODING 462
SWIDTH 697 0
DWIDTH 31 0
BBX 25 47 3 0
BITMAP
06633000
06633000
06633000
0180C000
0180C000
06633000
06633000
019CC000
019CC000
00630000
00630000
00000000
00000000
00000000
06633000
06633000
199CCE00
199CCE00
E6633180
E6633180
18000E00
18000E00
18000E00
E6003180
E6003180
18000E00
18000E00
E6003180
E6003180
18000E00
18000E00
E6633180
E6633180
E6633180
199CCE00
199CCE00
E6633180
E6633180
18000E00
18000E00
E6003180
E6003180
E6003180
18000E00
18000E00
E6003180
E6003180
ENDCHAR
STARTCHAR 01CF
ENCODING 463
SWIDTH 495 0
DWIDTH 22 0
BBX 16 47 3 0
BITMAP
E663
E663
E663
181C
181C
E663
E663
199C
199C
0660
0660
0000
0000
0000
E663
E663
199C
199C
E663
E663
0180
0180
0180
0660
0660
0180
0180
0660
0660
0180
0180
0660
0660
0660
0180
0180
0660
0660
0180
0180
E663
E663
E663
199C
199C
E663
E663
ENDCHAR
STARTCHAR 01D0
ENCODING 464
SWIDTH 292 0
DWIDTH 13 0
BBX 15 47 -1 0
BITMAP
CE66
CE66
CE66
3018
3018
CE66
CE66
3198
3198
0E60
0E60
0000
0000
0000
0E60
0E60
0180
0180
0E60
0E60
0180
0180
0180
0E60
0E60
0180
0180
0E60
0E60
0180
0180
0E60
0E60
0E60
0180
0180
0E60
0E60
0180
0180
0E60
0E60
0E60
0180
0180
0E60
0E60
ENDCHAR
STARTCHAR 01D1
ENCODING 465
SWIDTH 787 0
DWIDTH 35 0
BBX 29 47 3 0
BITMAP
019CCE00
019CCE00
019CCE00
00603000
00603000
019CCE00
019CCE00
00633000
00633000
001CC000
001CC000
00000000
00000000
00000000
00633000
00633000
019CCE00
019CCE00
06633180
06633180
19800E60
19800E60
19800E60
E6000198
E6000198
18000060
18000060
E6000198
E6000198
18000060
18000060
E6000198
E6000198
E6000198
18000060
18000060
E6000198
E6000198
19800E60
19800E60
06633180
06633180
06633180
019CCE00
019CCE00
00633000
00633000
ENDCHAR
STARTCHAR 01D2
ENCODING 466
SWIDTH 697 0
DWIDTH 31 0
BBX 25 47 3 0
BITMAP
06633000
06633000
06633000
0180C000
0180C000
06633000
06633000
019CC000
019CC000
00630000
00630000
00000000
00000000
00000000
06633000
06633000
199CCE00
199CCE00
E6633180
E6633180
18000E00
18000E00
18000E00
E6003180
E6003180
18000E00
18000E00
E6003180
E6003180
18000E00
18000E00
E6003180
E6003180
E6003180
18000E00
18000E00
E6003180
E6003180
18000E00
18000E00
E6633180
E6633180
E6633180
199CCE00
199CCE00
06633000
06633000
ENDCHAR
STARTCHAR 01D3
ENCODING 467
SWIDTH 787 0
DWIDTH 35 0
BBX 29 47 3 0
BITMAP
019CCE00
019CCE00
019CCE00
00603000
00603000
019CCE00
019CCE00
00633000
00633000
001CC000
001CC000
00000000
00000000
00000000
E6000198
E6000198
18000060
18000060
E6000198
E6000198
18000060
18000060
18000060
E6000198
E6000198
18000060
18000060
E6000198
E6000198
18000060
18000060
E6000198
E6000198
E6000198
18000060
18000060
E6000198
E6000198
19800E60
19800E60
06633180
06633180
06633180
019CCE00
019CCE00
00633000
00633000
ENDCHAR
STARTCHAR 01D4
ENCODING 468
SWIDTH 697 0
DWIDTH 31 0
BBX 25 47 3 0
BITMAP
06633000
06633000
06633000
0180C000
0180C000
06633000
06633000
019CC000
019CC000
00630000
00630000
00000000
00000000
00000000
E6003180
E6003180
18000E00
18000E00
E6003180
E6003180
18000E00
18000E00
18000E00
E6003180
E6003180
18000E00
18000E00
E6003180
E6003180
18000E00
18000E00
E6003180
E6003180
E6003180
18000E00
18000E00
E6003180
E6003180
18000E00
18000E00
E6633180
E6633180
E6633180
199CCE00
199CCE00
06633000
06633000
ENDCHAR
STARTCHAR 01D5
ENCODING 469
SWIDTH 787 0
DWIDTH 35 0
BBX 29 51 3 0
BITMAP
019CCE00
019CCE00
00633000
00633000
019CCE00
019CCE00
019CCE00
00000000
00000000
019CCE00
019CCE00
00603000
00603000
019CCE00
019CCE00
00000000
00000000
00000000
E6000198
E6000198
18000060
18000060
E6000198
E6000198
18000060
18000060
18000060
E6000198
E6000198
18000060
18000060
E6000198
E6000198
18000060
18000060
E6000198
E6000198
E6000198
18000060
18000060
E6000198
E6000198
19800E60
19800E60
06633180
06633180
06633180
019CCE00
019CCE00
00633000
00633000
ENDCHAR
STARTCHAR 01D6
ENCODING 470
SWIDTH 697 0
DWIDTH 31 0
BBX 25 51 3 0
BITMAP
06633000
06633000
019CC000
019CC000
06633000
06633000
06633000
00000000
00000000
06633000
06633000
0180C000
0180C000
06633000
06633000
00000000
00000000
00000000
E6003180
E6003180
18000E00
18000E00
E6003180
E6003180
18000E00
18000E00
18000E00
E6003180
E6003180
18000E00
18000E00
E6003180
E6003180
18000E00
18000E00
E6003180
E6003180
E6003180
18000E00
18000E00
E6003180
E6003180
18000E00
18000E00
E6633180
E6633180
E6633180
199CCE00
199CCE00
06633000
06633000
ENDCHAR
STARTCHAR 01D7
ENCODING 471
SWIDTH 787 0
DWIDTH 35 0
BBX 29 56 3 0
BITMAP
00003180
00003180
00003180
0000CE00
0000CE00
00033000
00033000
001CC000
001CC000
00630000
00630000
00630000
00000000
00000000
019CCE00
019CCE00
00603000
00603000
019CCE00
019CCE00
00000000
00000000
00000000
E6000198
E6000198
18000060
18000060
E6000198
E6000198
18000060
18000060
18000060
E6000198
E6000198
18000060
18000060
E6000198
E6000198
18000060
18000060
E6000198
E6000198
E6000198
18000060
18000060
E6000198
E6000198
19800E60
19800E60
06633180
06633180
06633180
019CCE00
019CCE00
00633000
00633000
ENDCHAR
STARTCHAR 01D8
ENCODING 472
SWIDTH 697 0
DWIDTH 31 0
BBX 25 56 3 0
BITMAP
0000CE00
0000CE00
0000CE00
00033000
00033000
001CC000
001CC000
00630000
00630000
019C0000
019C0000
019C0000
00000000
00000000
06633000
06633000
0180C000
0180C000
06633000
06633000
00000000
00000000
00000000
E6003180
E6003180
18000E00
18000E00
E6003180
E6003180
18000E00
18000E00
18000E00
E6003180
E6003180
18000E00
18000E00
E6003180
E6003180
18000E00
18000E00
E6003180
E6003180
E6003180
18000E00
18000E00
E6003180
E6003180
18000E00
18000E00
E6633180
E6633180
E6633180
199CCE00
199CCE00
06633000
06633000
ENDCHAR
STARTCHAR 01D9
ENCODING 473
SWIDTH 787 0
DWIDTH 35 0
BBX 29 56 3 0
BITMAP
019CCE00
019CCE00
019CCE00
00603000
00603000
019CCE00
019CCE00
00633000
00633000
001CC000
001CC000
001CC000
00000000
00000000
019CCE00
019CCE00
00603000
00603000
019CCE00
019CCE00
00000000
00000000
00000000
E6000198
E6000198
18000060
18000060
E6000198
E6000198
18000060
18000060
18000060
E6000198
E6000198
18000060
18000060
E6000198
E6000198
18000060
18000060
E6000198
E6000198
E6000198
18000060
18000060
E6000198
E6000198
19800E60
19800E60
06633180
06633180
06633180
019CCE00
019CCE00
00633000
00633000
ENDCHAR
STARTCHAR 01DA
ENCODING 474
SWIDTH 697 0
DWIDTH 31 0
BBX 25 56 3 0
BITMAP
06633000
06633000
06633000
0180C000
0180C000
06633000
06633000
019CC000
019CC000
00630000
00630000
00630000
00000000
00000000
06633000
06633000
0180C000
0180C000
06633000
06633000
00000000
00000000
00000000
E6003180
E6003180
18000E00
18000E00
E6003180
E6003180
18000E00
18000E00
18000E00
E6003180
E6003180
18000E00
18000E00
E6003180
E6003180
18000E00
18000E00
E6003180
E6003180
E6003180
18000E00
18000E00
E6003180
E6003180
18000E00
18000E00
E6633180
E6633180
E6633180
199CCE00
199CCE00
06633000
06633000
ENDCHAR
STARTCHAR 01DB
ENCODING 475
SWIDTH 787 0
DWIDTH 35 0
BBX 29 56 3 0
BITMAP
19800000
19800000
19800000
06600000
06600000
019C0000
019C0000
00630000
00630000
001CC000
001CC000
001CC000
00000000
00000000
019CCE00
019CCE00
00603000
00603000
019CCE00
019CCE00
00000000
00000000
00000000
E6000198
E6000198
18000060
18000060
E6000198
E6000198
18000060
18000060
18000060
E6000198
E6000198
18000060
18000060
E6000198
E6000198
18000060
18000060
E6000198
E6000198
E6000198
18000060
18000060
E6000198
E6000198
19800E60
19800E60
06633180
06633180
06633180
019CCE00
019CCE00
00633000
00633000
ENDCHAR
STARTCHAR 01DC
ENCODING 476
SWIDTH 697 0
DWIDTH 31 0
BBX 25 56 3 0
BITMAP
E6000000
E6000000
E6000000
19800000
19800000
06600000
06600000
019C0000
019C0000
00630000
00630000
00630000
00000000
00000000
06633000
06633000
0180C000
0180C000
06633000
06633000
00000000
00000000
00000000
E6003180
E6003180
18000E00
18000E00
E6003180
E6003180
18000E00
18000E00
18000E00
E6003180
E6003180
18000E00
18000E00
E6003180
E6003180
18000E00
18000E00
E6003180
E6003180
E6003180
18000E00
18000E00
E6003180
E6003180
18000E00
18000E00
E6633180
E6633180
E6633180
199CCE00
199CCE00
06633000
06633000
ENDCHAR
STARTCHAR 0218
ENCODING 536
SWIDTH 697 0
DWIDTH 31 0
BBX 25 46 3 -13
BITMAP
06633000
06633000
199CCE00
199CCE00
E6633180
E6633180
18000E00
18000E00
18000E00
E6003180
E6003180
18000000
18000000
E6633000
E6633000
199CCE00
199CCE00
06633180
06633180
06633180
00000E00
00000E00
E6003180
E6003180
18000E00
18000E00
E6633180
E6633180
E6633180
199CCE00
199CCE00
06633000
06633000
00000000
00000000
00630000
00630000
001C0000
001C0000
001C0000
00630000
00630000
001C0000
001C0000
00600000
00600000
ENDCHAR
STARTCHAR 0219
ENCODING 537
SWIDTH 697 0
DWIDTH 31 0
BBX 25 46 3 -13
BITMAP
06633000
06633000
199CCE00
199CCE00
E6633180
E6633180
18000E00
18000E00
18000E00
E6003180
E6003180
18000000
18000000
E6633000
E6633000
199CCE00
199CCE00
06633180
06633180
06633180
00000E00
00000E00
E6003180
E6003180
18000E00
18000E00
E6633180
E6633180
E6633180
199CCE00
199CCE00
06633000
06633000
00000000
00000000
00630000
00630000
001C0000
001C0000
001C0000
00630000
00630000
001C0000
001C0000
00600000
00600000
ENDCHAR
STARTCHAR 021A
ENCODING 538
SWIDTH 697 0
DWIDTH 31 0
BBX 25 46 3 -13
BITMAP
E6633180
E6633180
199CCE00
199CCE00
E6633180
E6633180
001C0000
001C0000
001C0000
00630000
00630000
001C0000
001C0000
00630000
00630000
001C0000
001C0000
00630000
00630000
00630000
001C0000
001C0000
00630000
00630000
001C0000
001C0000
00630000
00630000
00630000
001C0000
001C0000
00630000
00630000
00000000
00000000
00630000
00630000
001C0000
001C0000
001C0000
00630000
00630000
001C0000
001C0000
00600000
00600000
ENDCHAR
STARTCHAR 021B
ENCODING 539
SWIDTH 697 0
DWIDTH 31 0
BBX 25 46 3 -13
BITMAP
E6633180
E6633180
199CCE00
199CCE00
E6633180
E6633180
001C0000
001C0000
001C0000
00630000
00630000
001C0000
001C0000
00630000
00630000
001C0000
001C0000
00630000
00630000
00630000
001C0000
001C0000
00630000
00630000
001C0000
001C0000
00630000
00630000
00630000
001C0000
001C0000
00630000
00630000
00000000
00000000
00630000
00630000
001C0000
001C0000
001C0000
00630000
00630000
001C0000
001C0000
00600000
00600000
ENDCHAR
STARTCHAR 02BC
ENCODING 700
SWIDTH 180 0
DWIDTH 8 0
BBX 7 11 1 22
BITMAP
C6
C6
38
38
C6
C6
38
38
38
C0
C0
ENDCHAR
STARTCHAR 02C6
ENCODING 710
SWIDTH 382 0
DWIDTH 17 0
BBX 16 11 1 36
BITMAP
0660
0660
0660
3998
3998
C667
C667
3818
3818
C667
C667
ENDCHAR
STARTCHAR 02C7
ENCODING 711
SWIDTH 382 0
DWIDTH 17 0
BBX 16 11 1 36
BITMAP
C667
C667
C667
3818
3818
C667
C667
3998
3998
0660
0660
ENDCHAR
STARTCHAR 02D8
ENCODING 728
SWIDTH 495 0
DWIDTH 22 0
BBX 20 11 1 36
BITMAP
C60730
C60730
C60730
3800C0
3800C0
C66730
C66730
3998C0
3998C0
066700
066700
ENDCHAR
STARTCHAR 02D9
ENCODING 729
SWIDTH 180 0
DWIDTH 8 0
BBX 7 6 1 36
BITMAP
C6
C6
38
38
C6
C6
ENDCHAR
STARTCHAR 02DA
ENCODING 730
SWIDTH 495 0
DWIDTH 22 0
BBX 20 20 1 36
BITMAP
066700
066700
066700
3998C0
3998C0
C66730
C66730
3800C0
3800C0
C60730
C60730
C60730
3800C0
3800C0
C66730
C66730
3998C0
3998C0
066700
066700
ENDCHAR
STARTCHAR 02DB
ENCODING 731
SWIDTH 247 0
DWIDTH 11 0
BBX 11 9 3 -9
BITMAP
1800
1800
E660
E660
1980
1980
1980
0660
0660
ENDCHAR
STARTCHAR 02DC
ENCODING 732
SWIDTH 585 0
DWIDTH 26 0
BBX 25 11 1 36
BITMAP
06603380
06603380
06603380
39980C00
39980C00
C6673380
C6673380
3818CC00
3818CC00
C6073000
C6073000
ENDCHAR
STARTCHAR 02DD
ENCODING 733
SWIDTH 630 0
DWIDTH 28 0
BBX 29 11 1 36
BITMAP
00670398
00670398
00670398
01980C60
01980C60
06603380
06603380
3980CC00
3980CC00
C6073000
C6073000
ENDCHAR
STARTCHAR 0300
ENCODING 768
SWIDTH 0 0
DWIDTH 0 0
BBX 16 11 -19 36
BITMAP
C600
C600
C600
3980
3980
0660
0660
0198
0198
0067
0067
ENDCHAR
STARTCHAR 0301
ENCODING 769
SWIDTH 0 0
DWIDTH 0 0
BBX 15 11 -14 36
BITMAP
00E6
00E6
00E6
0318
0318
0CE0
0CE0
3300
3300
CC00
CC00
ENDCHAR
STARTCHAR 0302
ENCODING 770
SWIDTH 0 0
DWIDTH 0 0
BBX 16 11 -17 36
BITMAP
0660
0660
0660
199C
199C
E663
E663
181C
181C
E663
E663
ENDCHAR
STARTCHAR 0303
ENCODING 771
SWIDTH 0 0
DWIDTH 0 0
BBX 25 11 -26 36
BITMAP
06703180
06703180
06703180
198C0E00
198C0E00
E6733180
E6733180
180CCE00
180CCE00
E6033000
E6033000
ENDCHAR
STARTCHAR 0304
ENCODING 772
SWIDTH 0 0
DWIDTH 0 0
BBX 16 6 -17 36
BITMAP
E663
E663
199C
199C
E663
E663
ENDCHAR
STARTCHAR 0306
ENCODING 774
SWIDTH 0 0
DWIDTH 0 0
BBX 20 11 -21 36
BITMAP
CE0630
CE0630
CE0630
3001C0
3001C0
CE6630
CE6630
3199C0
3199C0
0E6600
0E6600
ENDCHAR
STARTCHAR 0307
ENCODING 775
SWIDTH 0 0
DWIDTH 0 0
BBX 7 6 -8 36
BITMAP
C6
C6
38
38
C6
C6
ENDCHAR
STARTCHAR 0308
ENCODING 776
SWIDTH 0 0
DWIDTH 0 0
BBX 16 6 -17 36
BITMAP
E663
E663
181C
181C
E663
E663
ENDCHAR
STARTCHAR 0309
ENCODING 777
SWIDTH 0 0
DWIDTH 0 0
BBX 16 15 -17 36
BITMAP
E660
E660
199C
199C
E663
E663
E663
001C
001C
0663
0663
019C
019C
0660
0660
ENDCHAR
STARTCHAR 030A
ENCODING 778
SWIDTH 0 0
DWIDTH 0 0
BBX 20 20 -21 36
BITMAP
0E6600
0E6600
0E6600
3199C0
3199C0
CE6630
CE6630
3001C0
3001C0
CE0630
CE0630
CE0630
3001C0
3001C0
CE6630
CE6630
3199C0
3199C0
0E6600
0E6600
ENDCHAR
STARTCHAR 030B
ENCODING 779
SWIDTH 0 0
DWIDTH 0 0
BBX 29 11 -28 36
BITMAP
00630398
00630398
00630398
019C0C60
019C0C60
06603380
06603380
3980CC00
3980CC00
C6033000
C6033000
ENDCHAR
STARTCHAR 030C
ENCODING 780
SWIDTH 0 0
DWIDTH 0 0
BBX 16 11 -17 36
BITMAP
E663
E663
E663
181C
181C
E663
E663
199C
199C
0660
0660
ENDCHAR
STARTCHAR 031B
ENCODING 795
SWIDTH 0 0
DWIDTH 0 0
BBX 16 11 -17 27
BITMAP
0063
0063
001C
001C
001C
E663
E663
199C
199C
E660
E660
ENDCHAR
STARTCHAR 0323
ENCODING 803
SWIDTH 0 0
DWIDTH 0 0
BBX 7 7 -8 -9
BITMAP
C6
C6
38
38
38
C6
C6
ENDCHAR
STARTCHAR 0326
ENCODING 806
SWIDTH 0 0
DWIDTH 0 0
BBX 7 11 -8 -13
BITMAP
C6
C6
38
38
38
C6
C6
38
38
C0
C0
ENDCHAR
STARTCHAR 0327
ENCODING 807
SWIDTH 0 0
DWIDTH 0 0
BBX 11 9 -12 -9
BITMAP
0380
0380
CC60
CC60
3380
3380
3380
CC00
CC00
ENDCHAR
STARTCHAR 0328
ENCODING 808
SWIDTH 0 0
DWIDTH 0 0
BBX 11 9 -8 -9
BITMAP
3800
3800
C660
C660
3980
3980
3980
0660
0660
ENDCHAR
STARTCHAR 0335
ENCODING 821
SWIDTH 0 0
DWIDTH 0 0
BBX 16 7 -19 13
BITMAP
C667
C667
3998
3998
C667
C667
C667
ENDCHAR
STARTCHAR 0336
ENCODING 822
SWIDTH 0 0
DWIDTH 0 0
BBX 38 7 -39 22
BITMAP
C66733998C
C66733998C
3998CC6670
3998CC6670
3998CC6670
C66733998C
C66733998C
ENDCHAR
STARTCHAR 0337
ENCODING 823
SWIDTH 0 0
DWIDTH 0 0
BBX 16 7 -19 13
BITMAP
C667
C667
3998
3998
C667
C667
C667
ENDCHAR
STARTCHAR 0338
ENCODING 824
SWIDTH 0 0
DWIDTH 0 0
BBX 16 33 -17 0
BITMAP
0063
0063
001C
001C
0063
0063
019C
019C
019C
0060
0060
019C
019C
0660
0660
0180
0180
0660
0660
0660
1980
1980
0600
0600
1980
1980
E600
E600
E600
1800
1800
E600
E600
ENDCHAR
STARTCHAR 0401
ENCODING 1025
SWIDTH 697 0
DWIDTH 31 0
BBX 25 42 3 0
BITMAP
06633000
06633000
0180C000
0180C000
06633000
06633000
00000000
00000000
00000000
00633180
00633180
019CCE00
019CCE00
06633180
06633180
19800000
19800000
19800000
E6000000
E6000000
18000000
18000000
E6633000
E6633000
199CC000
199CC000
E6633000
E6633000
E6633000
18000000
18000000
E6000000
E6000000
19800000
19800000
06633180
06633180
06633180
019CCE00
019CCE00
00633180
00633180
ENDCHAR
STARTCHAR 0410
ENCODING 1040
SWIDTH 697 0
DWIDTH 31 0
BBX 25 33 3 0
BITMAP
00630000
00630000
019CC000
019CC000
06633000
06633000
1980CE00
1980CE00
1980CE00
E6003180
E6003180
18000E00
18000E00
E6003180
E6003180
18000E00
18000E00
E6633180
E6633180
E6633180
199CCE00
199CCE00
E6633180
E6633180
18000E00
18000E00
E6003180
E6003180
E6003180
18000E00
18000E00
E6003180
E6003180
ENDCHAR
STARTCHAR 0411
ENCODING 1041
SWIDTH 697 0
DWIDTH 31 0
BBX 25 33 3 0
BITMAP
E6633180
E6633180
199CCE00
199CCE00
E6633180
E6633180
18000000
18000000
18000000
E6000000
E6000000
18000000
18000000
E6633000
E6633000
199CCE00
199CCE00
E6633180
E6633180
E6633180
18000E00
18000E00
E6003180
E6003180
18000E00
18000E00
E6633180
E6633180
E6633180
199CCE00
199CCE00
06633000
06633000
ENDCHAR
STARTCHAR 0412
ENCODING 1042
SWIDTH 697 0
DWIDTH 31 0
BBX 25 33 3 0
BITMAP
E6633000
E6633000
199CCE00
199CCE00
E6633180
E6633180
18000E00
18000E00
18000E00
E6003180
E6003180
1800CE00
1800CE00
E6633000
E6633000
199CCE00
199CCE00
E6633180
E6633180
E6633180
18000E00
18000E00
E6003180
E6003180
18000E00
18000E00
E6633180
E6633180
E6633180
199CCE00
199CCE00
E6633000
E6633000
ENDCHAR
STARTCHAR 0413
ENCODING 1043
SWIDTH 697 0
DWIDTH 31 0
BBX 25 33 3 0
BITMAP
06633180
06633180
199CCE00
199CCE00
E6633180
E6633180
18000000
18000000
18000000
E6000000
E6000000
18000000
18000000
E6000000
E6000000
18000000
18000000
E6000000
E6000000
E6000000
18000000
18000000
E6000000
E6000000
18000000
18000000
E6000000
E6000000
E6000000
18000000
18000000
E6000000
E6000000
ENDCHAR
STARTCHAR 0414
ENCODING 1044
SWIDTH 787 0
DWIDTH 35 0
BBX 33 37 1 -4
BITMAP
0067339800
0067339800
0198CC6000
0198CC6000
0667339800
0667339800
0180006000
0180006000
0180006000
0660039800
0660039800
0180006000
0180006000
0660039800
0660039800
0180006000
0180006000
0660039800
0660039800
0660039800
0180006000
0180006000
0660039800
0660039800
0180006000
0180006000
0667339800
0667339800
0667339800
3998CC6600
3998CC6600
C667339980
C667339980
3800000600
3800000600
C600001980
C600001980
ENDCHAR
STARTCHAR 0415
ENCODING 1045
SWIDTH 697 0
DWIDTH 31 0
BBX 25 33 3 0
BITMAP
00633180
00633180
019CCE00
019CCE00
06633180
06633180
19800000
19800000
19800000
E6000000
E6000000
18000000
18000000
E6633000
E6633000
199CC000
199CC000
E6633000
E6633000
E6633000
18000000
18000000
E6000000
E6000000
19800000
19800000
06633180
06633180
06633180
019CCE00
019CCE00
00633180
00633180
ENDCHAR
STARTCHAR 0416
ENCODING 1046
SWIDTH 1080 0
DWIDTH 48 0
BBX 43 33 3 0
BITMAP
E60031800CE0
E60031800CE0
18000E000300
18000E000300
E60031800CE0
E60031800CE0
19800E003300
19800E003300
19800E003300
06603181CC00
06603181CC00
019C0E063000
019C0E063000
00633199C000
00633199C000
001CCE660000
001CCE660000
00633199C000
00633199C000
00633199C000
019C0E063000
019C0E063000
06603181CC00
06603181CC00
19800E003300
19800E003300
E60031800CE0
E60031800CE0
E60031800CE0
18000E000300
18000E000300
E60031800CE0
E60031800CE0
ENDCHAR
STARTCHAR 0417
ENCODING 1047
SWIDTH 787 0
DWIDTH 35 0
BBX 29 33 3 0
BITMAP
00633000
00633000
019CCE00
019CCE00
06633180
06633180
19800E60
19800E60
19800E60
E6000198
E6000198
00000E60
00000E60
00633180
00633180
001CCE00
001CCE00
00633180
00633180
00633180
00000E60
00000E60
E6000198
E6000198
19800E60
19800E60
06633180
06633180
06633180
019CCE00
019CCE00
00633000
00633000
ENDCHAR
STARTCHAR 0418
ENCODING 1048
SWIDTH 787 0
DWIDTH 35 0
BBX 29 33 3 0
BITMAP
E6000198
E6000198
18000060
18000060
E6000198
E6000198
18000060
18000060
18000060
E6000198
E6000198
18000E60
18000E60
E6003198
E6003198
1800CE60
1800CE60
E6033198
E6033198
E6033198
181CC060
181CC060
E6630198
E6630198
199C0060
199C0060
E6600198
E6600198
E6600198
19800060
19800060
E6000198
E6000198
ENDCHAR
STARTCHAR 0419
ENCODING 1049
SWIDTH 787 0
DWIDTH 35 0
BBX 29 47 3 0
BITMAP
06603180
06603180
06603180
01800E00
01800E00
06633180
06633180
019CCE00
019CCE00
00633000
00633000
00000000
00000000
00000000
E6000198
E6000198
18000060
18000060
E6000198
E6000198
18000060
18000060
18000060
E6000198
E6000198
18000E60
18000E60
E6003198
E6003198
1800CE60
1800CE60
E6033198
E6033198
E6033198
181CC060
181CC060
E6630198
E6630198
199C0060
199C0060
E6600198
E6600198
E6600198
19800060
19800060
E6000198
E6000198
ENDCHAR
STARTCHAR 041A
ENCODING 1050
SWIDTH 697 0
DWIDTH 31 0
BBX 25 33 3 0
BITMAP
E6003180
E6003180
18000E00
18000E00
E6003180
E6003180
1800CE00
1800CE00
1800CE00
E6033000
E6033000
181CC000
181CC000
E6630000
E6630000
199C0000
199C0000
E6630000
E6630000
E6630000
181CC000
181CC000
E6033000
E6033000
1800CE00
1800CE00
E6003180
E6003180
E6003180
18000E00
18000E00
E6003180
E6003180
ENDCHAR
STARTCHAR 041B
ENCODING 1051
SWIDTH 787 0
DWIDTH 35 0
BBX 29 33 3 0
BITMAP
00633180
00633180
019CCE60
019CCE60
06633198
06633198
01800060
01800060
01800060
06600198
06600198
01800060
01800060
06600198
06600198
01800060
01800060
06600198
06600198
06600198
01800060
01800060
06600198
06600198
01800060
01800060
E6600198
E6600198
E6600198
19800060
19800060
E6000198
E6000198
ENDCHAR
STARTCHAR 041C
ENCODING 1052
SWIDTH 990 0
DWIDTH 44 0
BBX 38 33 3 0
BITMAP
E6000001CC
E6000001CC
1980000630
1980000630
E6600019CC
E6600019CC
199C006630
199C006630
199C006630
E6630199CC
E6630199CC
181CCE6030
181CCE6030
E6033181CC
E6033181CC
1800CE0030
1800CE0030
E6003001CC
E6003001CC
E6003001CC
1800000030
1800000030
E6000001CC
E6000001CC
1800000030
1800000030
E6000001CC
E6000001CC
E6000001CC
1800000030
1800000030
E6000001CC
E6000001CC
ENDCHAR
STARTCHAR 041D
ENCODING 1053
SWIDTH 787 0
DWIDTH 35 0
BBX 29 33 3 0
BITMAP
E6000198
E6000198
18000060
18000060
E6000198
E6000198
18000060
18000060
18000060
E6000198
E6000198
18000060
18000060
E6633198
E6633198
199CCE60
199CCE60
E6633198
E6633198
E6633198
18000060
18000060
E6000198
E6000198
18000060
18000060
E6000198
E6000198
E6000198
18000060
18000060
E6000198
E6000198
ENDCHAR
STARTCHAR 041E
ENCODING 1054
SWIDTH 787 0
DWIDTH 35 0
BBX 29 33 3 0
BITMAP
00633000
00633000
019CCE00
019CCE00
06633180
06633180
19800E60
19800E60
19800E60
E6000198
E6000198
18000060
18000060
E6000198
E6000198
18000060
18000060
E6000198
E6000198
E6000198
18000060
18000060
E6000198
E6000198
19800E60
19800E60
06633180
06633180
06633180
019CCE00
019CCE00
00633000
00633000
ENDCHAR
STARTCHAR 041F
ENCODING 1055
SWIDTH 787 0
DWIDTH 35 0
BBX 29 33 3 0
BITMAP
06633180
06633180
199CCE60
199CCE60
E6633198
E6633198
18000060
18000060
18000060
E6000198
E6000198
18000060
18000060
E6000198
E6000198
18000060
18000060
E6000198
E6000198
E6000198
18000060
18000060
E6000198
E6000198
18000060
18000060
E6000198
E6000198
E6000198
18000060
18000060
E6000198
E6000198
ENDCHAR
STARTCHAR 0420
ENCODING 1056
SWIDTH 697 0
DWIDTH 31 0
BBX 25 33 3 0
BITMAP
E6630000
E6630000
199CC000
199CC000
E6633000
E6633000
1800CE00
1800CE00
1800CE00
E6003180
E6003180
18000E00
18000E00
E6003180
E6003180
18000E00
18000E00
E6003180
E6003180
E6003180
1800CE00
1800CE00
E6633000
E6633000
199CC000
199CC000
E6630000
E6630000
E6630000
18000000
18000000
E6000000
E6000000
ENDCHAR
STARTCHAR 0421
ENCODING 1057
SWIDTH 787 0
DWIDTH 35 0
BBX 29 33 3 0
BITMAP
00633000
00633000
019CCE00
019CCE00
06633180
06633180
19800E60
19800E60
19800E60
E6000198
E6000198
18000060
18000060
E6000198
E6000198
18000000
18000000
E6000000
E6000000
E6000000
18000000
18000000
E6000198
E6000198
19800E60
19800E60
06633180
06633180
06633180
019CCE00
019CCE00
00633000
00633000
ENDCHAR
STARTCHAR 0422
ENCODING 1058
SWIDTH 697 0
DWIDTH 31 0
BBX 25 33 3 0
BITMAP
E6633180
E6633180
199CCE00
199CCE00
E6633180
E6633180
001C0000
001C0000
001C0000
00630000
00630000
001C0000
001C0000
00630000
00630000
001C0000
001C0000
00630000
00630000
00630000
001C0000
001C0000
00630000
00630000
001C0000
001C0000
00630000
00630000
00630000
001C0000
001C0000
00630000
00630000
ENDCHAR
STARTCHAR 0423
ENCODING 1059
SWIDTH 697 0
DWIDTH 31 0
BBX 25 33 3 0
BITMAP
E6003180
E6003180
18000E00
18000E00
E6003180
E6003180
18000E00
18000E00
18000E00
E6003180
E6003180
19800E00
19800E00
06633180
06633180
019CCE00
019CCE00
00633180
00633180
00633180
00000E00
00000E00
00003180
00003180
00000E00
00000E00
E6633180
E6633180
E6633180
199CCE00
199CCE00
E6633000
E6633000
ENDCHAR
STARTCHAR 0424
ENCODING 1060
SWIDTH 900 0
DWIDTH 40 0
BBX 34 42 3 -4
BITMAP
0003300000
0003300000
0000C00000
0000C00000
0000C00000
0063318000
0063318000
019CCE6000
019CCE6000
0663319800
0663319800
1980C06600
1980C06600
1980C06600
E6033019C0
E6033019C0
1800C00600
1800C00600
E6033019C0
E6033019C0
1800C00600
1800C00600
E6033019C0
E6033019C0
E6033019C0
1800C00600
1800C00600
E6033019C0
E6033019C0
1980C06600
1980C06600
0663319800
0663319800
0663319800
019CCE6000
019CCE6000
0063318000
0063318000
0000C00000
0000C00000
0003300000
0003300000
ENDCHAR
STARTCHAR 0425
ENCODING 1061
SWIDTH 787 0
DWIDTH 35 0
BBX 29 33 3 0
BITMAP
E6000198
E6000198
18000060
18000060
E6000198
E6000198
18000060
18000060
18000060
E6000198
E6000198
19800E60
19800E60
06633180
06633180
019CCE00
019CCE00
06633180
06633180
06633180
19800E60
19800E60
E6000198
E6000198
18000060
18000060
E6000198
E6000198
E6000198
18000060
18000060
E6000198
E6000198
ENDCHAR
STARTCHAR 0426
ENCODING 1062
SWIDTH 832 0
DWIDTH 37 0
BBX 34 37 3 -4
BITMAP
E600019800
E600019800
1800006000
1800006000
E600019800
E600019800
1800006000
1800006000
1800006000
E600019800
E600019800
1800006000
1800006000
E600019800
E600019800
1800006000
1800006000
E600019800
E600019800
E600019800
1800006000
1800006000
E600019800
E600019800
1800006000
1800006000
E663319800
E663319800
E663319800
199CCE6600
199CCE6600
06633199C0
06633199C0
0000000600
0000000600
00000019C0
00000019C0
ENDCHAR
STARTCHAR 0427
ENCODING 1063
SWIDTH 697 0
DWIDTH 31 0
BBX 25 33 3 0
BITMAP
E6003180
E6003180
18000E00
18000E00
E6003180
E6003180
18000E00
18000E00
18000E00
E6003180
E6003180
19800E00
19800E00
06633180
06633180
019CCE00
019CCE00
00633180
00633180
00633180
00000E00
00000E00
00003180
00003180
00000E00
00000E00
00003180
00003180
00003180
00000E00
00000E00
00003180
00003180
ENDCHAR
STARTCHAR 0428
ENCODING 1064
SWIDTH 1080 0
DWIDTH 48 0
BBX 43 33 3 0
BITMAP
E60031800CE0
E60031800CE0
18000E000300
18000E000300
E60031800CE0
E60031800CE0
18000E000300
18000E000300
18000E000300
E60031800CE0
E60031800CE0
18000E000300
18000E000300
E60031800CE0
E60031800CE0
18000E000300
18000E000300
E60031800CE0
E60031800CE0
E60031800CE0
18000E000300
18000E000300
E60031800CE0
E60031800CE0
18000E000300
18000E000300
E6633199CCE0
E6633199CCE0
E6633199CCE0
199CCE663300
199CCE663300
06633199CC00
06633199CC00
ENDCHAR
STARTCHAR 0429
ENCODING 1065
SWIDTH 1147 0
DWIDTH 51 0
BBX 47 37 3 -4
BITMAP
E60031800CE0
E60031800CE0
18000E000300
18000E000300
E60031800CE0
E60031800CE0
18000E000300
18000E000300
18000E000300
E60031800CE0
E60031800CE0
18000E000300
18000E000300
E60031800CE0
E60031800CE0
18000E000300
18000E000300
E60031800CE0
E60031800CE0
E60031800CE0
18000E000300
18000E000300
E60031800CE0
E60031800CE0
18000E000300
18000E000300
E6633199CCE0
E6633199CCE0
E6633199CCE0
199CCE663318
199CCE663318
06633199CCE6
06633199CCE6
000000000018
000000000018
0000000000E6
0000000000E6
ENDCHAR
STARTCHAR 042A
ENCODING 1066
SWIDTH 787 0
DWIDTH 35 0
BBX 29 33 3 0
BITMAP
E6600000
E6600000
19800000
19800000
E6600000
E6600000
01800000
01800000
01800000
06600000
06600000
01800000
01800000
06633180
06633180
019CCE60
019CCE60
06633198
06633198
06633198
01800060
01800060
06600198
06600198
01800060
01800060
06633198
06633198
06633198
019CCE60
019CCE60
00633180
00633180
ENDCHAR
STARTCHAR 042B
ENCODING 1067
SWIDTH 945 0
DWIDTH 42 0
BBX 36 33 3 0
BITMAP
E600000630
E600000630
18000001C0
18000001C0
E600000630
E600000630
18000001C0
18000001C0
18000001C0
E600000630
E600000630
18000001C0
18000001C0
E663300630
E663300630
199CCE01C0
199CCE01C0
E663318630
E663318630
E663318630
18000E01C0
18000E01C0
E600318630
E600318630
18000E01C0
18000E01C0
E663318630
E663318630
E663318630
199CCE01C0
199CCE01C0
0663300630
0663300630
ENDCHAR
STARTCHAR 042C
ENCODING 1068
SWIDTH 697 0
DWIDTH 31 0
BBX 25 33 3 0
BITMAP
E6000000
E6000000
18000000
18000000
E6000000
E6000000
18000000
18000000
18000000
E6000000
E6000000
18000000
18000000
E6633000
E6633000
199CCE00
199CCE00
E6633180
E6633180
E6633180
18000E00
18000E00
E6003180
E6003180
18000E00
18000E00
E6633180
E6633180
E6633180
199CCE00
199CCE00
06633000
06633000
ENDCHAR
STARTCHAR 042D
ENCODING 1069
SWIDTH 787 0
DWIDTH 35 0
BBX 29 33 3 0
BITMAP
00633000
00633000
019CCE00
019CCE00
06633180
06633180
19800E60
19800E60
19800E60
E6000198
E6000198
00000060
00000060
00633198
00633198
001CCE60
001CCE60
00633198
00633198
00633198
00000060
00000060
E6000198
E6000198
19800E60
19800E60
06633180
06633180
06633180
019CCE00
019CCE00
00633000
00633000
ENDCHAR
STARTCHAR 042E
ENCODING 1070
SWIDTH 1080 0
DWIDTH 48 0
BBX 43 33 3 0
BITMAP
E6000199C000
E6000199C000
18000E663000
18000E663000
E6003199CC00
E6003199CC00
1800CE003300
1800CE003300
1800CE003300
E60330000CE0
E60330000CE0
1800C0000300
1800C0000300
E66330000CE0
E66330000CE0
199CC0000300
199CC0000300
E66330000CE0
E66330000CE0
E66330000CE0
1800C0000300
1800C0000300
E60330000CE0
E60330000CE0
1800CE003300
1800CE003300
E6003199CC00
E6003199CC00
E6003199CC00
18000E663000
18000E663000
E6000199C000
E6000199C000
ENDCHAR
STARTCHAR 042F
ENCODING 1071
SWIDTH 697 0
DWIDTH 31 0
BBX 25 33 3 0
BITMAP
00633180
00633180
019CCE00
019CCE00
06633180
06633180
19800E00
19800E00
19800E00
E6003180
E6003180
18000E00
18000E00
E6003180
E6003180
18000E00
18000E00
E6003180
E6003180
E6003180
19800E00
19800E00
06633180
06633180
019CCE00
019CCE00
06633180
06633180
06633180
19800E00
19800E00
E6003180
E6003180
ENDCHAR
STARTCHAR 0430
ENCODING 1072
SWIDTH 697 0
DWIDTH 31 0
BBX 25 33 3 0
BITMAP
06633000
06633000
199CCE00
199CCE00
E6633180
E6633180
18000E00
18000E00
18000E00
E6003180
E6003180
18000E00
18000E00
E6003180
E6003180
18000E00
18000E00
E6633180
E6633180
E6633180
199CCE00
199CCE00
E6633180
E6633180
18000E00
18000E00
E6003180
E6003180
E6003180
18000E00
18000E00
E6003180
E6003180
ENDCHAR
STARTCHAR 0431
ENCODING 1073
SWIDTH 697 0
DWIDTH 31 0
BBX 25 33 3 0
BITMAP
E6633180
E6633180
199CCE00
199CCE00
E6633180
E6633180
18000000
18000000
18000000
E6000000
E6000000
18000000
18000000
E6633000
E6633000
199CCE00
199CCE00
E6633180
E6633180
E6633180
18000E00
18000E00
E6003180
E6003180
18000E00
18000E00
E6633180
E6633180
E6633180
199CCE00
199CCE00
06633000
06633000
ENDCHAR
STARTCHAR 0432
ENCODING 1074
SWIDTH 697 0
DWIDTH 31 0
BBX 25 33 3 0
BITMAP
E6633000
E6633000
199CCE00
199CCE00
E6633180
E6633180
18000E00
18000E00
18000E00
E6003180
E6003180
1800CE00
1800CE00
E6633000
E6633000
199CC000
199CC000
E6633000
E6633000
E6633000
1800CE00
1800CE00
E6003180
E6003180
18000E00
18000E00
E6633180
E6633180
E6633180
199CCE00
199CCE00
E6633000
E6633000
ENDCHAR
STARTCHAR 0433
ENCODING 1075
SWIDTH 585 0
DWIDTH 26 0
BBX 20 33 3 0
BITMAP
066330
066330
199CC0
199CC0
E66330
E66330
180000
180000
180000
E60000
E60000
180000
180000
E60000
E60000
180000
180000
E60000
E60000
E60000
180000
180000
E60000
E60000
180000
180000
E60000
E60000
E60000
180000
180000
E60000
E60000
ENDCHAR
STARTCHAR 0434
ENCODING 1076
SWIDTH 787 0
DWIDTH 35 0
BBX 33 37 1 -4
BITMAP
0067339800
0067339800
0198CC6000
0198CC6000
0667339800
0667339800
0180006000
0180006000
0180006000
0660039800
0660039800
0180006000
0180006000
0660039800
0660039800
0180006000
0180006000
0660039800
0660039800
0660039800
0180006000
0180006000
0660039800
0660039800
0180006000
0180006000
0667339800
0667339800
0667339800
3998CC6600
3998CC6600
C667339980
C667339980
3800000600
3800000600
C600001980
C600001980
ENDCHAR
STARTCHAR 0435
ENCODING 1077
SWIDTH 697 0
DWIDTH 31 0
BBX 25 33 3 0
BITMAP
06633180
06633180
199CCE00
199CCE00
E6633180
E6633180
18000000
18000000
18000000
E6000000
E6000000
18000000
18000000
E6633000
E6633000
199CC000
199CC000
E6633000
E6633000
E6633000
18000000
18000000
E6000000
E6000000
18000000
18000000
E6633180
E6633180
E6633180
199CCE00
199CCE00
06633180
06633180
ENDCHAR
STARTCHAR 0436
ENCODING 1078
SWIDTH 1080 0
DWIDTH 48 0
BBX 43 33 3 0
BITMAP
E60031800CE0
E60031800CE0
18000E000300
18000E000300
E60031800CE0
E60031800CE0
18000E000300
18000E000300
18000E000300
E60031800CE0
E60031800CE0
19800E003300
19800E003300
06633199CC00
06633199CC00
019CCE663000
019CCE663000
06633199CC00
06633199CC00
06633199CC00
19800E003300
19800E003300
E60031800CE0
E60031800CE0
18000E000300
18000E000300
E60031800CE0
E60031800CE0
E60031800CE0
18000E000300
18000E000300
E60031800CE0
E60031800CE0
ENDCHAR
STARTCHAR 0437
ENCODING 1079
SWIDTH 697 0
DWIDTH 31 0
BBX 25 33 3 0
BITMAP
06633000
06633000
199CCE00
199CCE00
E6633180
E6633180
18000E00
18000E00
18000E00
E6003180
E6003180
0000CE00
0000CE00
00633000
00633000
001CC000
001CC000
00633000
00633000
00633000
0000CE00
0000CE00
E6003180
E6003180
18000E00
18000E00
E6633180
E6633180
E6633180
199CCE00
199CCE00
06633000
06633000
ENDCHAR
STARTCHAR 0438
ENCODING 1080
SWIDTH 697 0
DWIDTH 31 0
BBX 25 33 3 0
BITMAP
E6003180
E6003180
18000E00
18000E00
E6003180
E6003180
18000E00
18000E00
18000E00
E6003180
E6003180
18000E00
18000E00
E6003180
E6003180
1800CE00
1800CE00
E6033180
E6033180
E6033180
181CCE00
181CCE00
E6633180
E6633180
199C0E00
199C0E00
E6603180
E6603180
E6603180
19800E00
19800E00
E6003180
E6003180
ENDCHAR
STARTCHAR 0439
ENCODING 1081
SWIDTH 697 0
DWIDTH 31 0
BBX 25 47 3 0
BITMAP
1980CE00
1980CE00
1980CE00
06003000
06003000
199CCE00
199CCE00
06633000
06633000
019CC000
019CC000
00000000
00000000
00000000
E6003180
E6003180
18000E00
18000E00
E6003180
E6003180
18000E00
18000E00
18000E00
E6003180
E6003180
18000E00
18000E00
E6003180
E6003180
1800CE00
1800CE00
E6033180
E6033180
E6033180
181CCE00
181CCE00
E6633180
E6633180
199C0E00
199C0E00
E6603180
E6603180
E6603180
19800E00
19800E00
E6003180
E6003180
ENDCHAR
STARTCHAR 043A
ENCODING 1082
SWIDTH 697 0
DWIDTH 31 0
BBX 25 33 3 0
BITMAP
E6003180
E6003180
18000E00
18000E00
E6003180
E6003180
18000E00
18000E00
18000E00
E6003180
E6003180
1800CE00
1800CE00
E6633000
E6633000
199CC000
199CC000
E6633000
E6633000
E6633000
1800CE00
1800CE00
E6003180
E6003180
18000E00
18000E00
E6003180
E6003180
E6003180
18000E00
18000E00
E6003180
E6003180
ENDCHAR
STARTCHAR 043B
ENCODING 1083
SWIDTH 787 0
DWIDTH 35 0
BBX 29 33 3 0
BITMAP
00633180
00633180
019CCE60
019CCE60
06633198
06633198
01800060
01800060
01800060
06600198
06600198
01800060
01800060
06600198
06600198
01800060
01800060
06600198
06600198
06600198
01800060
01800060
06600198
06600198
01800060
01800060
E6600198
E6600198
E6600198
19800060
19800060
E6000198
E6000198
ENDCHAR
STARTCHAR 043C
ENCODING 1084
SWIDTH 900 0
DWIDTH 40 0
BBX 34 33 3 0
BITMAP
E6000019C0
E6000019C0
1980006600
1980006600
E6600199C0
E6600199C0
199C0E6600
199C0E6600
199C0E6600
E6633199C0
E6633199C0
181CCE0600
181CCE0600
E6033019C0
E6033019C0
1800C00600
1800C00600
E6000019C0
E6000019C0
E6000019C0
1800000600
1800000600
E6000019C0
E6000019C0
1800000600
1800000600
E6000019C0
E6000019C0
E6000019C0
1800000600
1800000600
E6000019C0
E6000019C0
ENDCHAR
STARTCHAR 043D
ENCODING 1085
SWIDTH 697 0
DWIDTH 31 0
BBX 25 33 3 0
BITMAP
E6003180
E6003180
18000E00
18000E00
E6003180
E6003180
18000E00
18000E00
18000E00
E6003180
E6003180
18000E00
18000E00
E6633180
E6633180
199CCE00
199CCE00
E6633180
E6633180
E6633180
18000E00
18000E00
E6003180
E6003180
18000E00
18000E00
E6003180
E6003180
E6003180
18000E00
18000E00
E6003180
E6003180
ENDCHAR
STARTCHAR 043E
ENCODING 1086
SWIDTH 697 0
DWIDTH 31 0
BBX 25 33 3 0
BITMAP
06633000
06633000
199CCE00
199CCE00
E6633180
E6633180
18000E00
18000E00
18000E00
E6003180
E6003180
18000E00
18000E00
E6003180
E6003180
18000E00
18000E00
E6003180
E6003180
E6003180
18000E00
18000E00
E6003180
E6003180
18000E00
18000E00
E6633180
E6633180
E6633180
199CCE00
199CCE00
06633000
06633000
ENDCHAR
STARTCHAR 043F
ENCODING 1087
SWIDTH 697 0
DWIDTH 31 0
BBX 25 33 3 0
BITMAP
06633000
06633000
199CCE00
199CCE00
E6633180
E6633180
18000E00
18000E00
18000E00
E6003180
E6003180
18000E00
18000E00
E6003180
E6003180
18000E00
18000E00
E6003180
E6003180
E6003180
18000E00
18000E00
E6003180
E6003180
18000E00
18000E00
E6003180
E6003180
E6003180
18000E00
18000E00
E6003180
E6003180
ENDCHAR
STARTCHAR 0440
ENCODING 1088
SWIDTH 697 0
DWIDTH 31 0
BBX 25 33 3 0
BITMAP
E6633000
E6633000
199CCE00
199CCE00
E6633180
E6633180
18000E00
18000E00
18000E00
E6003180
E6003180
18000E00
18000E00
E6003180
E6003180
18000E00
18000E00
E6633180
E6633180
E6633180
199CCE00
199CCE00
E6633000
E6633000
18000000
18000000
E6000000
E6000000
E6000000
18000000
18000000
E6000000
E6000000
ENDCHAR
STARTCHAR 0441
ENCODING 1089
SWIDTH 697 0
DWIDTH 31 0
BBX 25 33 3 0
BITMAP
06633000
06633000
199CCE00
199CCE00
E6633180
E6633180
18000E00
18000E00
18000E00
E6003180
E6003180
18000E00
18000E00
E6003180
E6003180
18000000
18000000
E6000000
E6000000
E6000000
18000000
18000000
E6003180
E6003180
18000E00
18000E00
E6633180
E6633180
E6633180
199CCE00
199CCE00
06633000
06633000
ENDCHAR
STARTCHAR 0442
ENCODING 1090
SWIDTH 697 0
DWIDTH 31 0
BBX 25 33 3 0
BITMAP
E6633180
E6633180
199CCE00
199CCE00
E6633180
E6633180
001C0000
001C0000
001C0000
00630000
00630000
001C0000
001C0000
00630000
00630000
001C0000
001C0000
00630000
00630000
00630000
001C0000
001C0000
00630000
00630000
001C0000
001C0000
00630000
00630000
00630000
001C0000
001C0000
00630000
00630000
ENDCHAR
STARTCHAR 0443
ENCODING 1091
SWIDTH 697 0
DWIDTH 31 0
BBX 25 33 3 0
BITMAP
E6003180
E6003180
18000E00
18000E00
E6003180
E6003180
18000E00
18000E00
18000E00
E6003180
E6003180
18000E00
18000E00
E6633180
E6633180
199CCE00
199CCE00
06633180
06633180
06633180
00000E00
00000E00
00003180
00003180
00000E00
00000E00
E6633180
E6633180
E6633180
199CCE00
199CCE00
E6633000
E6633000
ENDCHAR
STARTCHAR 0444
ENCODING 1092
SWIDTH 900 0
DWIDTH 40 0
BBX 34 42 3 -4
BITMAP
0003300000
0003300000
0000C00000
0000C00000
0000C00000
0663319800
0663319800
199CCE6600
199CCE6600
E6633199C0
E6633199C0
1800C00600
1800C00600
1800C00600
E6033019C0
E6033019C0
1800C00600
1800C00600
E6033019C0
E6033019C0
1800C00600
1800C00600
E6033019C0
E6033019C0
E6033019C0
1800C00600
1800C00600
E6033019C0
E6033019C0
1800C00600
1800C00600
E6633199C0
E6633199C0
E6633199C0
199CCE6600
199CCE6600
0663319800
0663319800
0000C00000
0000C00000
0003300000
0003300000
ENDCHAR
STARTCHAR 0445
ENCODING 1093
SWIDTH 697 0
DWIDTH 31 0
BBX 25 33 3 0
BITMAP
E6003180
E6003180
18000E00
18000E00
E6003180
E6003180
18000E00
18000E00
18000E00
E6003180
E6003180
1980CE00
1980CE00
06633000
06633000
019CC000
019CC000
06633000
06633000
06633000
1980CE00
1980CE00
E6003180
E6003180
18000E00
18000E00
E6003180
E6003180
E6003180
18000E00
18000E00
E6003180
E6003180
ENDCHAR
STARTCHAR 0446
ENCODING 1094
SWIDTH 742 0
DWIDTH 33 0
BBX 29 37 3 -4
BITMAP
E6003180
E6003180
18000E00
18000E00
E6003180
E6003180
18000E00
18000E00
18000E00
E6003180
E6003180
18000E00
18000E00
E6003180
E6003180
18000E00
18000E00
E6003180
E6003180
E6003180
18000E00
18000E00
E6003180
E6003180
18000E00
18000E00
E6633180
E6633180
E6633180
199CCE60
199CCE60
06633198
06633198
00000060
00000060
00000198
00000198
ENDCHAR
STARTCHAR 0447
ENCODING 1095
SWIDTH 697 0
DWIDTH 31 0
BBX 25 33 3 0
BITMAP
E6003180
E6003180
18000E00
18000E00
E6003180
E6003180
18000E00
18000E00
18000E00
E6003180
E6003180
18000E00
18000E00
E6633180
E6633180
199CCE00
199CCE00
06633180
06633180
06633180
00000E00
00000E00
00003180
00003180
00000E00
00000E00
00003180
00003180
00003180
00000E00
00000E00
00003180
00003180
ENDCHAR
STARTCHAR 0448
ENCODING 1096
SWIDTH 900 0
DWIDTH 40 0
BBX 34 33 3 0
BITMAP
E6033019C0
E6033019C0
1800C00600
1800C00600
E6033019C0
E6033019C0
1800C00600
1800C00600
1800C00600
E6033019C0
E6033019C0
1800C00600
1800C00600
E6033019C0
E6033019C0
1800C00600
1800C00600
E6033019C0
E6033019C0
E6033019C0
1800C00600
1800C00600
E6033019C0
E6033019C0
1800C00600
1800C00600
E6633199C0
E6633199C0
E6633199C0
199CCE6600
199CCE6600
0663319800
0663319800
ENDCHAR
STARTCHAR 0449
ENCODING 1097
SWIDTH 945 0
DWIDTH 42 0
BBX 38 37 3 -4
BITMAP
E6033019C0
E6033019C0
1800C00600
1800C00600
E6033019C0
E6033019C0
1800C00600
1800C00600
1800C00600
E6033019C0
E6033019C0
1800C00600
1800C00600
E6033019C0
E6033019C0
1800C00600
1800C00600
E6033019C0
E6033019C0
E6033019C0
1800C00600
1800C00600
E6033019C0
E6033019C0
1800C00600
1800C00600
E6633199C0
E6633199C0
E6633199C0
199CCE6630
199CCE6630
06633199CC
06633199CC
0000000030
0000000030
00000001CC
00000001CC
ENDCHAR
STARTCHAR 044A
ENCODING 1098
SWIDTH 787 0
DWIDTH 35 0
BBX 29 33 3 0
BITMAP
E6600000
E6600000
19800000
19800000
E6600000
E6600000
01800000
01800000
01800000
06600000
06600000
01800000
01800000
06633180
06633180
019CCE60
019CCE60
06633198
06633198
06633198
01800060
01800060
06600198
06600198
01800060
01800060
06633198
06633198
06633198
019CCE60
019CCE60
00633180
00633180
ENDCHAR
STARTCHAR 044B
ENCODING 1099
SWIDTH 945 0
DWIDTH 42 0
BBX 36 33 3 0
BITMAP
E600000630
E600000630
18000001C0
18000001C0
E600000630
E600000630
18000001C0
18000001C0
18000001C0
E600000630
E600000630
18000001C0
18000001C0
E663300630
E663300630
199CCE01C0
199CCE01C0
E663318630
E663318630
E663318630
18000E01C0
18000E01C0
E600318630
E600318630
18000E01C0
18000E01C0
E663318630
E663318630
E663318630
199CCE01C0
199CCE01C0
0663300630
0663300630
ENDCHAR
STARTCHAR 044C
ENCODING 1100
SWIDTH 697 0
DWIDTH 31 0
BBX 25 33 3 0
BITMAP
E6000000
E6000000
18000000
18000000
E6000000
E6000000
18000000
18000000
18000000
E6000000
E6000000
18000000
18000000
E6633000
E6633000
199CCE00
199CCE00
E6633180
E6633180
E6633180
18000E00
18000E00
E6003180
E6003180
18000E00
18000E00
E6633180
E6633180
E6633180
199CCE00
199CCE00
06633000
06633000
ENDCHAR
STARTCHAR 044D
ENCODING 1101
SWIDTH 787 0
DWIDTH 35 0
BBX 29 33 3 0
BITMAP
06633180
06633180
199CCE60
199CCE60
E6633198
E6633198
18000060
18000060
18000060
E6000198
E6000198
00000060
00000060
00633198
00633198
001CCE60
001CCE60
00633198
00633198
00633198
00000060
00000060
E6000198
E6000198
18000060
18000060
E6633198
E6633198
E6633198
199CCE60
199CCE60
06633180
06633180
ENDCHAR
STARTCHAR 044E
ENCODING 1102
SWIDTH 990 0
DWIDTH 44 0
BBX 38 33 3 0
BITMAP
E6003199C0
E6003199C0
1800CE6630
1800CE6630
E6033199CC
E6033199CC
1800C00030
1800C00030
1800C00030
E6033001CC
E6033001CC
1800C00030
1800C00030
E6633001CC
E6633001CC
199CC00030
199CC00030
E6633001CC
E6633001CC
E6633001CC
1800C00030
1800C00030
E6033001CC
E6033001CC
1800C00030
1800C00030
E6033199CC
E6033199CC
E6033199CC
1800CE6630
1800CE6630
E6003199C0
E6003199C0
ENDCHAR
STARTCHAR 044F
ENCODING 1103
SWIDTH 697 0
DWIDTH 31 0
BBX 25 33 3 0
BITMAP
06633180
06633180
199CCE00
199CCE00
E6633180
E6633180
18000E00
18000E00
18000E00
E6003180
E6003180
18000E00
18000E00
E6003180
E6003180
18000E00
18000E00
E6633180
E6633180
E6633180
199CCE00
199CCE00
06633180
06633180
19800E00
19800E00
E6003180
E6003180
E6003180
18000E00
18000E00
E6003180
E6003180
ENDCHAR
STARTCHAR 0451
ENCODING 1105
SWIDTH 697 0
DWIDTH 31 0
BBX 25 42 3 0
BITMAP
06633000
06633000
0180C000
0180C000
06633000
06633000
00000000
00000000
00000000
06633180
06633180
199CCE00
199CCE00
E6633180
E6633180
18000000
18000000
18000000
E6000000
E6000000
18000000
18000000
E6633000
E6633000
199CC000
199CC000
E6633000
E6633000
E6633000
18000000
18000000
E6000000
E6000000
18000000
18000000
E6633180
E6633180
E6633180
199CCE00
199CCE00
06633180
06633180
ENDCHAR
STARTCHAR 1E80
ENCODING 7808
SWIDTH 1080 0
DWIDTH 48 0
BBX 43 47 3 0
BITMAP
006300000000
006300000000
006300000000
001CC0000000
001CC0000000
000330000000
000330000000
0000CE000000
0000CE000000
000031800000
000031800000
000000000000
000000000000
000000000000
E60031800CE0
E60031800CE0
18000E000300
18000E000300
E60031800CE0
E60031800CE0
18000E000300
18000E000300
18000E000300
E60031800CE0
E60031800CE0
18000E000300
18000E000300
E60031800CE0
E60031800CE0
18000E000300
18000E000300
E60031800CE0
E60031800CE0
E60031800CE0
18000E000300
18000E000300
E60031800CE0
E60031800CE0
1980CE603300
1980CE603300
06633199CC00
06633199CC00
06633199CC00
019CC0663000
019CC0663000
00630019C000
00630019C000
ENDCHAR
STARTCHAR 1E81
ENCODING 7809
SWIDTH 1080 0
DWIDTH 48 0
BBX 43 47 3 0
BITMAP
006300000000
006300000000
006300000000
001CC0000000
001CC0000000
000330000000
000330000000
0000CE000000
0000CE000000
000031800000
000031800000
000000000000
000000000000
000000000000
E60031800CE0
E60031800CE0
18000E000300
18000E000300
E60031800CE0
E60031800CE0
18000E000300
18000E000300
18000E000300
E60031800CE0
E60031800CE0
18000E000300
18000E000300
E60031800CE0
E60031800CE0
18000E000300
18000E000300
E60031800CE0
E60031800CE0
E60031800CE0
18000E000300
18000E000300
E60031800CE0
E60031800CE0
1800CE600300
1800CE600300
E6633199CCE0
E6633199CCE0
E6633199CCE0
199CC0663300
199CC0663300
06630019CC00
06630019CC00
ENDCHAR
STARTCHAR 1E82
ENCODING 7810
SWIDTH 1080 0
DWIDTH 48 0
BBX 43 47 3 0
BITMAP
000000660000
000000660000
000000660000
000001980000
000001980000
00000E600000
00000E600000
000031800000
000031800000
0000CE000000
0000CE000000
000000000000
000000000000
000000000000
E60031800CE0
E60031800CE0
18000E000300
18000E000300
E60031800CE0
E60031800CE0
18000E000300
18000E000300
18000E000300
E60031800CE0
E60031800CE0
18000E000300
18000E000300
E60031800CE0
E60031800CE0
18000E000300
18000E000300
E60031800CE0
E60031800CE0
E60031800CE0
18000E000300
18000E000300
E60031800CE0
E60031800CE0
1980CE603300
1980CE603300
06633199CC00
06633199CC00
06633199CC00
019CC0663000
019CC0663000
00630019C000
00630019C000
ENDCHAR
STARTCHAR 1E83
ENCODING 7811
SWIDTH 1080 0
DWIDTH 48 0
BBX 43 47 3 0
BITMAP
000000660000
000000660000
000000660000
000001980000
000001980000
00000E600000
00000E600000
000031800000
000031800000
0000CE000000
0000CE000000
000000000000
000000000000
000000000000
E60031800CE0
E60031800CE0
18000E000300
18000E000300
E60031800CE0
E60031800CE0
18000E000300
18000E000300
18000E000300
E60031800CE0
E60031800CE0
18000E000300
18000E000300
E60031800CE0
E60031800CE0
18000E000300
18000E000300
E60031800CE0
E60031800CE0
E60031800CE0
18000E000300
18000E000300
E60031800CE0
E60031800CE0
1800CE600300
1800CE600300
E6633199CCE0
E6633199CCE0
E6633199CCE0
199CC0663300
199CC0663300
06630019CC00
06630019CC00
ENDCHAR
STARTCHAR 1E84
ENCODING 7812
SWIDTH 1080 0
DWIDTH 48 0
BBX 43 42 3 0
BITMAP
000331980000
000331980000
0000C0600000
0000C0600000
000331980000
000331980000
000000000000
000000000000
000000000000
E60031800CE0
E60031800CE0
18000E000300
18000E000300
E60031800CE0
E60031800CE0
18000E000300
18000E000300
18000E000300
E60031800CE0
E60031800CE0
18000E000300
18000E000300
E60031800CE0
E60031800CE0
18000E000300
18000E000300
E60031800CE0
E60031800CE0
E60031800CE0
18000E000300
18000E000300
E60031800CE0
E60031800CE0
1980CE603300
1980CE603300
06633199CC00
06633199CC00
06633199CC00
019CC0663000
019CC0663000
00630019C000
00630019C000
ENDCHAR
STARTCHAR 1E85
ENCODING 7813
SWIDTH 1080 0
DWIDTH 48 0
BBX 43 42 3 0
BITMAP
000331980000
000331980000
0000C0600000
0000C0600000
000331980000
000331980000
000000000000
000000000000
000000000000
E60031800CE0
E60031800CE0
18000E000300
18000E000300
E60031800CE0
E60031800CE0
18000E000300
18000E000300
18000E000300
E60031800CE0
E60031800CE0
18000E000300
18000E000300
E60031800CE0
E60031800CE0
18000E000300
18000E000300
E60031800CE0
E60031800CE0
E60031800CE0
18000E000300
18000E000300
E60031800CE0
E60031800CE0
1800CE600300
1800CE600300
E6633199CCE0
E6633199CCE0
E6633199CCE0
199CC0663300
199CC0663300
06630019CC00
06630019CC00
ENDCHAR
STARTCHAR 1E9E
ENCODING 7838
SWIDTH 697 0
DWIDTH 31 0
BBX 25 33 3 0
BITMAP
06633000
06633000
199CCE00
199CCE00
E6633180
E6633180
18000E00
18000E00
18000E00
E6003180
E6003180
1800CE00
1800CE00
E6633000
E6633000
181CCE00
181CCE00
E6633180
E6633180
E6633180
18000E00
18000E00
E6003180
E6003180
18000E00
18000E00
E6633180
E6633180
E6633180
181CCE00
181CCE00
E6633000
E6633000
ENDCHAR
STARTCHAR 1EA0
ENCODING 7840
SWIDTH 697 0
DWIDTH 31 0
BBX 25 42 3 -9
BITMAP
00630000
00630000
019CC000
019CC000
06633000
06633000
1980CE00
1980CE00
1980CE00
E6003180
E6003180
18000E00
18000E00
E6003180
E6003180
18000E00
18000E00
E6633180
E6633180
E6633180
199CCE00
199CCE00
E6633180
E6633180
18000E00
18000E00
E6003180
E6003180
E6003180
18000E00
18000E00
E6003180
E6003180
00000000
00000000
00630000
00630000
001C0000
001C0000
001C0000
00630000
00630000
ENDCHAR
STARTCHAR 1EA1
ENCODING 7841
SWIDTH 697 0
DWIDTH 31 0
BBX 25 42 3 -9
BITMAP
06633000
06633000
199CCE00
199CCE00
E6633180
E6633180
18000E00
18000E00
18000E00
E6003180
E6003180
18000E00
18000E00
E6003180
E6003180
18000E00
18000E00
E6633180
E6633180
E6633180
199CCE00
199CCE00
E6633180
E6633180
18000E00
18000E00
E6003180
E6003180
E6003180
18000E00
18000E00
E6003180
E6003180
00000000
00000000
00630000
00630000
001C0000
001C0000
001C0000
00630000
00630000
ENDCHAR
STARTCHAR 1EA2
ENCODING 7842
SWIDTH 697 0
DWIDTH 31 0
BBX 25 51 3 0
BITMAP
06630000
06630000
019CC000
019CC000
06633000
06633000
06633000
0000C000
0000C000
00633000
00633000
001CC000
001CC000
00630000
00630000
00000000
00000000
00000000
00630000
00630000
019CC000
019CC000
06633000
06633000
1980CE00
1980CE00
1980CE00
E6003180
E6003180
18000E00
18000E00
E6003180
E6003180
18000E00
18000E00
E6633180
E6633180
E6633180
199CCE00
199CCE00
E6633180
E6633180
18000E00
18000E00
E6003180
E6003180
E6003180
18000E00
18000E00
E6003180
E6003180
ENDCHAR
STARTCHAR 1EA3
ENCODING 7843
SWIDTH 697 0
DWIDTH 31 0
BBX 25 51 3 0
BITMAP
06630000
06630000
019CC000
019CC000
06633000
06633000
06633000
0000C000
0000C000
00633000
00633000
001CC000
001CC000
00630000
00630000
00000000
00000000
00000000
06633000
06633000
199CCE00
199CCE00
E6633180
E6633180
18000E00
18000E00
18000E00
E6003180
E6003180
18000E00
18000E00
E6003180
E6003180
18000E00
18000E00
E6633180
E6633180
E6633180
199CCE00
199CCE00
E6633180
E6633180
18000E00
18000E00
E6003180
E6003180
E6003180
18000E00
18000E00
E6003180
E6003180
ENDCHAR
STARTCHAR 1EA4
ENCODING 7844
SWIDTH 697 0
DWIDTH 31 0
BBX 25 60 3 0
BITMAP
0000CE00
0000CE00
00033000
00033000
001CC000
001CC000
001CC000
00630000
00630000
019C0000
019C0000
00000000
00000000
00630000
00630000
00630000
019CC000
019CC000
06633000
06633000
0180C000
0180C000
06633000
06633000
00000000
00000000
00000000
00630000
00630000
019CC000
019CC000
06633000
06633000
1980CE00
1980CE00
1980CE00
E6003180
E6003180
18000E00
18000E00
E6003180
E6003180
18000E00
18000E00
E6633180
E6633180
E6633180
199CCE00
199CCE00
E6633180
E6633180
18000E00
18000E00
E6003180
E6003180
E6003180
18000E00
18000E00
E6003180
E6003180
ENDCHAR
STARTCHAR 1EA5
ENCODING 7845
SWIDTH 697 0
DWIDTH 31 0
BBX 25 60 3 0
BITMAP
0000CE00
0000CE00
00033000
00033000
001CC000
001CC000
001CC000
00630000
00630000
019C0000
019C0000
00000000
00000000
00630000
00630000
00630000
019CC000
019CC000
06633000
06633000
0180C000
0180C000
06633000
06633000
00000000
00000000
00000000
06633000
06633000
199CCE00
199CCE00
E6633180
E6633180
18000E00
18000E00
18000E00
E6003180
E6003180
18000E00
18000E00
E6003180
E6003180
18000E00
18000E00
E6633180
E6633180
E6633180
199CCE00
199CCE00
E6633180
E6633180
18000E00
18000E00
E6003180
E6003180
E6003180
18000E00
18000E00
E6003180
E6003180
ENDCHAR
STARTCHAR 1EA6
ENCODING 7846
SWIDTH 697 0
DWIDTH 31 0
BBX 25 60 3 0
BITMAP
E6000000
E6000000
19800000
19800000
06600000
06600000
06600000
019C0000
019C0000
00630000
00630000
00000000
00000000
00630000
00630000
00630000
019CC000
019CC000
06633000
06633000
0180C000
0180C000
06633000
06633000
00000000
00000000
00000000
00630000
00630000
019CC000
019CC000
06633000
06633000
1980CE00
1980CE00
1980CE00
E6003180
E6003180
18000E00
18000E00
E6003180
E6003180
18000E00
18000E00
E6633180
E6633180
E6633180
199CCE00
199CCE00
E6633180
E6633180
18000E00
18000E00
E6003180
E6003180
E6003180
18000E00
18000E00
E6003180
E6003180
ENDCHAR
STARTCHAR 1EA7
ENCODING 7847
SWIDTH 697 0
DWIDTH 31 0
BBX 25 60 3 0
BITMAP
E6000000
E6000000
19800000
19800000
06600000
06600000
06600000
019C0000
019C0000
00630000
00630000
00000000
00000000
00630000
00630000
00630000
019CC000
019CC000
06633000
06633000
0180C000
0180C000
06633000
06633000
00000000
00000000
00000000
06633000
06633000
199CCE00
199CCE00
E6633180
E6633180
18000E00
18000E00
18000E00
E6003180
E6003180
18000E00
18000E00
E6003180
E6003180
18000E00
18000E00
E6633180
E6633180
E6633180
199CCE00
199CCE00
E6633180
E6633180
18000E00
18000E00
E6003180
E6003180
E6003180
18000E00
18000E00
E6003180
E6003180
ENDCHAR
STARTCHAR 1EA8
ENCODING 7848
SWIDTH 697 0
DWIDTH 31 0
BBX 25 64 3 0
BITMAP
06630000
06630000
019CC000
019CC000
06633000
06633000
0000C000
0000C000
00633000
00633000
00633000
001CC000
001CC000
00630000
00630000
00000000
00000000
00630000
00630000
00630000
019CC000
019CC000
06633000
06633000
0180C000
0180C000
06633000
06633000
00000000
00000000
00000000
00630000
00630000
019CC000
019CC000
06633000
06633000
1980CE00
1980CE00
1980CE00
E6003180
E6003180
18000E00
18000E00
E6003180
E6003180
18000E00
18000E00
E6633180
E6633180
E6633180
199CCE00
199CCE00
E6633180
E6633180
18000E00
18000E00
E6003180
E6003180
E6003180
18000E00
18000E00
E6003180
E6003180
ENDCHAR
STARTCHAR 1EA9
ENCODING 7849
SWIDTH 697 0
DWIDTH 31 0
BBX 25 64 3 0
BITMAP
06630000
06630000
019CC000
019CC000
06633000
06633000
0000C000
0000C000
00633000
00633000
00633000
001CC000
001CC000
00630000
00630000
00000000
00000000
00630000
00630000
00630000
019CC000
019CC000
06633000
06633000
0180C000
0180C000
06633000
06633000
00000000
00000000
00000000
06633000
06633000
199CCE00
199CCE00
E6633180
E6633180
18000E00
18000E00
18000E00
E6003180
E6003180
18000E00
18000E00
E6003180
E6003180
18000E00
18000E00
E6633180
E6633180
E6633180
199CCE00
199CCE00
E6633180
E6633180
18000E00
18000E00
E6003180
E6003180
E6003180
18000E00
18000E00
E6003180
E6003180
ENDCHAR
STARTCHAR 1EAA
ENCODING 7850
SWIDTH 697 0
DWIDTH 31 0
BBX 25 60 3 0
BITMAP
06603180
06603180
199C0E00
199C0E00
E6633180
E6633180
E6633180
181CCE00
181CCE00
E6033000
E6033000
00000000
00000000
00630000
00630000
00630000
019CC000
019CC000
06633000
06633000
0180C000
0180C000
06633000
06633000
00000000
00000000
00000000
00630000
00630000
019CC000
019CC000
06633000
06633000
1980CE00
1980CE00
1980CE00
E6003180
E6003180
18000E00
18000E00
E6003180
E6003180
18000E00
18000E00
E6633180
E6633180
E6633180
199CCE00
199CCE00
E6633180
E6633180
18000E00
18000E00
E6003180
E6003180
E6003180
18000E00
18000E00
E6003180
E6003180
ENDCHAR
STARTCHAR 1EAB
ENCODING 7851
SWIDTH 697 0
DWIDTH 31 0
BBX 25 60 3 0
BITMAP
06603180
06603180
199C0E00
199C0E00
E6633180
E6633180
E6633180
181CCE00
181CCE00
E6033000
E6033000
00000000
00000000
00630000
00630000
00630000
019CC000
019CC000
06633000
06633000
0180C000
0180C000
06633000
06633000
00000000
00000000
00000000
06633000
06633000
199CCE00
199CCE00
E6633180
E6633180
18000E00
18000E00
18000E00
E6003180
E6003180
18000E00
18000E00
E6003180
E6003180
18000E00
18000E00
E6633180
E6633180
E6633180
199CCE00
199CCE00
E6633180
E6633180
18000E00
18000E00
E6003180
E6003180
E6003180
18000E00
18000E00
E6003180
E6003180
ENDCHAR
STARTCHAR 1EAC
ENCODING 7852
SWIDTH 697 0
DWIDTH 31 0
BBX 25 56 3 -9
BITMAP
00630000
00630000
00630000
019CC000
019CC000
06633000
06633000
0180C000
0180C000
06633000
06633000
00000000
00000000
00000000
00630000
00630000
019CC000
019CC000
06633000
06633000
1980CE00
1980CE00
1980CE00
E6003180
E6003180
18000E00
18000E00
E6003180
E6003180
18000E00
18000E00
E6633180
E6633180
E6633180
199CCE00
199CCE00
E6633180
E6633180
18000E00
18000E00
E6003180
E6003180
E6003180
18000E00
18000E00
E6003180
E6003180
00000000
00000000
00630000
00630000
001C0000
001C0000
001C0000
00630000
00630000
ENDCHAR
STARTCHAR 1EAD
ENCODING 7853
SWIDTH 697 0
DWIDTH 31 0
BBX 25 56 3 -9
BITMAP
00630000
00630000
00630000
019CC000
019CC000
06633000
06633000
0180C000
0180C000
06633000
06633000
00000000
00000000
00000000
06633000
06633000
199CCE00
199CCE00
E6633180
E6633180
18000E00
18000E00
18000E00
E6003180
E6003180
18000E00
18000E00
E6003180
E6003180
18000E00
18000E00
E6633180
E6633180
E6633180
199CCE00
199CCE00
E6633180
E6633180
18000E00
18000E00
E6003180
E6003180
E6003180
18000E00
18000E00
E6003180
E6003180
00000000
00000000
00630000
00630000
001C0000
001C0000
001C0000
00630000
00630000
ENDCHAR
STARTCHAR 1EAE
ENCODING 7854
SWIDTH 697 0
DWIDTH 31 0
BBX 25 60 3 0
BITMAP
0000CE00
0000CE00
00033000
00033000
001CC000
001CC000
001CC000
00630000
00630000
019C0000
019C0000
00000000
00000000
1980CE00
1980CE00
1980CE00
06003000
06003000
199CCE00
199CCE00
06633000
06633000
019CC000
019CC000
00000000
00000000
00000000
00630000
00630000
019CC000
019CC000
06633000
06633000
1980CE00
1980CE00
1980CE00
E6003180
E6003180
18000E00
18000E00
E6003180
E6003180
18000E00
18000E00
E6633180
E6633180
E6633180
199CCE00
199CCE00
E6633180
E6633180
18000E00
18000E00
E6003180
E6003180
E6003180
18000E00
18000E00
E6003180
E6003180
ENDCHAR
STARTCHAR 1EAF
ENCODING 7855
SWIDTH 697 0
DWIDTH 31 0
BBX 25 60 3 0
BITMAP
0000CE00
0000CE00
00033000
00033000
001CC000
001CC000
001CC000
00630000
00630000
019C0000
019C0000
00000000
00000000
1980CE00
1980CE00
1980CE00
06003000
06003000
199CCE00
199CCE00
06633000
06633000
019CC000
019CC000
00000000
00000000
00000000
06633000
06633000
199CCE00
199CCE00
E6633180
E6633180
18000E00
18000E00
18000E00
E6003180
E6003180
18000E00
18000E00
E6003180
E6003180
18000E00
18000E00
E6633180
E6633180
E6633180
199CCE00
199CCE00
E6633180
E6633180
18000E00
18000E00
E6003180
E6003180
E6003180
18000E00
18000E00
E6003180
E6003180
ENDCHAR
STARTCHAR 1EB0
ENCODING 7856
SWIDTH 697 0
DWIDTH 31 0
BBX 25 60 3 0
BITMAP
CE000000
CE000000
31800000
31800000
0E600000
0E600000
0E600000
01980000
01980000
00660000
00660000
00000000
00000000
1980CE00
1980CE00
1980CE00
06003000
06003000
199CCE00
199CCE00
06633000
06633000
019CC000
019CC000
00000000
00000000
00000000
00630000
00630000
019CC000
019CC000
06633000
06633000
1980CE00
1980CE00
1980CE00
E6003180
E6003180
18000E00
18000E00
E6003180
E6003180
18000E00
18000E00
E6633180
E6633180
E6633180
199CCE00
199CCE00
E6633180
E6633180
18000E00
18000E00
E6003180
E6003180
E6003180
18000E00
18000E00
E6003180
E6003180
ENDCHAR
STARTCHAR 1EB1
ENCODING 7857
SWIDTH 697 0
DWIDTH 31 0
BBX 25 60 3 0
BITMAP
CE000000
CE000000
31800000
31800000
0E600000
0E600000
0E600000
01980000
01980000
00660000
00660000
00000000
00000000
1980CE00
1980CE00
1980CE00
06003000
06003000
199CCE00
199CCE00
06633000
06633000
019CC000
019CC000
00000000
00000000
00000000
06633000
06633000
199CCE00
199CCE00
E6633180
E6633180
18000E00
18000E00
18000E00
E6003180
E6003180
18000E00
18000E00
E6003180
E6003180
18000E00
18000E00
E6633180
E6633180
E6633180
199CCE00
199CCE00
E6633180
E6633180
18000E00
18000E00
E6003180
E6003180
E6003180
18000E00
18000E00
E6003180
E6003180
ENDCHAR
STARTCHAR 1EB2
ENCODING 7858
SWIDTH 697 0
DWIDTH 31 0
BBX 25 64 3 0
BITMAP
06630000
06630000
019CC000
019CC000
06633000
06633000
0000C000
0000C000
00633000
00633000
00633000
001CC000
001CC000
00630000
00630000
00000000
00000000
1980CE00
1980CE00
1980CE00
06003000
06003000
199CCE00
199CCE00
06633000
06633000
019CC000
019CC000
00000000
00000000
00000000
00630000
00630000
019CC000
019CC000
06633000
06633000
1980CE00
1980CE00
1980CE00
E6003180
E6003180
18000E00
18000E00
E6003180
E6003180
18000E00
18000E00
E6633180
E6633180
E6633180
199CCE00
199CCE00
E6633180
E6633180
18000E00
18000E00
E6003180
E6003180
E6003180
18000E00
18000E00
E6003180
E6003180
ENDCHAR
STARTCHAR 1EB3
ENCODING 7859
SWIDTH 697 0
DWIDTH 31 0
BBX 25 64 3 0
BITMAP
06630000
06630000
019CC000
019CC000
06633000
06633000
0000C000
0000C000
00633000
00633000
00633000
001CC000
001CC000
00630000
00630000
00000000
00000000
1980CE00
1980CE00
1980CE00
06003000
06003000
199CCE00
199CCE00
06633000
06633000
019CC000
019CC000
00000000
00000000
00000000
06633000
06633000
199CCE00
199CCE00
E6633180
E6633180
18000E00
18000E00
18000E00
E6003180
E6003180
18000E00
18000E00
E6003180
E6003180
18000E00
18000E00
E6633180
E6633180
E6633180
199CCE00
199CCE00
E6633180
E6633180
18000E00
18000E00
E6003180
E6003180
E6003180
18000E00
18000E00
E6003180
E6003180
ENDCHAR
STARTCHAR 1EB4
ENCODING 7860
SWIDTH 697 0
DWIDTH 31 0
BBX 25 60 3 0
BITMAP
06603180
06603180
199C0E00
199C0E00
E6633180
E6633180
E6633180
181CCE00
181CCE00
E6033000
E6033000
00000000
00000000
1980CE00
1980CE00
1980CE00
06003000
06003000
199CCE00
199CCE00
06633000
06633000
019CC000
019CC000
00000000
00000000
00000000
00630000
00630000
019CC000
019CC000
06633000
06633000
1980CE00
1980CE00
1980CE00
E6003180
E6003180
18000E00
18000E00
E6003180
E6003180
18000E00
18000E00
E6633180
E6633180
E6633180
199CCE00
199CCE00
E6633180
E6633180
18000E00
18000E00
E6003180
E6003180
E6003180
18000E00
18000E00
E6003180
E6003180
ENDCHAR
STARTCHAR 1EB5
ENCODING 7861
SWIDTH 697 0
DWIDTH 31 0
BBX 25 60 3 0
BITMAP
06603180
06603180
199C0E00
199C0E00
E6633180
E6633180
E6633180
181CCE00
181CCE00
E6033000
E6033000
00000000
00000000
1980CE00
1980CE00
1980CE00
06003000
06003000
199CCE00
199CCE00
06633000
06633000
019CC000
019CC000
00000000
00000000
00000000
06633000
06633000
199CCE00
199CCE00
E6633180
E6633180
18000E00
18000E00
18000E00
E6003180
E6003180
18000E00
18000E00
E6003180
E6003180
18000E00
18000E00
E6633180
E6633180
E6633180
199CCE00
199CCE00
E6633180
E6633180
18000E00
18000E00
E6003180
E6003180
E6003180
18000E00
18000E00
E6003180
E6003180
ENDCHAR
STARTCHAR 1EB6
ENCODING 7862
SWIDTH 697 0
DWIDTH 31 0
BBX 25 56 3 -9
BITMAP
1980CE00
1980CE00
1980CE00
06003000
06003000
199CCE00
199CCE00
06633000
06633000
019CC000
019CC000
00000000
00000000
00000000
00630000
00630000
019CC000
019CC000
06633000
06633000
1980CE00
1980CE00
1980CE00
E6003180
E6003180
18000E00
18000E00
E6003180
E6003180
18000E00
18000E00
E6633180
E6633180
E6633180
199CCE00
199CCE00
E6633180
E6633180
18000E00
18000E00
E6003180
E6003180
E6003180
18000E00
18000E00
E6003180
E6003180
00000000
00000000
00630000
00630000
001C0000
001C0000
001C0000
00630000
00630000
ENDCHAR
STARTCHAR 1EB7
ENCODING 7863
SWIDTH 697 0
DWIDTH 31 0
BBX 25 56 3 -9
BITMAP
1980CE00
1980CE00
1980CE00
06003000
06003000
199CCE00
199CCE00
06633000
06633000
019CC000
019CC000
00000000
00000000
00000000
06633000
06633000
199CCE00
199CCE00
E6633180
E6633180
18000E00
18000E00
18000E00
E6003180
E6003180
18000E00
18000E00
E6003180
E6003180
18000E00
18000E00
E6633180
E6633180
E6633180
199CCE00
199CCE00
E6633180
E6633180
18000E00
18000E00
E6003180
E6003180
E6003180
18000E00
18000E00
E6003180
E6003180
00000000
00000000
00630000
00630000
001C0000
001C0000
001C0000
00630000
00630000
ENDCHAR
STARTCHAR 1EB8
ENCODING 7864
SWIDTH 697 0
DWIDTH 31 0
BBX 25 42 3 -9
BITMAP
00633180
00633180
019CCE00
019CCE00
06633180
06633180
19800000
19800000
19800000
E6000000
E6000000
18000000
18000000
E6633000
E6633000
199CC000
199CC000
E6633000
E6633000
E6633000
18000000
18000000
E6000000
E6000000
19800000
19800000
06633180
06633180
06633180
019CCE00
019CCE00
00633180
00633180
00000000
00000000
00630000
00630000
001C0000
001C0000
001C0000
00630000
00630000
ENDCHAR
STARTCHAR 1EB9
ENCODING 7865
SWIDTH 697 0
DWIDTH 31 0
BBX 25 42 3 -9
BITMAP
06633180
06633180
199CCE00
199CCE00
E6633180
E6633180
18000000
18000000
18000000
E6000000
E6000000
18000000
18000000
E6633000
E6633000
199CC000
199CC000
E6633000
E6633000
E6633000
18000000
18000000
E6000000
E6000000
18000000
18000000
E6633180
E6633180
E6633180
199CCE00
199CCE00
06633180
06633180
00000000
00000000
00630000
00630000
001C0000
001C0000
001C0000
00630000
00630000
ENDCHAR
STARTCHAR 1EBA
ENCODING 7866
SWIDTH 697 0
DWIDTH 31 0
BBX 25 51 3 0
BITMAP
06630000
06630000
019CC000
019CC000
06633000
06633000
06633000
0000C000
0000C000
00633000
00633000
001CC000
001CC000
00630000
00630000
00000000
00000000
00000000
00633180
00633180
019CCE00
019CCE00
06633180
06633180
19800000
19800000
19800000
E6000000
E6000000
18000000
18000000
E6633000
E6633000
199CC000
199CC000
E6633000
E6633000
E6633000
18000000
18000000
E6000000
E6000000
19800000
19800000
06633180
06633180
06633180
019CCE00
019CCE00
00633180
00633180
ENDCHAR
STARTCHAR 1EBB
ENCODING 7867
SWIDTH 697 0
DWIDTH 31 0
BBX 25 51 3 0
BITMAP
06630000
06630000
019CC000
019CC000
06633000
06633000
06633000
0000C000
0000C000
00633000
00633000
001CC000
001CC000
00630000
00630000
00000000
00000000
00000000
06633180
06633180
199CCE00
199CCE00
E6633180
E6633180
18000000
18000000
18000000
E6000000
E6000000
18000000
18000000
E6633000
E6633000
199CC000
199CC000
E6633000
E6633000
E6633000
18000000
18000000
E6000000
E6000000
18000000
18000000
E6633180
E6633180
E6633180
199CCE00
199CCE00
06633180
06633180
ENDCHAR
STARTCHAR 1EBC
ENCODING 7868
SWIDTH 697 0
DWIDTH 31 0
BBX 25 47 3 0
BITMAP
06603180
06603180
06603180
199C0E00
199C0E00
E6633180
E6633180
181CCE00
181CCE00
E6033000
E6033000
00000000
00000000
00000000
00633180
00633180
019CCE00
019CCE00
06633180
06633180
19800000
19800000
19800000
E6000000
E6000000
18000000
18000000
E6633000
E6633000
199CC000
199CC000
E6633000
E6633000
E6633000
18000000
18000000
E6000000
E6000000
19800000
19800000
06633180
06633180
06633180
019CCE00
019CCE00
00633180
00633180
ENDCHAR
STARTCHAR 1EBD
ENCODING 7869
SWIDTH 697 0
DWIDTH 31 0
BBX 25 47 3 0
BITMAP
06603180
06603180
06603180
199C0E00
199C0E00
E6633180
E6633180
181CCE00
181CCE00
E6033000
E6033000
00000000
00000000
00000000
06633180
06633180
199CCE00
199CCE00
E6633180
E6633180
18000000
18000000
18000000
E6000000
E6000000
18000000
18000000
E6633000
E6633000
199CC000
199CC000
E6633000
E6633000
E6633000
18000000
18000000
E6000000
E6000000
18000000
18000000
E6633180
E6633180
E6633180
199CCE00
199CCE00
06633180
06633180
ENDCHAR
STARTCHAR 1EBE
ENCODING 7870
SWIDTH 697 0
DWIDTH 31 0
BBX 25 60 3 0
BITMAP
0000CE00
0000CE00
00033000
00033000
001CC000
001CC000
001CC000
00630000
00630000
019C0000
019C0000
00000000
00000000
00630000
00630000
00630000
019CC000
019CC000
06633000
06633000
0180C000
0180C000
06633000
06633000
00000000
00000000
00000000
00633180
00633180
019CCE00
019CCE00
06633180
06633180
19800000
19800000
19800000
E6000000
E6000000
18000000
18000000
E6633000
E6633000
199CC000
199CC000
E6633000
E6633000
E6633000
18000000
18000000
E6000000
E6000000
19800000
19800000
06633180
06633180
06633180
019CCE00
019CCE00
00633180
00633180
ENDCHAR
STARTCHAR 1EBF
ENCODING 7871
SWIDTH 697 0
DWIDTH 31 0
BBX 25 60 3 0
BITMAP
0000CE00
0000CE00
00033000
00033000
001CC000
001CC000
001CC000
00630000
00630000
019C0000
019C0000
00000000
00000000
00630000
00630000
00630000
019CC000
019CC000
06633000
06633000
0180C000
0180C000
06633000
06633000
00000000
00000000
00000000
06633180
06633180
199CCE00
199CCE00
E6633180
E6633180
18000000
18000000
18000000
E6000000
E6000000
18000000
18000000
E6633000
E6633000
199CC000
199CC000
E6633000
E6633000
E6633000
18000000
18000000
E6000000
E6000000
18000000
18000000
E6633180
E6633180
E6633180
199CCE00
199CCE00
06633180
06633180
ENDCHAR
STARTCHAR 1EC0
ENCODING 7872
SWIDTH 697 0
DWIDTH 31 0
BBX 25 60 3 0
BITMAP
E6000000
E6000000
19800000
19800000
06600000
06600000
06600000
019C0000
019C0000
00630000
00630000
00000000
00000000
00630000
00630000
00630000
019CC000
019CC000
06633000
06633000
0180C000
0180C000
06633000
06633000
00000000
00000000
00000000
00633180
00633180
019CCE00
019CCE00
06633180
06633180
19800000
19800000
19800000
E6000000
E6000000
18000000
18000000
E6633000
E6633000
199CC000
199CC000
E6633000
E6633000
E6633000
18000000
18000000
E6000000
E6000000
19800000
19800000
06633180
06633180
06633180
019CCE00
019CCE00
00633180
00633180
ENDCHAR
STARTCHAR 1EC1
ENCODING 7873
SWIDTH 697 0
DWIDTH 31 0
BBX 25 60 3 0
BITMAP
E6000000
E6000000
19800000
19800000
06600000
06600000
06600000
019C0000
019C0000
00630000
00630000
00000000
00000000
00630000
00630000
00630000
019CC000
019CC000
06633000
06633000
0180C000
0180C000
06633000
06633000
00000000
00000000
00000000
06633180
06633180
199CCE00
199CCE00
E6633180
E6633180
18000000
18000000
18000000
E6000000
E6000000
18000000
18000000
E6633000
E6633000
199CC000
199CC000
E6633000
E6633000
E6633000
18000000
18000000
E6000000
E6000000
18000000
18000000
E6633180
E6633180
E6633180
199CCE00
199CCE00
06633180
06633180
ENDCHAR
STARTCHAR 1EC2
ENCODING 7874
SWIDTH 697 0
DWIDTH 31 0
BBX 25 64 3 0
BITMAP
06630000
06630000
019CC000
019CC000
06633000
06633000
0000C000
0000C000
00633000
00633000
00633000
001CC000
001CC000
00630000
00630000
00000000
00000000
00630000
00630000
00630000
019CC000
019CC000
06633000
06633000
0180C000
0180C000
06633000
06633000
00000000
00000000
00000000
00633180
00633180
019CCE00
019CCE00
06633180
06633180
19800000
19800000
19800000
E6000000
E6000000
18000000
18000000
E6633000
E6633000
199CC000
199CC000
E6633000
E6633000
E6633000
18000000
18000000
E6000000
E6000000
19800000
19800000
06633180
06633180
06633180
019CCE00
019CCE00
00633180
00633180
ENDCHAR
STARTCHAR 1EC3
ENCODING 7875
SWIDTH 697 0
DWIDTH 31 0
BBX 25 64 3 0
BITMAP
06630000
06630000
019CC000
019CC000
06633000
06633000
0000C000
0000C000
00633000
00633000
00633000
001CC000
001CC000
00630000
00630000
00000000
00000000
00630000
00630000
00630000
019CC000
019CC000
06633000
06633000
0180C000
0180C000
06633000
06633000
00000000
00000000
00000000
06633180
06633180
199CCE00
199CCE00
E6633180
E6633180
18000000
18000000
18000000
E6000000
E6000000
18000000
18000000
E6633000
E6633000
199CC000
199CC000
E6633000
E6633000
E6633000
18000000
18000000
E6000000
E6000000
18000000
18000000
E6633180
E6633180
E6633180
199CCE00
199CCE00
06633180
06633180
ENDCHAR
STARTCHAR 1EC4
ENCODING 7876
SWIDTH 697 0
DWIDTH 31 0
BBX 25 60 3 0
BITMAP
06603180
06603180
199C0E00
199C0E00
E6633180
E6633180
E6633180
181CCE00
181CCE00
E6033000
E6033000
00000000
00000000
00630000
00630000
00630000
019CC000
019CC000
06633000
06633000
0180C000
0180C000
06633000
06633000
00000000
00000000
00000000
00633180
00633180
019CCE00
019CCE00
06633180
06633180
19800000
19800000
19800000
E6000000
E6000000
18000000
18000000
E6633000
E6633000
199CC000
199CC000
E6633000
E6633000
E6633000
18000000
18000000
E6000000
E6000000
19800000
19800000
06633180
06633180
06633180
019CCE00
019CCE00
00633180
00633180
ENDCHAR
STARTCHAR 1EC5
ENCODING 7877
SWIDTH 697 0
DWIDTH 31 0
BBX 25 60 3 0
BITMAP
06603180
06603180
199C0E00
199C0E00
E6633180
E6633180
E6633180
181CCE00
181CCE00
E6033000
E6033000
00000000
00000000
00630000
00630000
00630000
019CC000
019CC000
06633000
06633000
0180C000
0180C000
06633000
06633000
00000000
00000000
00000000
06633180
06633180
199CCE00
199CCE00
E6633180
E6633180
18000000
18000000
18000000
E6000000
E6000000
18000000
18000000
E6633000
E6633000
199CC000
199CC000
E6633000
E6633000
E6633000
18000000
18000000
E6000000
E6000000
18000000
18000000
E6633180
E6633180
E6633180
199CCE00
199CCE00
06633180
06633180
ENDCHAR
STARTCHAR 1EC6
ENCODING 7878
SWIDTH 697 0
DWIDTH 31 0
BBX 25 56 3 -9
BITMAP
00630000
00630000
00630000
019CC000
019CC000
06633000
06633000
0180C000
0180C000
06633000
06633000
00000000
00000000
00000000
00633180
00633180
019CCE00
019CCE00
06633180
06633180
19800000
19800000
19800000
E6000000
E6000000
18000000
18000000
E6633000
E6633000
199CC000
199CC000
E6633000
E6633000
E6633000
18000000
18000000
E6000000
E6000000
19800000
19800000
06633180
06633180
06633180
019CCE00
019CCE00
00633180
00633180
00000000
00000000
00630000
00630000
001C0000
001C0000
001C0000
00630000
00630000
ENDCHAR
STARTCHAR 1EC7
ENCODING 7879
SWIDTH 697 0
DWIDTH 31 0
BBX 25 56 3 -9
BITMAP
00630000
00630000
00630000
019CC000
019CC000
06633000
06633000
0180C000
0180C000
06633000
06633000
00000000
00000000
00000000
06633180
06633180
199CCE00
199CCE00
E6633180
E6633180
18000000
18000000
18000000
E6000000
E6000000
18000000
18000000
E6633000
E6633000
199CC000
199CC000
E6633000
E6633000
E6633000
18000000
18000000
E6000000
E6000000
18000000
18000000
E6633180
E6633180
E6633180
199CCE00
199CCE00
06633180
06633180
00000000
00000000
00630000
00630000
001C0000
001C0000
001C0000
00630000
00630000
ENDCHAR
STARTCHAR 1EC8
ENCODING 7880
SWIDTH 495 0
DWIDTH 22 0
BBX 16 51 3 0
BITMAP
E660
E660
199C
199C
E663
E663
E663
001C
001C
0663
0663
019C
019C
0660
0660
0000
0000
0000
E663
E663
199C
199C
E663
E663
0180
0180
0180
0660
0660
0180
0180
0660
0660
0180
0180
0660
0660
0660
0180
0180
0660
0660
0180
0180
E663
E663
E663
199C
199C
E663
E663
ENDCHAR
STARTCHAR 1EC9
ENCODING 7881
SWIDTH 292 0
DWIDTH 13 0
BBX 15 51 -1 0
BITMAP
CE60
CE60
3198
3198
CE66
CE66
CE66
0018
0018
0E66
0E66
0198
0198
0E60
0E60
0000
0000
0000
0E60
0E60
0180
0180
0E60
0E60
0180
0180
0180
0E60
0E60
0180
0180
0E60
0E60
0180
0180
0E60
0E60
0E60
0180
0180
0E60
0E60
0180
0180
0E60
0E60
0E60
0180
0180
0E60
0E60
ENDCHAR
STARTCHAR 1ECA
ENCODING 7882
SWIDTH 495 0
DWIDTH 22 0
BBX 16 42 3 -9
BITMAP
E663
E663
199C
199C
E663
E663
0180
0180
0180
0660
0660
0180
0180
0660
0660
0180
0180
0660
0660
0660
0180
0180
0660
0660
0180
0180
E663
E663
E663
199C
199C
E663
E663
0000
0000
0660
0660
0180
0180
0180
0660
0660
ENDCHAR
STARTCHAR 1ECB
ENCODING 7883
SWIDTH 292 0
DWIDTH 13 0
BBX 7 42 3 -9
BITMAP
E6
E6
18
18
E6
E6
18
18
18
E6
E6
18
18
E6
E6
18
18
E6
E6
E6
18
18
E6
E6
18
18
E6
E6
E6
18
18
E6
E6
00
00
E6
E6
18
18
18
E6
E6
ENDCHAR
STARTCHAR 1ECC
ENCODING 7884
SWIDTH 787 0
DWIDTH 35 0
BBX 29 42 3 -9
BITMAP
00633000
00633000
019CCE00
019CCE00
06633180
06633180
19800E60
19800E60
19800E60
E6000198
E6000198
18000060
18000060
E6000198
E6000198
18000060
18000060
E6000198
E6000198
E6000198
18000060
18000060
E6000198
E6000198
19800E60
19800E60
06633180
06633180
06633180
019CCE00
019CCE00
00633000
00633000
00000000
00000000
001CC000
001CC000
00030000
00030000
00030000
001CC000
001CC000
ENDCHAR
STARTCHAR 1ECD
ENCODING 7885
SWIDTH 697 0
DWIDTH 31 0
BBX 25 42 3 -9
BITMAP
06633000
06633000
199CCE00
199CCE00
E6633180
E6633180
18000E00
18000E00
18000E00
E6003180
E6003180
18000E00
18000E00
E6003180
E6003180
18000E00
18000E00
E6003180
E6003180
E6003180
18000E00
18000E00
E6003180
E6003180
18000E00
18000E00
E6633180
E6633180
E6633180
199CCE00
199CCE00
06633000
06633000
00000000
00000000
00630000
00630000
001C0000
001C0000
001C0000
00630000
00630000
ENDCHAR
STARTCHAR 1ECE
ENCODING 7886
SWIDTH 787 0
DWIDTH 35 0
BBX 29 51 3 0
BITMAP
019CC000
019CC000
00633000
00633000
019CCE00
019CCE00
019CCE00
00003000
00003000
001CCE00
001CCE00
00033000
00033000
001CC000
001CC000
00000000
00000000
00000000
00633000
00633000
019CCE00
019CCE00
06633180
06633180
19800E60
19800E60
19800E60
E6000198
E6000198
18000060
18000060
E6000198
E6000198
18000060
18000060
E6000198
E6000198
E6000198
18000060
18000060
E6000198
E6000198
19800E60
19800E60
06633180
06633180
06633180
019CCE00
019CCE00
00633000
00633000
ENDCHAR
STARTCHAR 1ECF
ENCODING 7887
SWIDTH 697 0
DWIDTH 31 0
BBX 25 51 3 0
BITMAP
06630000
06630000
019CC000
019CC000
06633000
06633000
06633000
0000C000
0000C000
00633000
00633000
001CC000
001CC000
00630000
00630000
00000000
00000000
00000000
06633000
06633000
199CCE00
199CCE00
E6633180
E6633180
18000E00
18000E00
18000E00
E6003180
E6003180
18000E00
18000E00
E6003180
E6003180
18000E00
18000E00
E6003180
E6003180
E6003180
18000E00
18000E00
E6003180
E6003180
18000E00
18000E00
E6633180
E6633180
E6633180
199CCE00
199CCE00
06633000
06633000
ENDCHAR
STARTCHAR 1ED0
ENCODING 7888
SWIDTH 787 0
DWIDTH 35 0
BBX 29 60 3 0
BITMAP
00003180
00003180
0000CE00
0000CE00
00033000
00033000
00033000
001CC000
001CC000
00630000
00630000
00000000
00000000
001CC000
001CC000
001CC000
00633000
00633000
019CCE00
019CCE00
00603000
00603000
019CCE00
019CCE00
00000000
00000000
00000000
00633000
00633000
019CCE00
019CCE00
06633180
06633180
19800E60
19800E60
19800E60
E6000198
E6000198
18000060
18000060
E6000198
E6000198
18000060
18000060
E6000198
E6000198
E6000198
18000060
18000060
E6000198
E6000198
19800E60
19800E60
06633180
06633180
06633180
019CCE00
019CCE00
00633000
00633000
ENDCHAR
STARTCHAR 1ED1
ENCODING 7889
SWIDTH 697 0
DWIDTH 31 0
BBX 25 60 3 0
BITMAP
0000CE00
0000CE00
00033000
00033000
001CC000
001CC000
001CC000
00630000
00630000
019C0000
019C0000
00000000
00000000
00630000
00630000
00630000
019CC000
019CC000
06633000
06633000
0180C000
0180C000
06633000
06633000
00000000
00000000
00000000
06633000
06633000
199CCE00
199CCE00
E6633180
E6633180
18000E00
18000E00
18000E00
E6003180
E6003180
18000E00
18000E00
E6003180
E6003180
18000E00
18000E00
E6003180
E6003180
E6003180
18000E00
18000E00
E6003180
E6003180
18000E00
18000E00
E6633180
E6633180
E6633180
199CCE00
199CCE00
06633000
06633000
ENDCHAR
STARTCHAR 1ED2
ENCODING 7890
SWIDTH 787 0
DWIDTH 35 0
BBX 29 60 3 0
BITMAP
19800000
19800000
06600000
06600000
019C0000
019C0000
019C0000
00630000
00630000
001CC000
001CC000
00000000
00000000
001CC000
001CC000
001CC000
00633000
00633000
019CCE00
019CCE00
00603000
00603000
019CCE00
019CCE00
00000000
00000000
00000000
00633000
00633000
019CCE00
019CCE00
06633180
06633180
19800E60
19800E60
19800E60
E6000198
E6000198
18000060
18000060
E6000198
E6000198
18000060
18000060
E6000198
E6000198
E6000198
18000060
18000060
E6000198
E6000198
19800E60
19800E60
06633180
06633180
06633180
019CCE00
019CCE00
00633000
00633000
ENDCHAR
STARTCHAR 1ED3
ENCODING 7891
SWIDTH 697 0
DWIDTH 31 0
BBX 25 60 3 0
BITMAP
E6000000
E6000000
19800000
19800000
06600000
06600000
06600000
019C0000
019C0000
00630000
00630000
00000000
00000000
00630000
00630000
00630000
019CC000
019CC000
06633000
06633000
0180C000
0180C000
06633000
06633000
00000000
00000000
00000000
06633000
06633000
199CCE00
199CCE00
E6633180
E6633180
18000E00
18000E00
18000E00
E6003180
E6003180
18000E00
18000E00
E6003180
E6003180
18000E00
18000E00
E6003180
E6003180
E6003180
18000E00
18000E00
E6003180
E6003180
18000E00
18000E00
E6633180
E6633180
E6633180
199CCE00
199CCE00
06633000
06633000
ENDCHAR
STARTCHAR 1ED4
ENCODING 7892
SWIDTH 787 0
DWIDTH 35 0
BBX 29 64 3 0
BITMAP
019CC000
019CC000
00633000
00633000
019CCE00
019CCE00
00003000
00003000
001CCE00
001CCE00
001CCE00
00033000
00033000
001CC000
001CC000
00000000
00000000
001CC000
001CC000
001CC000
00633000
00633000
019CCE00
019CCE00
00603000
00603000
019CCE00
019CCE00
00000000
00000000
00000000
00633000
00633000
019CCE00
019CCE00
06633180
06633180
19800E60
19800E60
19800E60
E6000198
E6000198
18000060
18000060
E6000198
E6000198
18000060
18000060
E6000198
E6000198
E6000198
18000060
18000060
E6000198
E6000198
19800E60
19800E60
06633180
06633180
06633180
019CCE00
019CCE00
00633000
00633000
ENDCHAR
STARTCHAR 1ED5
ENCODING 7893
SWIDTH 697 0
DWIDTH 31 0
BBX 25 64 3 0
BITMAP
06630000
06630000
019CC000
019CC000
06633000
06633000
0000C000
0000C000
00633000
00633000
00633000
001CC000
001CC000
00630000
00630000
00000000
00000000
00630000
00630000
00630000
019CC000
019CC000
06633000
06633000
0180C000
0180C000
06633000
06633000
00000000
00000000
00000000
06633000
06633000
199CCE00
199CCE00
E6633180
E6633180
18000E00
18000E00
18000E00
E6003180
E6003180
18000E00
18000E00
E6003180
E6003180
18000E00
18000E00
E6003180
E6003180
E6003180
18000E00
18000E00
E6003180
E6003180
18000E00
18000E00
E6633180
E6633180
E6633180
199CCE00
199CCE00
06633000
06633000
ENDCHAR
STARTCHAR 1ED6
ENCODING 7894
SWIDTH 787 0
DWIDTH 35 0
BBX 29 60 3 0
BITMAP
019C0E60
019C0E60
06630180
06630180
199CCE60
199CCE60
199CCE60
06033180
06033180
1980CE00
1980CE00
00000000
00000000
001CC000
001CC000
001CC000
00633000
00633000
019CCE00
019CCE00
00603000
00603000
019CCE00
019CCE00
00000000
00000000
00000000
00633000
00633000
019CCE00
019CCE00
06633180
06633180
19800E60
19800E60
19800E60
E6000198
E6000198
18000060
18000060
E6000198
E6000198
18000060
18000060
E6000198
E6000198
E6000198
18000060
18000060
E6000198
E6000198
19800E60
19800E60
06633180
06633180
06633180
019CCE00
019CCE00
00633000
00633000
ENDCHAR
STARTCHAR 1ED7
ENCODING 7895
SWIDTH 697 0
DWIDTH 31 0
BBX 25 60 3 0
BITMAP
06603180
06603180
199C0E00
199C0E00
E6633180
E6633180
E6633180
181CCE00
181CCE00
E6033000
E6033000
00000000
00000000
00630000
00630000
00630000
019CC000
019CC000
06633000
06633000
0180C000
0180C000
06633000
06633000
00000000
00000000
00000000
06633000
06633000
199CCE00
199CCE00
E6633180
E6633180
18000E00
18000E00
18000E00
E6003180
E6003180
18000E00
18000E00
E6003180
E6003180
18000E00
18000E00
E6003180
E6003180
E6003180
18000E00
18000E00
E6003180
E6003180
18000E00
18000E00
E6633180
E6633180
E6633180
199CCE00
199CCE00
06633000
06633000
ENDCHAR
STARTCHAR 1ED8
ENCODING 7896
SWIDTH 787 0
DWIDTH 35 0
BBX 29 56 3 -9
BITMAP
001CC000
001CC000
001CC000
00633000
00633000
019CCE00
019CCE00
00603000
00603000
019CCE00
019CCE00
00000000
00000000
00000000
00633000
00633000
019CCE00
019CCE00
06633180
06633180
19800E60
19800E60
19800E60
E6000198
E6000198
18000060
18000060
E6000198
E6000198
18000060
18000060
E6000198
E6000198
E6000198
18000060
18000060
E6000198
E6000198
19800E60
19800E60
06633180
06633180
06633180
019CCE00
019CCE00
00633000
00633000
00000000
00000000
001CC000
001CC000
00030000
00030000
00030000
001CC000
001CC000
ENDCHAR
STARTCHAR 1ED9
ENCODING 7897
SWIDTH 697 0
DWIDTH 31 0
BBX 25 56 3 -9
BITMAP
00630000
00630000
00630000
019CC000
019CC000
06633000
06633000
0180C000
0180C000
06633000
06633000
00000000
00000000
00000000
06633000
06633000
199CCE00
199CCE00
E6633180
E6633180
18000E00
18000E00
18000E00
E6003180
E6003180
18000E00
18000E00
E6003180
E6003180
18000E00
18000E00
E6003180
E6003180
E6003180
18000E00
18000E00
E6003180
E6003180
18000E00
18000E00
E6633180
E6633180
E6633180
199CCE00
199CCE00
06633000
06633000
00000000
00000000
00630000
00630000
001C0000
001C0000
001C0000
00630000
00630000
ENDCHAR
STARTCHAR 1EDA
ENCODING 7898
SWIDTH 945 0
DWIDTH 42 0
BBX 38 47 3 0
BITMAP
0000318000
0000318000
0000318000
0000CE0000
0000CE0000
0003300000
0003300000
001CC00000
001CC00000
00630001CC
00630001CC
0000000030
0000000030
0000000030
06633199CC
06633199CC
199CCE6630
199CCE6630
E6633199C0
E6633199C0
1800006000
1800006000
1800006000
E600019800
E600019800
1800006000
1800006000
E600019800
E600019800
1800006000
1800006000
E600019800
E600019800
E600019800
1800006000
1800006000
E600019800
E600019800
1800006000
1800006000
E663319800
E663319800
E663319800
199CCE6000
199CCE6000
0663318000
0663318000
ENDCHAR
STARTCHAR 1EDB
ENCODING 7899
SWIDTH 832 0
DWIDTH 37 0
BBX 34 47 3 0
BITMAP
0000CE0000
0000CE0000
0000CE0000
0003300000
0003300000
001CC00000
001CC00000
0063000000
0063000000
019C0019C0
019C0019C0
0000000600
0000000600
0000000600
06633199C0
06633199C0
199CCE6600
199CCE6600
E663319800
E663319800
18000E0000
18000E0000
18000E0000
E600318000
E600318000
18000E0000
18000E0000
E600318000
E600318000
18000E0000
18000E0000
E600318000
E600318000
E600318000
18000E0000
18000E0000
E600318000
E600318000
18000E0000
18000E0000
E663318000
E663318000
E663318000
199CCE0000
199CCE0000
0663300000
0663300000
ENDCHAR
STARTCHAR 1EDC
ENCODING 7900
SWIDTH 945 0
DWIDTH 42 0
BBX 38 47 3 0
BITMAP
1980000000
1980000000
1980000000
0660000000
0660000000
019C000000
019C000000
0063000000
0063000000
001CC001CC
001CC001CC
0000000030
0000000030
0000000030
06633199CC
06633199CC
199CCE6630
199CCE6630
E6633199C0
E6633199C0
1800006000
1800006000
1800006000
E600019800
E600019800
1800006000
1800006000
E600019800
E600019800
1800006000
1800006000
E600019800
E600019800
E600019800
1800006000
1800006000
E600019800
E600019800
1800006000
1800006000
E663319800
E663319800
E663319800
199CCE6000
199CCE6000
0663318000
0663318000
ENDCHAR
ENDFONT
